<svg width="514" height="456" viewBox="0 0 514 456" fill="none" xmlns="http://www.w3.org/2000/svg">
<g filter="url(#filter0_f_2218_155)">
<circle cx="255" cy="219" r="91" fill="url(#paint0_radial_2218_155)"/>
</g>
<g filter="url(#filter1_f_2218_155)">
<circle cx="255" cy="219" r="91" fill="url(#paint1_radial_2218_155)"/>
</g>
<g opacity="0.72" filter="url(#filter2_f_2218_155)">
<circle cx="189.5" cy="270.5" r="1.5" fill="white"/>
</g>
<circle opacity="0.48" cx="352" cy="238" r="1" fill="white"/>
<g opacity="0.72" filter="url(#filter3_f_2218_155)">
<circle cx="337" cy="203" r="2" fill="white"/>
</g>
<g opacity="0.72" filter="url(#filter4_f_2218_155)">
<circle cx="158" cy="237" r="2" fill="white"/>
</g>
<g opacity="0.72" filter="url(#filter5_f_2218_155)">
<circle cx="213.5" cy="160.5" r="1.5" fill="white"/>
</g>
<circle opacity="0.72" cx="238" cy="312" r="1" fill="white"/>
<g opacity="0.72" filter="url(#filter6_f_2218_155)">
<circle cx="325" cy="255" r="1" fill="white"/>
</g>
<g opacity="0.72" filter="url(#filter7_f_2218_155)">
<circle cx="183" cy="185" r="1" fill="white"/>
</g>
<g opacity="0.72" filter="url(#filter8_f_2218_155)">
<circle cx="335.5" cy="162.5" r="1.5" fill="white"/>
</g>
<circle opacity="0.72" cx="290.5" cy="151.5" r="0.5" fill="white"/>
<path d="M390 204V229.304C390 235.931 384.627 241.304 378 241.304H374C367.373 241.304 362 246.676 362 253.304V279" stroke="url(#paint2_linear_2218_155)"/>
<path d="M423 93V118.304C423 124.931 417.627 130.304 411 130.304H407C400.373 130.304 395 135.676 395 142.304V168" stroke="url(#paint3_linear_2218_155)"/>
<path d="M118 166V140.696C118 134.069 112.627 128.696 106 128.696H98C91.3726 128.696 86 123.324 86 116.696V91" stroke="url(#paint4_linear_2218_155)"/>
<path d="M146 277V251.696C146 245.069 140.627 239.696 134 239.696H130C123.373 239.696 118 234.324 118 227.696V202" stroke="url(#paint5_linear_2218_155)"/>
<path d="M337 169.5H473C477.142 169.5 480.5 172.858 480.5 177V193C480.5 197.142 477.142 200.5 473 200.5H337C332.858 200.5 329.5 197.142 329.5 193V177C329.5 172.858 332.858 169.5 337 169.5Z" fill="url(#paint6_linear_2218_155)" stroke="url(#paint7_linear_2218_155)"/>
<path d="M338.408 181.273V190H336.563V181.273H338.408ZM347.226 181.273V190H345.632L341.836 184.507H341.772V190H339.926V181.273H341.546L345.313 186.761H345.39V181.273H347.226ZM348.418 182.794V181.273H355.586V182.794H352.914V190H351.09V182.794H348.418ZM356.766 190V181.273H362.647V182.794H358.612V184.874H362.344V186.395H358.612V188.479H362.664V190H356.766ZM369.901 184.094C369.841 183.886 369.757 183.703 369.65 183.544C369.542 183.382 369.409 183.246 369.253 183.135C369.1 183.021 368.924 182.935 368.725 182.875C368.529 182.815 368.311 182.786 368.073 182.786C367.627 182.786 367.235 182.896 366.897 183.118C366.561 183.339 366.3 183.662 366.113 184.085C365.925 184.506 365.831 185.02 365.831 185.628C365.831 186.236 365.924 186.753 366.108 187.179C366.293 187.605 366.554 187.93 366.892 188.155C367.23 188.376 367.63 188.487 368.09 188.487C368.507 188.487 368.864 188.413 369.159 188.266C369.458 188.115 369.685 187.903 369.841 187.631C370 187.358 370.08 187.036 370.08 186.663L370.455 186.719H368.205V185.33H371.857V186.429C371.857 187.196 371.695 187.855 371.371 188.406C371.047 188.955 370.601 189.378 370.033 189.676C369.465 189.972 368.814 190.119 368.081 190.119C367.263 190.119 366.544 189.939 365.925 189.578C365.306 189.214 364.823 188.699 364.476 188.031C364.132 187.361 363.961 186.565 363.961 185.645C363.961 184.937 364.063 184.307 364.267 183.753C364.475 183.196 364.765 182.724 365.137 182.338C365.509 181.952 365.942 181.658 366.436 181.456C366.931 181.254 367.466 181.153 368.043 181.153C368.537 181.153 368.998 181.226 369.424 181.371C369.85 181.513 370.228 181.714 370.557 181.976C370.89 182.237 371.161 182.548 371.371 182.909C371.581 183.267 371.716 183.662 371.776 184.094H369.901ZM373.243 190V181.273H376.686C377.345 181.273 377.908 181.391 378.374 181.626C378.842 181.859 379.199 182.19 379.443 182.619C379.69 183.045 379.814 183.547 379.814 184.124C379.814 184.703 379.689 185.202 379.439 185.619C379.189 186.034 378.827 186.352 378.352 186.574C377.881 186.795 377.31 186.906 376.639 186.906H374.334V185.423H376.341C376.693 185.423 376.986 185.375 377.219 185.278C377.452 185.182 377.625 185.037 377.739 184.844C377.855 184.651 377.913 184.411 377.913 184.124C377.913 183.834 377.855 183.589 377.739 183.391C377.625 183.192 377.45 183.041 377.214 182.939C376.982 182.834 376.688 182.781 376.332 182.781H375.088V190H373.243ZM377.956 186.028L380.125 190H378.088L375.966 186.028H377.956ZM382.622 190H380.645L383.658 181.273H386.036L389.044 190H387.067L384.881 183.267H384.812L382.622 190ZM382.499 186.57H387.169V188.01H382.499V186.57ZM388.696 182.794V181.273H395.863V182.794H393.191V190H391.368V182.794H388.696ZM398.889 181.273V190H397.044V181.273H398.889ZM408.427 185.636C408.427 186.588 408.246 187.398 407.886 188.065C407.528 188.733 407.039 189.243 406.42 189.595C405.803 189.945 405.11 190.119 404.34 190.119C403.565 190.119 402.869 189.943 402.252 189.591C401.636 189.239 401.148 188.729 400.79 188.061C400.433 187.393 400.254 186.585 400.254 185.636C400.254 184.685 400.433 183.875 400.79 183.207C401.148 182.54 401.636 182.031 402.252 181.682C402.869 181.33 403.565 181.153 404.34 181.153C405.11 181.153 405.803 181.33 406.42 181.682C407.039 182.031 407.528 182.54 407.886 183.207C408.246 183.875 408.427 184.685 408.427 185.636ZM406.556 185.636C406.556 185.02 406.464 184.5 406.279 184.077C406.097 183.653 405.84 183.332 405.508 183.114C405.175 182.895 404.786 182.786 404.34 182.786C403.894 182.786 403.505 182.895 403.173 183.114C402.84 183.332 402.582 183.653 402.397 184.077C402.215 184.5 402.124 185.02 402.124 185.636C402.124 186.253 402.215 186.773 402.397 187.196C402.582 187.619 402.84 187.94 403.173 188.159C403.505 188.378 403.894 188.487 404.34 188.487C404.786 188.487 405.175 188.378 405.508 188.159C405.84 187.94 406.097 187.619 406.279 187.196C406.464 186.773 406.556 186.253 406.556 185.636ZM417.093 181.273V190H415.5L411.703 184.507H411.639V190H409.794V181.273H411.413L415.18 186.761H415.257V181.273H417.093ZM421.063 182.794V181.273H428.23V182.794H425.559V190H423.735V182.794H421.063ZM429.411 190V181.273H435.292V182.794H431.256V184.874H434.989V186.395H431.256V188.479H435.309V190H429.411ZM441.493 183.783C441.459 183.439 441.313 183.172 441.054 182.982C440.795 182.791 440.445 182.696 440.001 182.696C439.7 182.696 439.446 182.739 439.239 182.824C439.031 182.906 438.872 183.021 438.761 183.169C438.653 183.317 438.599 183.484 438.599 183.672C438.594 183.828 438.626 183.964 438.697 184.081C438.771 184.197 438.872 184.298 439 184.384C439.128 184.466 439.276 184.538 439.443 184.601C439.611 184.661 439.79 184.712 439.98 184.754L440.764 184.942C441.145 185.027 441.494 185.141 441.812 185.283C442.131 185.425 442.406 185.599 442.639 185.807C442.872 186.014 443.053 186.259 443.18 186.54C443.311 186.821 443.378 187.143 443.381 187.507C443.378 188.041 443.241 188.504 442.972 188.896C442.705 189.286 442.318 189.588 441.812 189.804C441.31 190.017 440.703 190.124 439.993 190.124C439.288 190.124 438.675 190.016 438.152 189.8C437.632 189.584 437.226 189.264 436.933 188.841C436.643 188.415 436.491 187.888 436.477 187.26H438.263C438.283 187.553 438.366 187.797 438.514 187.993C438.665 188.186 438.865 188.332 439.115 188.432C439.368 188.528 439.653 188.577 439.972 188.577C440.284 188.577 440.555 188.531 440.786 188.44C441.018 188.349 441.199 188.223 441.327 188.061C441.455 187.899 441.518 187.713 441.518 187.503C441.518 187.307 441.46 187.142 441.344 187.009C441.23 186.875 441.063 186.761 440.841 186.668C440.622 186.574 440.354 186.489 440.036 186.412L439.085 186.173C438.349 185.994 437.768 185.714 437.342 185.334C436.916 184.953 436.705 184.44 436.707 183.795C436.705 183.267 436.845 182.805 437.129 182.411C437.416 182.016 437.81 181.707 438.31 181.486C438.81 181.264 439.378 181.153 440.014 181.153C440.662 181.153 441.227 181.264 441.71 181.486C442.196 181.707 442.574 182.016 442.844 182.411C443.114 182.805 443.253 183.263 443.261 183.783H441.493ZM444.289 182.794V181.273H451.457V182.794H448.785V190H446.961V182.794H444.289ZM454.483 181.273V190H452.637V181.273H454.483ZM463.3 181.273V190H461.707L457.91 184.507H457.846V190H456.001V181.273H457.62L461.387 186.761H461.464V181.273H463.3ZM470.612 184.094C470.552 183.886 470.468 183.703 470.36 183.544C470.252 183.382 470.12 183.246 469.964 183.135C469.811 183.021 469.635 182.935 469.436 182.875C469.24 182.815 469.022 182.786 468.784 182.786C468.338 182.786 467.946 182.896 467.608 183.118C467.272 183.339 467.011 183.662 466.824 184.085C466.636 184.506 466.542 185.02 466.542 185.628C466.542 186.236 466.635 186.753 466.819 187.179C467.004 187.605 467.265 187.93 467.603 188.155C467.941 188.376 468.341 188.487 468.801 188.487C469.218 188.487 469.575 188.413 469.87 188.266C470.169 188.115 470.396 187.903 470.552 187.631C470.711 187.358 470.791 187.036 470.791 186.663L471.166 186.719H468.916V185.33H472.568V186.429C472.568 187.196 472.406 187.855 472.082 188.406C471.758 188.955 471.312 189.378 470.744 189.676C470.176 189.972 469.525 190.119 468.792 190.119C467.974 190.119 467.255 189.939 466.636 189.578C466.017 189.214 465.534 188.699 465.187 188.031C464.843 187.361 464.672 186.565 464.672 185.645C464.672 184.937 464.774 184.307 464.978 183.753C465.186 183.196 465.475 182.724 465.848 182.338C466.22 181.952 466.653 181.658 467.147 181.456C467.642 181.254 468.177 181.153 468.754 181.153C469.248 181.153 469.708 181.226 470.135 181.371C470.561 181.513 470.939 181.714 471.268 181.976C471.6 182.237 471.872 182.548 472.082 182.909C472.292 183.267 472.427 183.662 472.487 184.094H470.612Z" fill="url(#paint8_linear_2218_155)"/>
<path d="M28 169.5H164C168.142 169.5 171.5 172.858 171.5 177V193C171.5 197.142 168.142 200.5 164 200.5H28C23.8579 200.5 20.5 197.142 20.5 193V177C20.5 172.858 23.8579 169.5 28 169.5Z" fill="url(#paint9_linear_2218_155)" stroke="url(#paint10_linear_2218_155)"/>
<path d="M42.9558 183.783C42.9217 183.439 42.7754 183.172 42.5169 182.982C42.2583 182.791 41.9075 182.696 41.4643 182.696C41.1632 182.696 40.9089 182.739 40.7015 182.824C40.4941 182.906 40.335 183.021 40.2243 183.169C40.1163 183.317 40.0623 183.484 40.0623 183.672C40.0566 183.828 40.0893 183.964 40.1603 184.081C40.2342 184.197 40.335 184.298 40.4629 184.384C40.5907 184.466 40.7385 184.538 40.9061 184.601C41.0737 184.661 41.2527 184.712 41.443 184.754L42.2271 184.942C42.6078 185.027 42.9572 185.141 43.2754 185.283C43.5936 185.425 43.8691 185.599 44.1021 185.807C44.335 186.014 44.5154 186.259 44.6433 186.54C44.774 186.821 44.8407 187.143 44.8436 187.507C44.8407 188.041 44.7044 188.504 44.4345 188.896C44.1674 189.286 43.7811 189.588 43.2754 189.804C42.7725 190.017 42.166 190.124 41.4558 190.124C40.7512 190.124 40.1376 190.016 39.6149 189.8C39.095 189.584 38.6887 189.264 38.3961 188.841C38.1064 188.415 37.9544 187.888 37.9402 187.26H39.7257C39.7456 187.553 39.8294 187.797 39.9771 187.993C40.1277 188.186 40.3279 188.332 40.5779 188.432C40.8308 188.528 41.1163 188.577 41.4345 188.577C41.747 188.577 42.0183 188.531 42.2484 188.44C42.4814 188.349 42.6618 188.223 42.7896 188.061C42.9174 187.899 42.9814 187.713 42.9814 187.503C42.9814 187.307 42.9231 187.142 42.8066 187.009C42.693 186.875 42.5254 186.761 42.3038 186.668C42.085 186.574 41.8166 186.489 41.4984 186.412L40.5481 186.173C39.8123 185.994 39.2314 185.714 38.8052 185.334C38.3791 184.953 38.1674 184.44 38.1703 183.795C38.1674 183.267 38.3081 182.805 38.5922 182.411C38.8791 182.016 39.2725 181.707 39.7725 181.486C40.2725 181.264 40.8407 181.153 41.4771 181.153C42.1248 181.153 42.6902 181.264 43.1731 181.486C43.6589 181.707 44.0368 182.016 44.3066 182.411C44.5765 182.805 44.7157 183.263 44.7243 183.783H42.9558ZM54.1046 185.636C54.1046 186.588 53.9242 187.398 53.5634 188.065C53.2054 188.733 52.7168 189.243 52.0975 189.595C51.481 189.945 50.7878 190.119 50.0179 190.119C49.2424 190.119 48.5463 189.943 47.9299 189.591C47.3134 189.239 46.8262 188.729 46.4682 188.061C46.1103 187.393 45.9313 186.585 45.9313 185.636C45.9313 184.685 46.1103 183.875 46.4682 183.207C46.8262 182.54 47.3134 182.031 47.9299 181.682C48.5463 181.33 49.2424 181.153 50.0179 181.153C50.7878 181.153 51.481 181.33 52.0975 181.682C52.7168 182.031 53.2054 182.54 53.5634 183.207C53.9242 183.875 54.1046 184.685 54.1046 185.636ZM52.2338 185.636C52.2338 185.02 52.1415 184.5 51.9569 184.077C51.775 183.653 51.5179 183.332 51.1855 183.114C50.8532 182.895 50.464 182.786 50.0179 182.786C49.5719 182.786 49.1827 182.895 48.8503 183.114C48.5179 183.332 48.2594 183.653 48.0748 184.077C47.8929 184.5 47.802 185.02 47.802 185.636C47.802 186.253 47.8929 186.773 48.0748 187.196C48.2594 187.619 48.5179 187.94 48.8503 188.159C49.1827 188.378 49.5719 188.487 50.0179 188.487C50.464 188.487 50.8532 188.378 51.1855 188.159C51.5179 187.94 51.775 187.619 51.9569 187.196C52.1415 186.773 52.2338 186.253 52.2338 185.636ZM55.4714 190V181.273H61.2498V182.794H57.3166V184.874H60.8663V186.395H57.3166V190H55.4714ZM62.1586 182.794V181.273H69.3262V182.794H66.6543V190H64.8304V182.794H62.1586ZM72.4711 190L69.9739 181.273H71.9895L73.4341 187.337H73.5066L75.1003 181.273H76.8262L78.4157 187.349H78.4924L79.937 181.273H81.9526L79.4554 190H77.6571L75.9952 184.294H75.927L74.2694 190H72.4711ZM83.5655 190H81.5882L84.601 181.273H86.9789L89.9874 190H88.0101L85.824 183.267H85.7559L83.5655 190ZM83.4419 186.57H88.1124V188.01H83.4419V186.57ZM91.0378 190V181.273H94.481C95.1401 181.273 95.7026 181.391 96.1685 181.626C96.6373 181.859 96.9938 182.19 97.2381 182.619C97.4853 183.045 97.6088 183.547 97.6088 184.124C97.6088 184.703 97.4838 185.202 97.2338 185.619C96.9838 186.034 96.6216 186.352 96.1472 186.574C95.6756 186.795 95.1046 186.906 94.4341 186.906H92.1287V185.423H94.1358C94.4881 185.423 94.7807 185.375 95.0137 185.278C95.2466 185.182 95.4199 185.037 95.5336 184.844C95.65 184.651 95.7083 184.411 95.7083 184.124C95.7083 183.834 95.65 183.589 95.5336 183.391C95.4199 183.192 95.2452 183.041 95.0094 182.939C94.7765 182.834 94.4824 182.781 94.1273 182.781H92.883V190H91.0378ZM95.7509 186.028L97.9199 190H95.883L93.7608 186.028H95.7509ZM98.9128 190V181.273H104.794V182.794H100.758V184.874H104.491V186.395H100.758V188.479H104.811V190H98.9128ZM112.132 190H109.038V181.273H112.157C113.035 181.273 113.791 181.447 114.424 181.797C115.058 182.143 115.545 182.642 115.886 183.293C116.23 183.943 116.401 184.722 116.401 185.628C116.401 186.537 116.23 187.318 115.886 187.972C115.545 188.625 115.055 189.126 114.416 189.476C113.779 189.825 113.018 190 112.132 190ZM110.883 188.419H112.055C112.6 188.419 113.059 188.322 113.431 188.129C113.806 187.933 114.088 187.631 114.275 187.222C114.465 186.81 114.561 186.278 114.561 185.628C114.561 184.983 114.465 184.456 114.275 184.047C114.088 183.638 113.808 183.337 113.436 183.143C113.063 182.95 112.605 182.854 112.059 182.854H110.883V188.419ZM117.768 190V181.273H123.649V182.794H119.613V184.874H123.346V186.395H119.613V188.479H123.666V190H117.768ZM129.85 183.783C129.816 183.439 129.67 183.172 129.411 182.982C129.153 182.791 128.802 182.696 128.359 182.696C128.058 182.696 127.803 182.739 127.596 182.824C127.389 182.906 127.23 183.021 127.119 183.169C127.011 183.317 126.957 183.484 126.957 183.672C126.951 183.828 126.984 183.964 127.055 184.081C127.129 184.197 127.23 184.298 127.357 184.384C127.485 184.466 127.633 184.538 127.801 184.601C127.968 184.661 128.147 184.712 128.338 184.754L129.122 184.942C129.502 185.027 129.852 185.141 130.17 185.283C130.488 185.425 130.764 185.599 130.997 185.807C131.23 186.014 131.41 186.259 131.538 186.54C131.669 186.821 131.735 187.143 131.738 187.507C131.735 188.041 131.599 188.504 131.329 188.896C131.062 189.286 130.676 189.588 130.17 189.804C129.667 190.017 129.061 190.124 128.35 190.124C127.646 190.124 127.032 190.016 126.509 189.8C125.99 189.584 125.583 189.264 125.291 188.841C125.001 188.415 124.849 187.888 124.835 187.26H126.62C126.64 187.553 126.724 187.797 126.872 187.993C127.022 188.186 127.222 188.332 127.472 188.432C127.725 188.528 128.011 188.577 128.329 188.577C128.642 188.577 128.913 188.531 129.143 188.44C129.376 188.349 129.556 188.223 129.684 188.061C129.812 187.899 129.876 187.713 129.876 187.503C129.876 187.307 129.818 187.142 129.701 187.009C129.588 186.875 129.42 186.761 129.198 186.668C128.98 186.574 128.711 186.489 128.393 186.412L127.443 186.173C126.707 185.994 126.126 185.714 125.7 185.334C125.274 184.953 125.062 184.44 125.065 183.795C125.062 183.267 125.203 182.805 125.487 182.411C125.774 182.016 126.167 181.707 126.667 181.486C127.167 181.264 127.735 181.153 128.372 181.153C129.019 181.153 129.585 181.264 130.068 181.486C130.553 181.707 130.931 182.016 131.201 182.411C131.471 182.805 131.61 183.263 131.619 183.783H129.85ZM134.824 181.273V190H132.979V181.273H134.824ZM142.129 184.094C142.07 183.886 141.986 183.703 141.878 183.544C141.77 183.382 141.638 183.246 141.482 183.135C141.328 183.021 141.152 182.935 140.953 182.875C140.757 182.815 140.54 182.786 140.301 182.786C139.855 182.786 139.463 182.896 139.125 183.118C138.79 183.339 138.529 183.662 138.341 184.085C138.154 184.506 138.06 185.02 138.06 185.628C138.06 186.236 138.152 186.753 138.337 187.179C138.521 187.605 138.783 187.93 139.121 188.155C139.459 188.376 139.858 188.487 140.318 188.487C140.736 188.487 141.093 188.413 141.388 188.266C141.686 188.115 141.914 187.903 142.07 187.631C142.229 187.358 142.308 187.036 142.308 186.663L142.683 186.719H140.433V185.33H144.085V186.429C144.085 187.196 143.923 187.855 143.6 188.406C143.276 188.955 142.83 189.378 142.262 189.676C141.693 189.972 141.043 190.119 140.31 190.119C139.492 190.119 138.773 189.939 138.154 189.578C137.534 189.214 137.051 188.699 136.705 188.031C136.361 187.361 136.189 186.565 136.189 185.645C136.189 184.937 136.291 184.307 136.496 183.753C136.703 183.196 136.993 182.724 137.365 182.338C137.737 181.952 138.171 181.658 138.665 181.456C139.159 181.254 139.695 181.153 140.271 181.153C140.766 181.153 141.226 181.226 141.652 181.371C142.078 181.513 142.456 181.714 142.786 181.976C143.118 182.237 143.389 182.548 143.6 182.909C143.81 183.267 143.945 183.662 144.004 184.094H142.129ZM152.771 181.273V190H151.177L147.381 184.507H147.317V190H145.471V181.273H147.091L150.858 186.761H150.934V181.273H152.771Z" fill="url(#paint11_linear_2218_155)"/>
<path d="M370 58.5H506C510.142 58.5 513.5 61.8579 513.5 66V82C513.5 86.1421 510.142 89.5 506 89.5H370C365.858 89.5 362.5 86.1421 362.5 82V66C362.5 61.8579 365.858 58.5 370 58.5Z" fill="url(#paint12_linear_2218_155)" stroke="url(#paint13_linear_2218_155)"/>
<path d="M389.942 72.7827C389.908 72.4389 389.762 72.1719 389.503 71.9815C389.245 71.7912 388.894 71.696 388.451 71.696C388.15 71.696 387.895 71.7386 387.688 71.8239C387.48 71.9062 387.321 72.0213 387.211 72.169C387.103 72.3168 387.049 72.4844 387.049 72.6719C387.043 72.8281 387.076 72.9645 387.147 73.081C387.221 73.1974 387.321 73.2983 387.449 73.3835C387.577 73.4659 387.725 73.5384 387.892 73.6009C388.06 73.6605 388.239 73.7116 388.429 73.7543L389.213 73.9418C389.594 74.027 389.944 74.1406 390.262 74.2827C390.58 74.4247 390.855 74.5994 391.088 74.8068C391.321 75.0142 391.502 75.2585 391.63 75.5398C391.76 75.821 391.827 76.1435 391.83 76.5071C391.827 77.0412 391.691 77.5043 391.421 77.8963C391.154 78.2855 390.767 78.5881 390.262 78.804C389.759 79.017 389.152 79.1236 388.442 79.1236C387.738 79.1236 387.124 79.0156 386.601 78.7997C386.081 78.5838 385.675 78.2642 385.382 77.8409C385.093 77.4148 384.941 76.8878 384.926 76.2599H386.712C386.732 76.5526 386.816 76.7969 386.963 76.9929C387.114 77.1861 387.314 77.3324 387.564 77.4318C387.817 77.5284 388.103 77.5767 388.421 77.5767C388.733 77.5767 389.005 77.5312 389.235 77.4403C389.468 77.3494 389.648 77.223 389.776 77.0611C389.904 76.8991 389.968 76.7131 389.968 76.5028C389.968 76.3068 389.909 76.142 389.793 76.0085C389.679 75.875 389.512 75.7614 389.29 75.6676C389.071 75.5739 388.803 75.4886 388.485 75.4119L387.534 75.1733C386.799 74.9943 386.218 74.7145 385.792 74.3338C385.365 73.9531 385.154 73.4403 385.157 72.7955C385.154 72.267 385.294 71.8054 385.578 71.4105C385.865 71.0156 386.259 70.7074 386.759 70.4858C387.259 70.2642 387.827 70.1534 388.463 70.1534C389.111 70.1534 389.676 70.2642 390.159 70.4858C390.645 70.7074 391.023 71.0156 391.293 71.4105C391.563 71.8054 391.702 72.2628 391.711 72.7827H389.942ZM392.56 70.2727H394.626L396.616 74.0312H396.702L398.692 70.2727H400.759L397.575 75.9148V79H395.743V75.9148L392.56 70.2727ZM406.501 72.7827C406.467 72.4389 406.32 72.1719 406.062 71.9815C405.803 71.7912 405.452 71.696 405.009 71.696C404.708 71.696 404.454 71.7386 404.246 71.8239C404.039 71.9062 403.88 72.0213 403.769 72.169C403.661 72.3168 403.607 72.4844 403.607 72.6719C403.602 72.8281 403.634 72.9645 403.705 73.081C403.779 73.1974 403.88 73.2983 404.008 73.3835C404.136 73.4659 404.283 73.5384 404.451 73.6009C404.619 73.6605 404.798 73.7116 404.988 73.7543L405.772 73.9418C406.153 74.027 406.502 74.1406 406.82 74.2827C407.138 74.4247 407.414 74.5994 407.647 74.8068C407.88 75.0142 408.06 75.2585 408.188 75.5398C408.319 75.821 408.386 76.1435 408.388 76.5071C408.386 77.0412 408.249 77.5043 407.979 77.8963C407.712 78.2855 407.326 78.5881 406.82 78.804C406.317 79.017 405.711 79.1236 405.001 79.1236C404.296 79.1236 403.683 79.0156 403.16 78.7997C402.64 78.5838 402.234 78.2642 401.941 77.8409C401.651 77.4148 401.499 76.8878 401.485 76.2599H403.271C403.29 76.5526 403.374 76.7969 403.522 76.9929C403.673 77.1861 403.873 77.3324 404.123 77.4318C404.376 77.5284 404.661 77.5767 404.979 77.5767C405.292 77.5767 405.563 77.5312 405.793 77.4403C406.026 77.3494 406.207 77.223 406.335 77.0611C406.462 76.8991 406.526 76.7131 406.526 76.5028C406.526 76.3068 406.468 76.142 406.352 76.0085C406.238 75.875 406.07 75.7614 405.849 75.6676C405.63 75.5739 405.362 75.4886 405.043 75.4119L404.093 75.1733C403.357 74.9943 402.776 74.7145 402.35 74.3338C401.924 73.9531 401.712 73.4403 401.715 72.7955C401.712 72.267 401.853 71.8054 402.137 71.4105C402.424 71.0156 402.817 70.7074 403.317 70.4858C403.817 70.2642 404.386 70.1534 405.022 70.1534C405.67 70.1534 406.235 70.2642 406.718 70.4858C407.204 70.7074 407.582 71.0156 407.852 71.4105C408.121 71.8054 408.261 72.2628 408.269 72.7827H406.501ZM409.297 71.794V70.2727H416.465V71.794H413.793V79H411.969V71.794H409.297ZM417.645 79V70.2727H423.526V71.794H419.49V73.8736H423.223V75.3949H419.49V77.4787H423.543V79H417.645ZM424.993 70.2727H427.268L429.672 76.1364H429.774L432.178 70.2727H434.453V79H432.663V73.3196H432.591L430.332 78.9574H429.114L426.855 73.2983H426.783V79H424.993V70.2727ZM438.418 71.794V70.2727H445.586V71.794H442.914V79H441.09V71.794H438.418ZM446.766 79V70.2727H452.647V71.794H448.612V73.8736H452.344V75.3949H448.612V77.4787H452.664V79H446.766ZM458.848 72.7827C458.814 72.4389 458.668 72.1719 458.409 71.9815C458.151 71.7912 457.8 71.696 457.357 71.696C457.056 71.696 456.801 71.7386 456.594 71.8239C456.387 71.9062 456.228 72.0213 456.117 72.169C456.009 72.3168 455.955 72.4844 455.955 72.6719C455.949 72.8281 455.982 72.9645 456.053 73.081C456.127 73.1974 456.228 73.2983 456.355 73.3835C456.483 73.4659 456.631 73.5384 456.799 73.6009C456.966 73.6605 457.145 73.7116 457.336 73.7543L458.12 73.9418C458.5 74.027 458.85 74.1406 459.168 74.2827C459.486 74.4247 459.762 74.5994 459.995 74.8068C460.228 75.0142 460.408 75.2585 460.536 75.5398C460.667 75.821 460.733 76.1435 460.736 76.5071C460.733 77.0412 460.597 77.5043 460.327 77.8963C460.06 78.2855 459.674 78.5881 459.168 78.804C458.665 79.017 458.059 79.1236 457.348 79.1236C456.644 79.1236 456.03 79.0156 455.507 78.7997C454.988 78.5838 454.581 78.2642 454.289 77.8409C453.999 77.4148 453.847 76.8878 453.833 76.2599H455.618C455.638 76.5526 455.722 76.7969 455.87 76.9929C456.02 77.1861 456.221 77.3324 456.471 77.4318C456.723 77.5284 457.009 77.5767 457.327 77.5767C457.64 77.5767 457.911 77.5312 458.141 77.4403C458.374 77.3494 458.554 77.223 458.682 77.0611C458.81 76.8991 458.874 76.7131 458.874 76.5028C458.874 76.3068 458.816 76.142 458.699 76.0085C458.586 75.875 458.418 75.7614 458.196 75.6676C457.978 75.5739 457.709 75.4886 457.391 75.4119L456.441 75.1733C455.705 74.9943 455.124 74.7145 454.698 74.3338C454.272 73.9531 454.06 73.4403 454.063 72.7955C454.06 72.267 454.201 71.8054 454.485 71.4105C454.772 71.0156 455.165 70.7074 455.665 70.4858C456.165 70.2642 456.733 70.1534 457.37 70.1534C458.017 70.1534 458.583 70.2642 459.066 70.4858C459.551 70.7074 459.929 71.0156 460.199 71.4105C460.469 71.8054 460.608 72.2628 460.617 72.7827H458.848ZM461.645 71.794V70.2727H468.812V71.794H466.141V79H464.317V71.794H461.645ZM471.838 70.2727V79H469.993V70.2727H471.838ZM480.656 70.2727V79H479.062L475.265 73.5071H475.201V79H473.356V70.2727H474.975L478.743 75.7614H478.819V70.2727H480.656ZM487.967 73.0938C487.908 72.8864 487.824 72.7031 487.716 72.544C487.608 72.3821 487.476 72.2457 487.32 72.1349C487.166 72.0213 486.99 71.9347 486.791 71.875C486.595 71.8153 486.378 71.7855 486.139 71.7855C485.693 71.7855 485.301 71.8963 484.963 72.1179C484.628 72.3395 484.366 72.6619 484.179 73.0852C483.991 73.5057 483.898 74.0199 483.898 74.6278C483.898 75.2358 483.99 75.7528 484.175 76.179C484.359 76.6051 484.621 76.9304 484.959 77.1548C485.297 77.3764 485.696 77.4872 486.156 77.4872C486.574 77.4872 486.93 77.4134 487.226 77.2656C487.524 77.1151 487.751 76.9034 487.908 76.6307C488.067 76.358 488.146 76.0355 488.146 75.6634L488.521 75.7188H486.271V74.3295H489.923V75.429C489.923 76.196 489.761 76.8551 489.438 77.4062C489.114 77.9545 488.668 78.3778 488.099 78.6761C487.531 78.9716 486.881 79.1193 486.148 79.1193C485.33 79.1193 484.611 78.9389 483.991 78.5781C483.372 78.2145 482.889 77.6989 482.543 77.0312C482.199 76.3608 482.027 75.5653 482.027 74.6449C482.027 73.9375 482.129 73.3068 482.334 72.7528C482.541 72.196 482.831 71.7244 483.203 71.3381C483.575 70.9517 484.009 70.6577 484.503 70.456C484.997 70.2543 485.533 70.1534 486.109 70.1534C486.604 70.1534 487.064 70.2259 487.49 70.3707C487.916 70.5128 488.294 70.7145 488.624 70.9759C488.956 71.2372 489.227 71.5483 489.438 71.9091C489.648 72.267 489.783 72.6619 489.842 73.0938H487.967Z" fill="url(#paint14_linear_2218_155)"/>
<path d="M8 58.5H144C148.142 58.5 151.5 61.8579 151.5 66V82C151.5 86.1421 148.142 89.5 144 89.5H8C3.85786 89.5 0.5 86.1421 0.5 82V66C0.5 61.8579 3.85786 58.5 8 58.5Z" fill="url(#paint15_linear_2218_155)" stroke="url(#paint16_linear_2218_155)"/>
<path d="M28.7683 79V70.2727H32.2115C32.8706 70.2727 33.4331 70.3906 33.899 70.6264C34.3677 70.8594 34.7243 71.1903 34.9686 71.6193C35.2157 72.0455 35.3393 72.5469 35.3393 73.1236C35.3393 73.7031 35.2143 74.2017 34.9643 74.6193C34.7143 75.0341 34.3521 75.3523 33.8777 75.5739C33.4061 75.7955 32.835 75.9062 32.1646 75.9062H29.8592V74.4233H31.8663C32.2186 74.4233 32.5112 74.375 32.7441 74.2784C32.9771 74.1818 33.1504 74.0369 33.264 73.8438C33.3805 73.6506 33.4387 73.4105 33.4387 73.1236C33.4387 72.8338 33.3805 72.5895 33.264 72.3906C33.1504 72.1918 32.9757 72.0412 32.7399 71.9389C32.5069 71.8338 32.2129 71.7812 31.8578 71.7812H30.6135V79H28.7683ZM33.4814 75.0284L35.6504 79H33.6135L31.4913 75.0284H33.4814ZM36.6433 79V70.2727H42.524V71.794H38.4885V73.8736H42.2214V75.3949H38.4885V77.4787H42.541V79H36.6433ZM47.285 75.9659H48.8532L49.6415 76.9801L50.4171 77.8835L51.8787 79.7159H50.1571L49.1515 78.4801L48.6358 77.7472L47.285 75.9659ZM52.0108 74.6364C52.0108 75.5881 51.8304 76.3977 51.4696 77.0653C51.1117 77.733 50.623 78.2429 50.0037 78.5952C49.3873 78.9446 48.6941 79.1193 47.9242 79.1193C47.1486 79.1193 46.4526 78.9432 45.8361 78.5909C45.2196 78.2386 44.7324 77.7287 44.3745 77.0611C44.0165 76.3935 43.8375 75.5852 43.8375 74.6364C43.8375 73.6847 44.0165 72.875 44.3745 72.2074C44.7324 71.5398 45.2196 71.0312 45.8361 70.6818C46.4526 70.3295 47.1486 70.1534 47.9242 70.1534C48.6941 70.1534 49.3873 70.3295 50.0037 70.6818C50.623 71.0312 51.1117 71.5398 51.4696 72.2074C51.8304 72.875 52.0108 73.6847 52.0108 74.6364ZM50.1401 74.6364C50.1401 74.0199 50.0478 73.5 49.8631 73.0767C49.6813 72.6534 49.4242 72.3324 49.0918 72.1136C48.7594 71.8949 48.3702 71.7855 47.9242 71.7855C47.4782 71.7855 47.089 71.8949 46.7566 72.1136C46.4242 72.3324 46.1657 72.6534 45.981 73.0767C45.7992 73.5 45.7083 74.0199 45.7083 74.6364C45.7083 75.2528 45.7992 75.7727 45.981 76.196C46.1657 76.6193 46.4242 76.9403 46.7566 77.1591C47.089 77.3778 47.4782 77.4872 47.9242 77.4872C48.3702 77.4872 48.7594 77.3778 49.0918 77.1591C49.4242 76.9403 49.6813 76.6193 49.8631 76.196C50.0478 75.7727 50.1401 75.2528 50.1401 74.6364ZM58.7683 70.2727H60.6135V75.9403C60.6135 76.5767 60.4615 77.1335 60.1575 77.6108C59.8564 78.0881 59.4345 78.4602 58.8919 78.7273C58.3493 78.9915 57.7172 79.1236 56.9956 79.1236C56.2711 79.1236 55.6376 78.9915 55.095 78.7273C54.5524 78.4602 54.1305 78.0881 53.8294 77.6108C53.5282 77.1335 53.3777 76.5767 53.3777 75.9403V70.2727H55.2228V75.7827C55.2228 76.1151 55.2953 76.4105 55.4402 76.669C55.5879 76.9276 55.7953 77.1307 56.0623 77.2784C56.3294 77.4261 56.6404 77.5 56.9956 77.5C57.3535 77.5 57.6646 77.4261 57.9288 77.2784C58.1958 77.1307 58.4018 76.9276 58.5467 76.669C58.6944 76.4105 58.7683 76.1151 58.7683 75.7827V70.2727ZM63.9767 70.2727V79H62.1316V70.2727H63.9767ZM65.4949 79V70.2727H68.938C69.5971 70.2727 70.1596 70.3906 70.6255 70.6264C71.0943 70.8594 71.4508 71.1903 71.6951 71.6193C71.9423 72.0455 72.0659 72.5469 72.0659 73.1236C72.0659 73.7031 71.9409 74.2017 71.6909 74.6193C71.4409 75.0341 71.0787 75.3523 70.6042 75.5739C70.1326 75.7955 69.5616 75.9062 68.8912 75.9062H66.5858V74.4233H68.5929C68.9451 74.4233 69.2377 74.375 69.4707 74.2784C69.7037 74.1818 69.877 74.0369 69.9906 73.8438C70.1071 73.6506 70.1653 73.4105 70.1653 73.1236C70.1653 72.8338 70.1071 72.5895 69.9906 72.3906C69.877 72.1918 69.7022 72.0412 69.4664 71.9389C69.2335 71.8338 68.9395 71.7812 68.5843 71.7812H67.34V79H65.4949ZM70.2079 75.0284L72.377 79H70.34L68.2179 75.0284H70.2079ZM73.3699 79V70.2727H79.2505V71.794H75.215V73.8736H78.948V75.3949H75.215V77.4787H79.2676V79H73.3699ZM80.7175 70.2727H82.9931L85.3965 76.1364H85.4988L87.9022 70.2727H90.1777V79H88.388V73.3196H88.3155L86.057 78.9574H84.8382L82.5797 73.2983H82.5073V79H80.7175V70.2727ZM91.698 79V70.2727H97.5787V71.794H93.5431V73.8736H97.2761V75.3949H93.5431V77.4787H97.5957V79H91.698ZM106.345 70.2727V79H104.752L100.955 73.5071H100.891V79H99.0456V70.2727H100.665L104.432 75.7614H104.509V70.2727H106.345ZM107.537 71.794V70.2727H114.705V71.794H112.033V79H110.209V71.794H107.537ZM120.62 72.7827C120.586 72.4389 120.439 72.1719 120.181 71.9815C119.922 71.7912 119.572 71.696 119.128 71.696C118.827 71.696 118.573 71.7386 118.366 71.8239C118.158 71.9062 117.999 72.0213 117.888 72.169C117.78 72.3168 117.726 72.4844 117.726 72.6719C117.721 72.8281 117.753 72.9645 117.824 73.081C117.898 73.1974 117.999 73.2983 118.127 73.3835C118.255 73.4659 118.403 73.5384 118.57 73.6009C118.738 73.6605 118.917 73.7116 119.107 73.7543L119.891 73.9418C120.272 74.027 120.621 74.1406 120.939 74.2827C121.258 74.4247 121.533 74.5994 121.766 74.8068C121.999 75.0142 122.18 75.2585 122.307 75.5398C122.438 75.821 122.505 76.1435 122.508 76.5071C122.505 77.0412 122.368 77.5043 122.099 77.8963C121.831 78.2855 121.445 78.5881 120.939 78.804C120.437 79.017 119.83 79.1236 119.12 79.1236C118.415 79.1236 117.802 79.0156 117.279 78.7997C116.759 78.5838 116.353 78.2642 116.06 77.8409C115.77 77.4148 115.618 76.8878 115.604 76.2599H117.39C117.41 76.5526 117.493 76.7969 117.641 76.9929C117.792 77.1861 117.992 77.3324 118.242 77.4318C118.495 77.5284 118.78 77.5767 119.099 77.5767C119.411 77.5767 119.682 77.5312 119.912 77.4403C120.145 77.3494 120.326 77.223 120.454 77.0611C120.581 76.8991 120.645 76.7131 120.645 76.5028C120.645 76.3068 120.587 76.142 120.471 76.0085C120.357 75.875 120.189 75.7614 119.968 75.6676C119.749 75.5739 119.481 75.4886 119.162 75.4119L118.212 75.1733C117.476 74.9943 116.895 74.7145 116.469 74.3338C116.043 73.9531 115.831 73.4403 115.834 72.7955C115.831 72.267 115.972 71.8054 116.256 71.4105C116.543 71.0156 116.937 70.7074 117.437 70.4858C117.937 70.2642 118.505 70.1534 119.141 70.1534C119.789 70.1534 120.354 70.2642 120.837 70.4858C121.323 70.7074 121.701 71.0156 121.971 71.4105C122.241 71.8054 122.38 72.2628 122.388 72.7827H120.62Z" fill="url(#paint17_linear_2218_155)"/>
<g filter="url(#filter9_d_2218_155)">
<rect x="172" y="388" width="177.11" height="36" rx="8" fill="url(#paint18_linear_2218_155)" shape-rendering="crispEdges"/>
<rect x="172.5" y="388.5" width="176.11" height="35" rx="7.5" stroke="url(#paint19_linear_2218_155)" shape-rendering="crispEdges"/>
</g>
<path d="M243.166 405.328H241.299C241.265 405.087 241.196 404.872 241.091 404.685C240.985 404.494 240.85 404.332 240.686 404.199C240.521 404.065 240.331 403.963 240.115 403.892C239.902 403.821 239.67 403.786 239.42 403.786C238.968 403.786 238.575 403.898 238.24 404.122C237.904 404.344 237.645 404.668 237.46 405.094C237.275 405.517 237.183 406.031 237.183 406.636C237.183 407.259 237.275 407.781 237.46 408.205C237.647 408.628 237.909 408.947 238.244 409.163C238.579 409.379 238.967 409.487 239.407 409.487C239.654 409.487 239.883 409.455 240.093 409.389C240.306 409.324 240.495 409.229 240.66 409.104C240.825 408.976 240.961 408.821 241.069 408.639C241.18 408.457 241.257 408.25 241.299 408.017L243.166 408.026C243.118 408.426 242.997 408.812 242.804 409.185C242.613 409.554 242.356 409.885 242.032 410.178C241.711 410.467 241.328 410.697 240.882 410.868C240.439 411.036 239.937 411.119 239.377 411.119C238.599 411.119 237.903 410.943 237.289 410.591C236.679 410.239 236.196 409.729 235.841 409.061C235.488 408.393 235.312 407.585 235.312 406.636C235.312 405.685 235.491 404.875 235.849 404.207C236.207 403.54 236.693 403.031 237.306 402.682C237.92 402.33 238.61 402.153 239.377 402.153C239.883 402.153 240.352 402.224 240.784 402.366C241.218 402.509 241.603 402.716 241.939 402.989C242.274 403.259 242.547 403.589 242.757 403.982C242.97 404.374 243.106 404.822 243.166 405.328ZM252.509 406.636C252.509 407.588 252.328 408.398 251.968 409.065C251.61 409.733 251.121 410.243 250.502 410.595C249.885 410.945 249.192 411.119 248.422 411.119C247.647 411.119 246.951 410.943 246.334 410.591C245.718 410.239 245.23 409.729 244.873 409.061C244.515 408.393 244.336 407.585 244.336 406.636C244.336 405.685 244.515 404.875 244.873 404.207C245.23 403.54 245.718 403.031 246.334 402.682C246.951 402.33 247.647 402.153 248.422 402.153C249.192 402.153 249.885 402.33 250.502 402.682C251.121 403.031 251.61 403.54 251.968 404.207C252.328 404.875 252.509 405.685 252.509 406.636ZM250.638 406.636C250.638 406.02 250.546 405.5 250.361 405.077C250.179 404.653 249.922 404.332 249.59 404.114C249.257 403.895 248.868 403.786 248.422 403.786C247.976 403.786 247.587 403.895 247.255 404.114C246.922 404.332 246.664 404.653 246.479 405.077C246.297 405.5 246.206 406.02 246.206 406.636C246.206 407.253 246.297 407.773 246.479 408.196C246.664 408.619 246.922 408.94 247.255 409.159C247.587 409.378 247.976 409.487 248.422 409.487C248.868 409.487 249.257 409.378 249.59 409.159C249.922 408.94 250.179 408.619 250.361 408.196C250.546 407.773 250.638 407.253 250.638 406.636ZM256.969 411H253.876V402.273H256.995C257.873 402.273 258.629 402.447 259.262 402.797C259.896 403.143 260.383 403.642 260.724 404.293C261.067 404.943 261.239 405.722 261.239 406.628C261.239 407.537 261.067 408.318 260.724 408.972C260.383 409.625 259.893 410.126 259.254 410.476C258.617 410.825 257.856 411 256.969 411ZM255.721 409.419H256.893C257.438 409.419 257.897 409.322 258.269 409.129C258.644 408.933 258.925 408.631 259.113 408.222C259.303 407.81 259.398 407.278 259.398 406.628C259.398 405.983 259.303 405.456 259.113 405.047C258.925 404.638 258.646 404.337 258.273 404.143C257.901 403.95 257.442 403.854 256.897 403.854H255.721V409.419ZM264.451 402.273V411H262.606V402.273H264.451ZM273.269 402.273V411H271.675L267.879 405.507H267.815V411H265.969V402.273H267.589L271.356 407.761H271.433V402.273H273.269ZM280.581 405.094C280.521 404.886 280.437 404.703 280.329 404.544C280.221 404.382 280.089 404.246 279.933 404.135C279.779 404.021 279.603 403.935 279.404 403.875C279.208 403.815 278.991 403.786 278.752 403.786C278.306 403.786 277.914 403.896 277.576 404.118C277.241 404.339 276.98 404.662 276.792 405.085C276.605 405.506 276.511 406.02 276.511 406.628C276.511 407.236 276.603 407.753 276.788 408.179C276.973 408.605 277.234 408.93 277.572 409.155C277.91 409.376 278.309 409.487 278.77 409.487C279.187 409.487 279.544 409.413 279.839 409.266C280.137 409.115 280.365 408.903 280.521 408.631C280.68 408.358 280.76 408.036 280.76 407.663L281.135 407.719H278.885V406.33H282.537V407.429C282.537 408.196 282.375 408.855 282.051 409.406C281.727 409.955 281.281 410.378 280.713 410.676C280.145 410.972 279.494 411.119 278.761 411.119C277.943 411.119 277.224 410.939 276.605 410.578C275.985 410.214 275.502 409.699 275.156 409.031C274.812 408.361 274.64 407.565 274.64 406.645C274.64 405.937 274.743 405.307 274.947 404.753C275.154 404.196 275.444 403.724 275.816 403.338C276.189 402.952 276.622 402.658 277.116 402.456C277.61 402.254 278.146 402.153 278.723 402.153C279.217 402.153 279.677 402.226 280.103 402.371C280.529 402.513 280.907 402.714 281.237 402.976C281.569 403.237 281.841 403.548 282.051 403.909C282.261 404.267 282.396 404.662 282.456 405.094H280.581Z" fill="url(#paint20_linear_2218_155)"/>
<g filter="url(#filter10_d_2218_155)">
<rect x="54" y="277" width="177.11" height="36" rx="8" fill="url(#paint21_linear_2218_155)" shape-rendering="crispEdges"/>
<rect x="54.5" y="277.5" width="176.11" height="35" rx="7.5" stroke="url(#paint22_linear_2218_155)" shape-rendering="crispEdges"/>
</g>
<path d="M95.7585 291.273H98.0341L100.438 297.136H100.54L102.943 291.273H105.219V300H103.429V294.32H103.357L101.098 299.957H99.8793L97.6207 294.298H97.5483V300H95.7585V291.273ZM114.759 295.636C114.759 296.588 114.578 297.398 114.218 298.065C113.86 298.733 113.371 299.243 112.752 299.595C112.135 299.945 111.442 300.119 110.672 300.119C109.897 300.119 109.201 299.943 108.584 299.591C107.968 299.239 107.48 298.729 107.123 298.061C106.765 297.393 106.586 296.585 106.586 295.636C106.586 294.685 106.765 293.875 107.123 293.207C107.48 292.54 107.968 292.031 108.584 291.682C109.201 291.33 109.897 291.153 110.672 291.153C111.442 291.153 112.135 291.33 112.752 291.682C113.371 292.031 113.86 292.54 114.218 293.207C114.578 293.875 114.759 294.685 114.759 295.636ZM112.888 295.636C112.888 295.02 112.796 294.5 112.611 294.077C112.429 293.653 112.172 293.332 111.84 293.114C111.507 292.895 111.118 292.786 110.672 292.786C110.226 292.786 109.837 292.895 109.505 293.114C109.172 293.332 108.914 293.653 108.729 294.077C108.547 294.5 108.456 295.02 108.456 295.636C108.456 296.253 108.547 296.773 108.729 297.196C108.914 297.619 109.172 297.94 109.505 298.159C109.837 298.378 110.226 298.487 110.672 298.487C111.118 298.487 111.507 298.378 111.84 298.159C112.172 297.94 112.429 297.619 112.611 297.196C112.796 296.773 112.888 296.253 112.888 295.636ZM119.219 300H116.126V291.273H119.245C120.123 291.273 120.879 291.447 121.512 291.797C122.146 292.143 122.633 292.642 122.974 293.293C123.317 293.943 123.489 294.722 123.489 295.628C123.489 296.537 123.317 297.318 122.974 297.972C122.633 298.625 122.143 299.126 121.504 299.476C120.867 299.825 120.106 300 119.219 300ZM117.971 298.419H119.143C119.688 298.419 120.147 298.322 120.519 298.129C120.894 297.933 121.175 297.631 121.363 297.222C121.553 296.81 121.648 296.278 121.648 295.628C121.648 294.983 121.553 294.456 121.363 294.047C121.175 293.638 120.896 293.337 120.523 293.143C120.151 292.95 119.692 292.854 119.147 292.854H117.971V298.419ZM130.247 291.273H132.092V296.94C132.092 297.577 131.94 298.134 131.636 298.611C131.335 299.088 130.913 299.46 130.37 299.727C129.828 299.991 129.196 300.124 128.474 300.124C127.75 300.124 127.116 299.991 126.574 299.727C126.031 299.46 125.609 299.088 125.308 298.611C125.007 298.134 124.856 297.577 124.856 296.94V291.273H126.701V296.783C126.701 297.115 126.774 297.411 126.919 297.669C127.066 297.928 127.274 298.131 127.541 298.278C127.808 298.426 128.119 298.5 128.474 298.5C128.832 298.5 129.143 298.426 129.407 298.278C129.674 298.131 129.88 297.928 130.025 297.669C130.173 297.411 130.247 297.115 130.247 296.783V291.273ZM133.61 300V291.273H135.455V298.479H139.197V300H133.61ZM140.419 300V291.273H146.299V292.794H142.264V294.874H145.997V296.395H142.264V298.479H146.316V300H140.419ZM153.637 300H150.544V291.273H153.663C154.541 291.273 155.297 291.447 155.93 291.797C156.564 292.143 157.051 292.642 157.392 293.293C157.735 293.943 157.907 294.722 157.907 295.628C157.907 296.537 157.735 297.318 157.392 297.972C157.051 298.625 156.561 299.126 155.922 299.476C155.285 299.825 154.524 300 153.637 300ZM152.389 298.419H153.561C154.106 298.419 154.565 298.322 154.937 298.129C155.312 297.933 155.593 297.631 155.781 297.222C155.971 296.81 156.066 296.278 156.066 295.628C156.066 294.983 155.971 294.456 155.781 294.047C155.593 293.638 155.314 293.337 154.941 293.143C154.569 292.95 154.11 292.854 153.565 292.854H152.389V298.419ZM159.274 300V291.273H165.155V292.794H161.119V294.874H164.852V296.395H161.119V298.479H165.172V300H159.274ZM171.356 293.783C171.322 293.439 171.176 293.172 170.917 292.982C170.659 292.791 170.308 292.696 169.865 292.696C169.564 292.696 169.309 292.739 169.102 292.824C168.895 292.906 168.735 293.021 168.625 293.169C168.517 293.317 168.463 293.484 168.463 293.672C168.457 293.828 168.49 293.964 168.561 294.081C168.635 294.197 168.735 294.298 168.863 294.384C168.991 294.466 169.139 294.538 169.306 294.601C169.474 294.661 169.653 294.712 169.843 294.754L170.627 294.942C171.008 295.027 171.358 295.141 171.676 295.283C171.994 295.425 172.27 295.599 172.502 295.807C172.735 296.014 172.916 296.259 173.044 296.54C173.174 296.821 173.241 297.143 173.244 297.507C173.241 298.041 173.105 298.504 172.835 298.896C172.568 299.286 172.181 299.588 171.676 299.804C171.173 300.017 170.566 300.124 169.856 300.124C169.152 300.124 168.538 300.016 168.015 299.8C167.495 299.584 167.089 299.264 166.797 298.841C166.507 298.415 166.355 297.888 166.341 297.26H168.126C168.146 297.553 168.23 297.797 168.377 297.993C168.528 298.186 168.728 298.332 168.978 298.432C169.231 298.528 169.517 298.577 169.835 298.577C170.147 298.577 170.419 298.531 170.649 298.44C170.882 298.349 171.062 298.223 171.19 298.061C171.318 297.899 171.382 297.713 171.382 297.503C171.382 297.307 171.324 297.142 171.207 297.009C171.093 296.875 170.926 296.761 170.704 296.668C170.485 296.574 170.217 296.489 169.899 296.412L168.949 296.173C168.213 295.994 167.632 295.714 167.206 295.334C166.779 294.953 166.568 294.44 166.571 293.795C166.568 293.267 166.708 292.805 166.993 292.411C167.279 292.016 167.673 291.707 168.173 291.486C168.673 291.264 169.241 291.153 169.877 291.153C170.525 291.153 171.091 291.264 171.574 291.486C172.059 291.707 172.437 292.016 172.707 292.411C172.977 292.805 173.116 293.263 173.125 293.783H171.356ZM176.33 291.273V300H174.485V291.273H176.33ZM183.635 294.094C183.576 293.886 183.492 293.703 183.384 293.544C183.276 293.382 183.144 293.246 182.988 293.135C182.834 293.021 182.658 292.935 182.459 292.875C182.263 292.815 182.046 292.786 181.807 292.786C181.361 292.786 180.969 292.896 180.631 293.118C180.296 293.339 180.034 293.662 179.847 294.085C179.659 294.506 179.566 295.02 179.566 295.628C179.566 296.236 179.658 296.753 179.843 297.179C180.027 297.605 180.289 297.93 180.627 298.155C180.965 298.376 181.364 298.487 181.824 298.487C182.242 298.487 182.598 298.413 182.894 298.266C183.192 298.115 183.419 297.903 183.576 297.631C183.735 297.358 183.814 297.036 183.814 296.663L184.189 296.719H181.939V295.33H185.591V296.429C185.591 297.196 185.429 297.855 185.105 298.406C184.782 298.955 184.336 299.378 183.767 299.676C183.199 299.972 182.549 300.119 181.816 300.119C180.998 300.119 180.279 299.939 179.659 299.578C179.04 299.214 178.557 298.699 178.211 298.031C177.867 297.361 177.695 296.565 177.695 295.645C177.695 294.937 177.797 294.307 178.002 293.753C178.209 293.196 178.499 292.724 178.871 292.338C179.243 291.952 179.676 291.658 180.171 291.456C180.665 291.254 181.201 291.153 181.777 291.153C182.272 291.153 182.732 291.226 183.158 291.371C183.584 291.513 183.962 291.714 184.292 291.976C184.624 292.237 184.895 292.548 185.105 292.909C185.316 293.267 185.451 293.662 185.51 294.094H183.635ZM194.277 291.273V300H192.683L188.886 294.507H188.822V300H186.977V291.273H188.597L192.364 296.761H192.44V291.273H194.277Z" fill="url(#paint23_linear_2218_155)"/>
<g filter="url(#filter11_d_2218_155)">
<rect x="286" y="277" width="177.11" height="36" rx="8" fill="url(#paint24_linear_2218_155)" shape-rendering="crispEdges"/>
<rect x="286.5" y="277.5" width="176.11" height="35" rx="7.5" stroke="url(#paint25_linear_2218_155)" shape-rendering="crispEdges"/>
</g>
<path d="M338.024 291.273H339.869V296.94C339.869 297.577 339.717 298.134 339.413 298.611C339.112 299.088 338.69 299.46 338.148 299.727C337.605 299.991 336.973 300.124 336.251 300.124C335.527 300.124 334.893 299.991 334.351 299.727C333.808 299.46 333.386 299.088 333.085 298.611C332.784 298.134 332.634 297.577 332.634 296.94V291.273H334.479V296.783C334.479 297.115 334.551 297.411 334.696 297.669C334.844 297.928 335.051 298.131 335.318 298.278C335.585 298.426 335.896 298.5 336.251 298.5C336.609 298.5 336.92 298.426 337.185 298.278C337.452 298.131 337.658 297.928 337.803 297.669C337.95 297.411 338.024 297.115 338.024 296.783V291.273ZM348.687 291.273V300H347.093L343.297 294.507H343.233V300H341.387V291.273H343.007L346.774 296.761H346.85V291.273H348.687ZM352.057 291.273V300H350.212V291.273H352.057ZM353.243 292.794V291.273H360.41V292.794H357.738V300H355.914V292.794H353.243ZM364.036 292.794V291.273H371.203V292.794H368.531V300H366.707V292.794H364.036ZM372.384 300V291.273H378.264V292.794H374.229V294.874H377.962V296.395H374.229V298.479H378.281V300H372.384ZM384.466 293.783C384.431 293.439 384.285 293.172 384.027 292.982C383.768 292.791 383.417 292.696 382.974 292.696C382.673 292.696 382.419 292.739 382.211 292.824C382.004 292.906 381.845 293.021 381.734 293.169C381.626 293.317 381.572 293.484 381.572 293.672C381.566 293.828 381.599 293.964 381.67 294.081C381.744 294.197 381.845 294.298 381.973 294.384C382.1 294.466 382.248 294.538 382.416 294.601C382.583 294.661 382.762 294.712 382.953 294.754L383.737 294.942C384.118 295.027 384.467 295.141 384.785 295.283C385.103 295.425 385.379 295.599 385.612 295.807C385.845 296.014 386.025 296.259 386.153 296.54C386.284 296.821 386.35 297.143 386.353 297.507C386.35 298.041 386.214 298.504 385.944 298.896C385.677 299.286 385.291 299.588 384.785 299.804C384.282 300.017 383.676 300.124 382.966 300.124C382.261 300.124 381.647 300.016 381.125 299.8C380.605 299.584 380.199 299.264 379.906 298.841C379.616 298.415 379.464 297.888 379.45 297.26H381.235C381.255 297.553 381.339 297.797 381.487 297.993C381.637 298.186 381.838 298.332 382.088 298.432C382.341 298.528 382.626 298.577 382.944 298.577C383.257 298.577 383.528 298.531 383.758 298.44C383.991 298.349 384.172 298.223 384.299 298.061C384.427 297.899 384.491 297.713 384.491 297.503C384.491 297.307 384.433 297.142 384.316 297.009C384.203 296.875 384.035 296.761 383.814 296.668C383.595 296.574 383.326 296.489 383.008 296.412L382.058 296.173C381.322 295.994 380.741 295.714 380.315 295.334C379.889 294.953 379.677 294.44 379.68 293.795C379.677 293.267 379.818 292.805 380.102 292.411C380.389 292.016 380.782 291.707 381.282 291.486C381.782 291.264 382.35 291.153 382.987 291.153C383.635 291.153 384.2 291.264 384.683 291.486C385.169 291.707 385.547 292.016 385.816 292.411C386.086 292.805 386.225 293.263 386.234 293.783H384.466ZM387.262 292.794V291.273H394.43V292.794H391.758V300H389.934V292.794H387.262ZM397.455 291.273V300H395.61V291.273H397.455ZM406.273 291.273V300H404.679L400.882 294.507H400.819V300H398.973V291.273H400.593L404.36 296.761H404.436V291.273H406.273ZM413.585 294.094C413.525 293.886 413.441 293.703 413.333 293.544C413.225 293.382 413.093 293.246 412.937 293.135C412.783 293.021 412.607 292.935 412.408 292.875C412.212 292.815 411.995 292.786 411.756 292.786C411.31 292.786 410.918 292.896 410.58 293.118C410.245 293.339 409.984 293.662 409.796 294.085C409.609 294.506 409.515 295.02 409.515 295.628C409.515 296.236 409.607 296.753 409.792 297.179C409.977 297.605 410.238 297.93 410.576 298.155C410.914 298.376 411.313 298.487 411.773 298.487C412.191 298.487 412.548 298.413 412.843 298.266C413.141 298.115 413.369 297.903 413.525 297.631C413.684 297.358 413.763 297.036 413.763 296.663L414.138 296.719H411.888V295.33H415.54V296.429C415.54 297.196 415.379 297.855 415.055 298.406C414.731 298.955 414.285 299.378 413.717 299.676C413.148 299.972 412.498 300.119 411.765 300.119C410.947 300.119 410.228 299.939 409.609 299.578C408.989 299.214 408.506 298.699 408.16 298.031C407.816 297.361 407.644 296.565 407.644 295.645C407.644 294.937 407.746 294.307 407.951 293.753C408.158 293.196 408.448 292.724 408.82 292.338C409.192 291.952 409.626 291.658 410.12 291.456C410.614 291.254 411.15 291.153 411.727 291.153C412.221 291.153 412.681 291.226 413.107 291.371C413.533 291.513 413.911 291.714 414.241 291.976C414.573 292.237 414.844 292.548 415.055 292.909C415.265 293.267 415.4 293.662 415.46 294.094H413.585Z" fill="url(#paint26_linear_2218_155)"/>
<path d="M260 388V362.696C260 356.069 254.627 350.696 248 350.696H164C157.373 350.696 152 345.324 152 338.696V313" stroke="url(#paint27_linear_2218_155)"/>
<path d="M369 313V338.304C369 344.931 363.627 350.304 357 350.304H273C266.373 350.304 261 355.676 261 362.304V388" stroke="url(#paint28_linear_2218_155)"/>
<defs>
<filter id="filter0_f_2218_155" x="36" y="0" width="438" height="438" filterUnits="userSpaceOnUse" color-interpolation-filters="sRGB">
<feFlood flood-opacity="0" result="BackgroundImageFix"/>
<feBlend mode="normal" in="SourceGraphic" in2="BackgroundImageFix" result="shape"/>
<feGaussianBlur stdDeviation="64" result="effect1_foregroundBlur_2218_155"/>
</filter>
<filter id="filter1_f_2218_155" x="36" y="0" width="438" height="438" filterUnits="userSpaceOnUse" color-interpolation-filters="sRGB">
<feFlood flood-opacity="0" result="BackgroundImageFix"/>
<feBlend mode="normal" in="SourceGraphic" in2="BackgroundImageFix" result="shape"/>
<feGaussianBlur stdDeviation="64" result="effect1_foregroundBlur_2218_155"/>
</filter>
<filter id="filter2_f_2218_155" x="182.563" y="263.563" width="13.8731" height="13.8731" filterUnits="userSpaceOnUse" color-interpolation-filters="sRGB">
<feFlood flood-opacity="0" result="BackgroundImageFix"/>
<feBlend mode="normal" in="SourceGraphic" in2="BackgroundImageFix" result="shape"/>
<feGaussianBlur stdDeviation="2.71828" result="effect1_foregroundBlur_2218_155"/>
</filter>
<filter id="filter3_f_2218_155" x="329.563" y="195.563" width="14.8731" height="14.8731" filterUnits="userSpaceOnUse" color-interpolation-filters="sRGB">
<feFlood flood-opacity="0" result="BackgroundImageFix"/>
<feBlend mode="normal" in="SourceGraphic" in2="BackgroundImageFix" result="shape"/>
<feGaussianBlur stdDeviation="2.71828" result="effect1_foregroundBlur_2218_155"/>
</filter>
<filter id="filter4_f_2218_155" x="147.845" y="226.845" width="20.3097" height="20.3097" filterUnits="userSpaceOnUse" color-interpolation-filters="sRGB">
<feFlood flood-opacity="0" result="BackgroundImageFix"/>
<feBlend mode="normal" in="SourceGraphic" in2="BackgroundImageFix" result="shape"/>
<feGaussianBlur stdDeviation="4.07742" result="effect1_foregroundBlur_2218_155"/>
</filter>
<filter id="filter5_f_2218_155" x="209.282" y="156.282" width="8.43656" height="8.43656" filterUnits="userSpaceOnUse" color-interpolation-filters="sRGB">
<feFlood flood-opacity="0" result="BackgroundImageFix"/>
<feBlend mode="normal" in="SourceGraphic" in2="BackgroundImageFix" result="shape"/>
<feGaussianBlur stdDeviation="1.35914" result="effect1_foregroundBlur_2218_155"/>
</filter>
<filter id="filter6_f_2218_155" x="321.282" y="251.282" width="7.43656" height="7.43656" filterUnits="userSpaceOnUse" color-interpolation-filters="sRGB">
<feFlood flood-opacity="0" result="BackgroundImageFix"/>
<feBlend mode="normal" in="SourceGraphic" in2="BackgroundImageFix" result="shape"/>
<feGaussianBlur stdDeviation="1.35914" result="effect1_foregroundBlur_2218_155"/>
</filter>
<filter id="filter7_f_2218_155" x="179.282" y="181.282" width="7.43656" height="7.43656" filterUnits="userSpaceOnUse" color-interpolation-filters="sRGB">
<feFlood flood-opacity="0" result="BackgroundImageFix"/>
<feBlend mode="normal" in="SourceGraphic" in2="BackgroundImageFix" result="shape"/>
<feGaussianBlur stdDeviation="1.35914" result="effect1_foregroundBlur_2218_155"/>
</filter>
<filter id="filter8_f_2218_155" x="328.563" y="155.563" width="13.8731" height="13.8731" filterUnits="userSpaceOnUse" color-interpolation-filters="sRGB">
<feFlood flood-opacity="0" result="BackgroundImageFix"/>
<feBlend mode="normal" in="SourceGraphic" in2="BackgroundImageFix" result="shape"/>
<feGaussianBlur stdDeviation="2.71828" result="effect1_foregroundBlur_2218_155"/>
</filter>
<filter id="filter9_d_2218_155" x="148" y="372" width="225.109" height="84" filterUnits="userSpaceOnUse" color-interpolation-filters="sRGB">
<feFlood flood-opacity="0" result="BackgroundImageFix"/>
<feColorMatrix in="SourceAlpha" type="matrix" values="0 0 0 0 0 0 0 0 0 0 0 0 0 0 0 0 0 0 127 0" result="hardAlpha"/>
<feOffset dy="8"/>
<feGaussianBlur stdDeviation="12"/>
<feComposite in2="hardAlpha" operator="out"/>
<feColorMatrix type="matrix" values="0 0 0 0 0.0117647 0 0 0 0 0.027451 0 0 0 0 0.0705882 0 0 0 1 0"/>
<feBlend mode="normal" in2="BackgroundImageFix" result="effect1_dropShadow_2218_155"/>
<feBlend mode="normal" in="SourceGraphic" in2="effect1_dropShadow_2218_155" result="shape"/>
</filter>
<filter id="filter10_d_2218_155" x="30" y="261" width="225.109" height="84" filterUnits="userSpaceOnUse" color-interpolation-filters="sRGB">
<feFlood flood-opacity="0" result="BackgroundImageFix"/>
<feColorMatrix in="SourceAlpha" type="matrix" values="0 0 0 0 0 0 0 0 0 0 0 0 0 0 0 0 0 0 127 0" result="hardAlpha"/>
<feOffset dy="8"/>
<feGaussianBlur stdDeviation="12"/>
<feComposite in2="hardAlpha" operator="out"/>
<feColorMatrix type="matrix" values="0 0 0 0 0.0117647 0 0 0 0 0.027451 0 0 0 0 0.0705882 0 0 0 1 0"/>
<feBlend mode="normal" in2="BackgroundImageFix" result="effect1_dropShadow_2218_155"/>
<feBlend mode="normal" in="SourceGraphic" in2="effect1_dropShadow_2218_155" result="shape"/>
</filter>
<filter id="filter11_d_2218_155" x="262" y="261" width="225.109" height="84" filterUnits="userSpaceOnUse" color-interpolation-filters="sRGB">
<feFlood flood-opacity="0" result="BackgroundImageFix"/>
<feColorMatrix in="SourceAlpha" type="matrix" values="0 0 0 0 0 0 0 0 0 0 0 0 0 0 0 0 0 0 127 0" result="hardAlpha"/>
<feOffset dy="8"/>
<feGaussianBlur stdDeviation="12"/>
<feComposite in2="hardAlpha" operator="out"/>
<feColorMatrix type="matrix" values="0 0 0 0 0.0117647 0 0 0 0 0.027451 0 0 0 0 0.0705882 0 0 0 1 0"/>
<feBlend mode="normal" in2="BackgroundImageFix" result="effect1_dropShadow_2218_155"/>
<feBlend mode="normal" in="SourceGraphic" in2="effect1_dropShadow_2218_155" result="shape"/>
</filter>
<radialGradient id="paint0_radial_2218_155" cx="0" cy="0" r="1" gradientUnits="userSpaceOnUse" gradientTransform="translate(236.8 219) rotate(90) scale(166.227 175.445)">
<stop stop-color="#6366F1" stop-opacity="0.54"/>
<stop offset="0.45572" stop-color="#6366F1" stop-opacity="0.32"/>
<stop offset="1" stop-color="#6366F1" stop-opacity="0"/>
</radialGradient>
<radialGradient id="paint1_radial_2218_155" cx="0" cy="0" r="1" gradientUnits="userSpaceOnUse" gradientTransform="translate(236.8 219) rotate(90) scale(166.227 175.445)">
<stop stop-color="#6366F1" stop-opacity="0.54"/>
<stop offset="0.45572" stop-color="#6366F1" stop-opacity="0.32"/>
<stop offset="1" stop-color="#6366F1" stop-opacity="0"/>
</radialGradient>
<linearGradient id="paint2_linear_2218_155" x1="390" y1="204" x2="362" y2="279" gradientUnits="userSpaceOnUse">
<stop stop-color="#374151"/>
<stop offset="1" stop-color="#374151" stop-opacity="0.4"/>
</linearGradient>
<linearGradient id="paint3_linear_2218_155" x1="423" y1="93" x2="395" y2="168" gradientUnits="userSpaceOnUse">
<stop stop-color="#374151"/>
<stop offset="1" stop-color="#374151" stop-opacity="0.4"/>
</linearGradient>
<linearGradient id="paint4_linear_2218_155" x1="118" y1="166" x2="86" y2="91" gradientUnits="userSpaceOnUse">
<stop stop-color="#374151" stop-opacity="0.4"/>
<stop offset="1" stop-color="#374151"/>
</linearGradient>
<linearGradient id="paint5_linear_2218_155" x1="146" y1="277" x2="118" y2="202" gradientUnits="userSpaceOnUse">
<stop stop-color="#374151" stop-opacity="0.4"/>
<stop offset="1" stop-color="#374151"/>
</linearGradient>
<linearGradient id="paint6_linear_2218_155" x1="410.507" y1="201" x2="410.28" y2="167.494" gradientUnits="userSpaceOnUse">
<stop stop-color="#1F2937" stop-opacity="0.64"/>
<stop offset="1" stop-color="#1F2937"/>
</linearGradient>
<linearGradient id="paint7_linear_2218_155" x1="329" y1="169" x2="464.79" y2="234.57" gradientUnits="userSpaceOnUse">
<stop stop-color="#1F2937"/>
<stop offset="0.5" stop-color="#4B5563"/>
<stop offset="0.995" stop-color="#1F2937"/>
</linearGradient>
<linearGradient id="paint8_linear_2218_155" x1="333" y1="185.5" x2="476" y2="185.5" gradientUnits="userSpaceOnUse">
<stop stop-color="#838AA7"/>
<stop offset="1" stop-color="#838AA7" stop-opacity="0.64"/>
</linearGradient>
<linearGradient id="paint9_linear_2218_155" x1="101.507" y1="201" x2="101.28" y2="167.494" gradientUnits="userSpaceOnUse">
<stop stop-color="#1F2937" stop-opacity="0.64"/>
<stop offset="1" stop-color="#1F2937"/>
</linearGradient>
<linearGradient id="paint10_linear_2218_155" x1="20" y1="169" x2="155.79" y2="234.57" gradientUnits="userSpaceOnUse">
<stop stop-color="#1F2937"/>
<stop offset="0.5" stop-color="#4B5563"/>
<stop offset="0.995" stop-color="#1F2937"/>
</linearGradient>
<linearGradient id="paint11_linear_2218_155" x1="24" y1="185.5" x2="167" y2="185.5" gradientUnits="userSpaceOnUse">
<stop stop-color="#838AA7"/>
<stop offset="1" stop-color="#838AA7" stop-opacity="0.64"/>
</linearGradient>
<linearGradient id="paint12_linear_2218_155" x1="443.507" y1="90" x2="443.28" y2="56.4936" gradientUnits="userSpaceOnUse">
<stop stop-color="#1F2937" stop-opacity="0.64"/>
<stop offset="1" stop-color="#1F2937"/>
</linearGradient>
<linearGradient id="paint13_linear_2218_155" x1="362" y1="58" x2="497.79" y2="123.57" gradientUnits="userSpaceOnUse">
<stop stop-color="#1F2937"/>
<stop offset="0.5" stop-color="#4B5563"/>
<stop offset="0.995" stop-color="#1F2937"/>
</linearGradient>
<linearGradient id="paint14_linear_2218_155" x1="366" y1="74.5" x2="509" y2="74.5" gradientUnits="userSpaceOnUse">
<stop stop-color="#838AA7"/>
<stop offset="1" stop-color="#838AA7" stop-opacity="0.64"/>
</linearGradient>
<linearGradient id="paint15_linear_2218_155" x1="81.5072" y1="90" x2="81.2799" y2="56.4936" gradientUnits="userSpaceOnUse">
<stop stop-color="#1F2937" stop-opacity="0.64"/>
<stop offset="1" stop-color="#1F2937"/>
</linearGradient>
<linearGradient id="paint16_linear_2218_155" x1="0" y1="58" x2="135.79" y2="123.57" gradientUnits="userSpaceOnUse">
<stop stop-color="#1F2937"/>
<stop offset="0.5" stop-color="#4B5563"/>
<stop offset="0.995" stop-color="#1F2937"/>
</linearGradient>
<linearGradient id="paint17_linear_2218_155" x1="4" y1="74.5" x2="147" y2="74.5" gradientUnits="userSpaceOnUse">
<stop stop-color="#838AA7"/>
<stop offset="1" stop-color="#838AA7" stop-opacity="0.64"/>
</linearGradient>
<linearGradient id="paint18_linear_2218_155" x1="266.972" y1="424" x2="266.725" y2="386.305" gradientUnits="userSpaceOnUse">
<stop stop-color="#1F2937" stop-opacity="0.64"/>
<stop offset="1" stop-color="#1F2937"/>
</linearGradient>
<linearGradient id="paint19_linear_2218_155" x1="172" y1="388" x2="328.075" y2="466.059" gradientUnits="userSpaceOnUse">
<stop stop-color="#1F2937"/>
<stop offset="0.5" stop-color="#6366F1"/>
<stop offset="0.995" stop-color="#1F2937"/>
</linearGradient>
<linearGradient id="paint20_linear_2218_155" x1="234.707" y1="406.5" x2="285.707" y2="406.5" gradientUnits="userSpaceOnUse">
<stop stop-color="#838AA7"/>
<stop offset="1" stop-color="#838AA7" stop-opacity="0.64"/>
</linearGradient>
<linearGradient id="paint21_linear_2218_155" x1="148.972" y1="313" x2="148.725" y2="275.305" gradientUnits="userSpaceOnUse">
<stop stop-color="#1F2937" stop-opacity="0.64"/>
<stop offset="1" stop-color="#1F2937"/>
</linearGradient>
<linearGradient id="paint22_linear_2218_155" x1="54" y1="277" x2="210.075" y2="355.059" gradientUnits="userSpaceOnUse">
<stop stop-color="#1F2937"/>
<stop offset="0.5" stop-color="#6366F1"/>
<stop offset="0.995" stop-color="#1F2937"/>
</linearGradient>
<linearGradient id="paint23_linear_2218_155" x1="95" y1="295.5" x2="204" y2="295.5" gradientUnits="userSpaceOnUse">
<stop stop-color="#838AA7"/>
<stop offset="1" stop-color="#838AA7" stop-opacity="0.64"/>
</linearGradient>
<linearGradient id="paint24_linear_2218_155" x1="380.972" y1="313" x2="380.725" y2="275.305" gradientUnits="userSpaceOnUse">
<stop stop-color="#1F2937" stop-opacity="0.64"/>
<stop offset="1" stop-color="#1F2937"/>
</linearGradient>
<linearGradient id="paint25_linear_2218_155" x1="286" y1="277" x2="442.075" y2="355.059" gradientUnits="userSpaceOnUse">
<stop stop-color="#1F2937"/>
<stop offset="0.5" stop-color="#6366F1"/>
<stop offset="0.995" stop-color="#1F2937"/>
</linearGradient>
<linearGradient id="paint26_linear_2218_155" x1="331.875" y1="295.5" x2="416.875" y2="295.5" gradientUnits="userSpaceOnUse">
<stop stop-color="#838AA7"/>
<stop offset="1" stop-color="#838AA7" stop-opacity="0.64"/>
</linearGradient>
<linearGradient id="paint27_linear_2218_155" x1="206" y1="373.471" x2="206" y2="313" gradientUnits="userSpaceOnUse">
<stop stop-color="#6366F1"/>
<stop offset="1" stop-color="#6366F1" stop-opacity="0.2"/>
</linearGradient>
<linearGradient id="paint28_linear_2218_155" x1="315" y1="327.529" x2="315" y2="388" gradientUnits="userSpaceOnUse">
<stop stop-color="#6366F1" stop-opacity="0.2"/>
<stop offset="1" stop-color="#6366F1"/>
</linearGradient>
</defs>
</svg>
