<svg width="539" height="438" viewBox="0 0 539 438" fill="none" xmlns="http://www.w3.org/2000/svg">
<g filter="url(#filter0_f_2218_157)">
<circle cx="255" cy="219" r="91" fill="url(#paint0_radial_2218_157)"/>
</g>
<g filter="url(#filter1_f_2218_157)">
<circle cx="255" cy="219" r="91" fill="url(#paint1_radial_2218_157)"/>
</g>
<g opacity="0.72" filter="url(#filter2_f_2218_157)">
<circle cx="189.5" cy="270.5" r="1.5" fill="white"/>
</g>
<circle opacity="0.48" cx="352" cy="238" r="1" fill="white"/>
<g opacity="0.72" filter="url(#filter3_f_2218_157)">
<circle cx="337" cy="203" r="2" fill="white"/>
</g>
<g opacity="0.72" filter="url(#filter4_f_2218_157)">
<circle cx="158" cy="237" r="2" fill="white"/>
</g>
<g opacity="0.72" filter="url(#filter5_f_2218_157)">
<circle cx="213.5" cy="160.5" r="1.5" fill="white"/>
</g>
<circle opacity="0.72" cx="238" cy="312" r="1" fill="white"/>
<g opacity="0.72" filter="url(#filter6_f_2218_157)">
<circle cx="325" cy="255" r="1" fill="white"/>
</g>
<g opacity="0.72" filter="url(#filter7_f_2218_157)">
<circle cx="183" cy="185" r="1" fill="white"/>
</g>
<g opacity="0.72" filter="url(#filter8_f_2218_157)">
<circle cx="335.5" cy="162.5" r="1.5" fill="white"/>
</g>
<circle opacity="0.72" cx="290.5" cy="151.5" r="0.5" fill="white"/>
<path d="M390 203V228.304C390 234.931 384.627 240.304 378 240.304H374C367.373 240.304 362 245.676 362 252.304V278" stroke="url(#paint2_linear_2218_157)"/>
<path d="M118 165V139.696C118 133.069 112.627 127.696 106 127.696H98C91.3726 127.696 86 122.324 86 115.696V90" stroke="url(#paint3_linear_2218_157)"/>
<path d="M146 276V250.696C146 244.069 140.627 238.696 134 238.696H130C123.373 238.696 118 233.324 118 226.696V201" stroke="url(#paint4_linear_2218_157)"/>
<path d="M28 168.5H164C168.142 168.5 171.5 171.858 171.5 176V192C171.5 196.142 168.142 199.5 164 199.5H28C23.8579 199.5 20.5 196.142 20.5 192V176C20.5 171.858 23.8579 168.5 28 168.5Z" fill="url(#paint5_linear_2218_157)" stroke="url(#paint6_linear_2218_157)"/>
<path d="M42.9558 182.783C42.9217 182.439 42.7754 182.172 42.5169 181.982C42.2583 181.791 41.9075 181.696 41.4643 181.696C41.1632 181.696 40.9089 181.739 40.7015 181.824C40.4941 181.906 40.335 182.021 40.2243 182.169C40.1163 182.317 40.0623 182.484 40.0623 182.672C40.0566 182.828 40.0893 182.964 40.1603 183.081C40.2342 183.197 40.335 183.298 40.4629 183.384C40.5907 183.466 40.7385 183.538 40.9061 183.601C41.0737 183.661 41.2527 183.712 41.443 183.754L42.2271 183.942C42.6078 184.027 42.9572 184.141 43.2754 184.283C43.5936 184.425 43.8691 184.599 44.1021 184.807C44.335 185.014 44.5154 185.259 44.6433 185.54C44.774 185.821 44.8407 186.143 44.8436 186.507C44.8407 187.041 44.7044 187.504 44.4345 187.896C44.1674 188.286 43.7811 188.588 43.2754 188.804C42.7725 189.017 42.166 189.124 41.4558 189.124C40.7512 189.124 40.1376 189.016 39.6149 188.8C39.095 188.584 38.6887 188.264 38.3961 187.841C38.1064 187.415 37.9544 186.888 37.9402 186.26H39.7257C39.7456 186.553 39.8294 186.797 39.9771 186.993C40.1277 187.186 40.3279 187.332 40.5779 187.432C40.8308 187.528 41.1163 187.577 41.4345 187.577C41.747 187.577 42.0183 187.531 42.2484 187.44C42.4814 187.349 42.6618 187.223 42.7896 187.061C42.9174 186.899 42.9814 186.713 42.9814 186.503C42.9814 186.307 42.9231 186.142 42.8066 186.009C42.693 185.875 42.5254 185.761 42.3038 185.668C42.085 185.574 41.8166 185.489 41.4984 185.412L40.5481 185.173C39.8123 184.994 39.2314 184.714 38.8052 184.334C38.3791 183.953 38.1674 183.44 38.1703 182.795C38.1674 182.267 38.3081 181.805 38.5922 181.411C38.8791 181.016 39.2725 180.707 39.7725 180.486C40.2725 180.264 40.8407 180.153 41.4771 180.153C42.1248 180.153 42.6902 180.264 43.1731 180.486C43.6589 180.707 44.0368 181.016 44.3066 181.411C44.5765 181.805 44.7157 182.263 44.7243 182.783H42.9558ZM54.1046 184.636C54.1046 185.588 53.9242 186.398 53.5634 187.065C53.2054 187.733 52.7168 188.243 52.0975 188.595C51.481 188.945 50.7878 189.119 50.0179 189.119C49.2424 189.119 48.5463 188.943 47.9299 188.591C47.3134 188.239 46.8262 187.729 46.4682 187.061C46.1103 186.393 45.9313 185.585 45.9313 184.636C45.9313 183.685 46.1103 182.875 46.4682 182.207C46.8262 181.54 47.3134 181.031 47.9299 180.682C48.5463 180.33 49.2424 180.153 50.0179 180.153C50.7878 180.153 51.481 180.33 52.0975 180.682C52.7168 181.031 53.2054 181.54 53.5634 182.207C53.9242 182.875 54.1046 183.685 54.1046 184.636ZM52.2338 184.636C52.2338 184.02 52.1415 183.5 51.9569 183.077C51.775 182.653 51.5179 182.332 51.1855 182.114C50.8532 181.895 50.464 181.786 50.0179 181.786C49.5719 181.786 49.1827 181.895 48.8503 182.114C48.5179 182.332 48.2594 182.653 48.0748 183.077C47.8929 183.5 47.802 184.02 47.802 184.636C47.802 185.253 47.8929 185.773 48.0748 186.196C48.2594 186.619 48.5179 186.94 48.8503 187.159C49.1827 187.378 49.5719 187.487 50.0179 187.487C50.464 187.487 50.8532 187.378 51.1855 187.159C51.5179 186.94 51.775 186.619 51.9569 186.196C52.1415 185.773 52.2338 185.253 52.2338 184.636ZM55.4714 189V180.273H61.2498V181.794H57.3166V183.874H60.8663V185.395H57.3166V189H55.4714ZM62.1586 181.794V180.273H69.3262V181.794H66.6543V189H64.8304V181.794H62.1586ZM72.4711 189L69.9739 180.273H71.9895L73.4341 186.337H73.5066L75.1003 180.273H76.8262L78.4157 186.349H78.4924L79.937 180.273H81.9526L79.4554 189H77.6571L75.9952 183.294H75.927L74.2694 189H72.4711ZM83.5655 189H81.5882L84.601 180.273H86.9789L89.9874 189H88.0101L85.824 182.267H85.7559L83.5655 189ZM83.4419 185.57H88.1124V187.01H83.4419V185.57ZM91.0378 189V180.273H94.481C95.1401 180.273 95.7026 180.391 96.1685 180.626C96.6373 180.859 96.9938 181.19 97.2381 181.619C97.4853 182.045 97.6088 182.547 97.6088 183.124C97.6088 183.703 97.4838 184.202 97.2338 184.619C96.9838 185.034 96.6216 185.352 96.1472 185.574C95.6756 185.795 95.1046 185.906 94.4341 185.906H92.1287V184.423H94.1358C94.4881 184.423 94.7807 184.375 95.0137 184.278C95.2466 184.182 95.4199 184.037 95.5336 183.844C95.65 183.651 95.7083 183.411 95.7083 183.124C95.7083 182.834 95.65 182.589 95.5336 182.391C95.4199 182.192 95.2452 182.041 95.0094 181.939C94.7765 181.834 94.4824 181.781 94.1273 181.781H92.883V189H91.0378ZM95.7509 185.028L97.9199 189H95.883L93.7608 185.028H95.7509ZM98.9128 189V180.273H104.794V181.794H100.758V183.874H104.491V185.395H100.758V187.479H104.811V189H98.9128ZM112.132 189H109.038V180.273H112.157C113.035 180.273 113.791 180.447 114.424 180.797C115.058 181.143 115.545 181.642 115.886 182.293C116.23 182.943 116.401 183.722 116.401 184.628C116.401 185.537 116.23 186.318 115.886 186.972C115.545 187.625 115.055 188.126 114.416 188.476C113.779 188.825 113.018 189 112.132 189ZM110.883 187.419H112.055C112.6 187.419 113.059 187.322 113.431 187.129C113.806 186.933 114.088 186.631 114.275 186.222C114.465 185.81 114.561 185.278 114.561 184.628C114.561 183.983 114.465 183.456 114.275 183.047C114.088 182.638 113.808 182.337 113.436 182.143C113.063 181.95 112.605 181.854 112.059 181.854H110.883V187.419ZM117.768 189V180.273H123.649V181.794H119.613V183.874H123.346V185.395H119.613V187.479H123.666V189H117.768ZM129.85 182.783C129.816 182.439 129.67 182.172 129.411 181.982C129.153 181.791 128.802 181.696 128.359 181.696C128.058 181.696 127.803 181.739 127.596 181.824C127.389 181.906 127.23 182.021 127.119 182.169C127.011 182.317 126.957 182.484 126.957 182.672C126.951 182.828 126.984 182.964 127.055 183.081C127.129 183.197 127.23 183.298 127.357 183.384C127.485 183.466 127.633 183.538 127.801 183.601C127.968 183.661 128.147 183.712 128.338 183.754L129.122 183.942C129.502 184.027 129.852 184.141 130.17 184.283C130.488 184.425 130.764 184.599 130.997 184.807C131.23 185.014 131.41 185.259 131.538 185.54C131.669 185.821 131.735 186.143 131.738 186.507C131.735 187.041 131.599 187.504 131.329 187.896C131.062 188.286 130.676 188.588 130.17 188.804C129.667 189.017 129.061 189.124 128.35 189.124C127.646 189.124 127.032 189.016 126.509 188.8C125.99 188.584 125.583 188.264 125.291 187.841C125.001 187.415 124.849 186.888 124.835 186.26H126.62C126.64 186.553 126.724 186.797 126.872 186.993C127.022 187.186 127.222 187.332 127.472 187.432C127.725 187.528 128.011 187.577 128.329 187.577C128.642 187.577 128.913 187.531 129.143 187.44C129.376 187.349 129.556 187.223 129.684 187.061C129.812 186.899 129.876 186.713 129.876 186.503C129.876 186.307 129.818 186.142 129.701 186.009C129.588 185.875 129.42 185.761 129.198 185.668C128.98 185.574 128.711 185.489 128.393 185.412L127.443 185.173C126.707 184.994 126.126 184.714 125.7 184.334C125.274 183.953 125.062 183.44 125.065 182.795C125.062 182.267 125.203 181.805 125.487 181.411C125.774 181.016 126.167 180.707 126.667 180.486C127.167 180.264 127.735 180.153 128.372 180.153C129.019 180.153 129.585 180.264 130.068 180.486C130.553 180.707 130.931 181.016 131.201 181.411C131.471 181.805 131.61 182.263 131.619 182.783H129.85ZM134.824 180.273V189H132.979V180.273H134.824ZM142.129 183.094C142.07 182.886 141.986 182.703 141.878 182.544C141.77 182.382 141.638 182.246 141.482 182.135C141.328 182.021 141.152 181.935 140.953 181.875C140.757 181.815 140.54 181.786 140.301 181.786C139.855 181.786 139.463 181.896 139.125 182.118C138.79 182.339 138.529 182.662 138.341 183.085C138.154 183.506 138.06 184.02 138.06 184.628C138.06 185.236 138.152 185.753 138.337 186.179C138.521 186.605 138.783 186.93 139.121 187.155C139.459 187.376 139.858 187.487 140.318 187.487C140.736 187.487 141.093 187.413 141.388 187.266C141.686 187.115 141.914 186.903 142.07 186.631C142.229 186.358 142.308 186.036 142.308 185.663L142.683 185.719H140.433V184.33H144.085V185.429C144.085 186.196 143.923 186.855 143.6 187.406C143.276 187.955 142.83 188.378 142.262 188.676C141.693 188.972 141.043 189.119 140.31 189.119C139.492 189.119 138.773 188.939 138.154 188.578C137.534 188.214 137.051 187.699 136.705 187.031C136.361 186.361 136.189 185.565 136.189 184.645C136.189 183.937 136.291 183.307 136.496 182.753C136.703 182.196 136.993 181.724 137.365 181.338C137.737 180.952 138.171 180.658 138.665 180.456C139.159 180.254 139.695 180.153 140.271 180.153C140.766 180.153 141.226 180.226 141.652 180.371C142.078 180.513 142.456 180.714 142.786 180.976C143.118 181.237 143.389 181.548 143.6 181.909C143.81 182.267 143.945 182.662 144.004 183.094H142.129ZM152.771 180.273V189H151.177L147.381 183.507H147.317V189H145.471V180.273H147.091L150.858 185.761H150.934V180.273H152.771Z" fill="url(#paint7_linear_2218_157)"/>
<path d="M8 57.5H144C148.142 57.5 151.5 60.8579 151.5 65V81C151.5 85.1421 148.142 88.5 144 88.5H8C3.85786 88.5 0.5 85.1421 0.5 81V65C0.5 60.8579 3.85786 57.5 8 57.5Z" fill="url(#paint8_linear_2218_157)" stroke="url(#paint9_linear_2218_157)"/>
<path d="M28.7683 78V69.2727H32.2115C32.8706 69.2727 33.4331 69.3906 33.899 69.6264C34.3677 69.8594 34.7243 70.1903 34.9686 70.6193C35.2157 71.0455 35.3393 71.5469 35.3393 72.1236C35.3393 72.7031 35.2143 73.2017 34.9643 73.6193C34.7143 74.0341 34.3521 74.3523 33.8777 74.5739C33.4061 74.7955 32.835 74.9062 32.1646 74.9062H29.8592V73.4233H31.8663C32.2186 73.4233 32.5112 73.375 32.7441 73.2784C32.9771 73.1818 33.1504 73.0369 33.264 72.8438C33.3805 72.6506 33.4387 72.4105 33.4387 72.1236C33.4387 71.8338 33.3805 71.5895 33.264 71.3906C33.1504 71.1918 32.9757 71.0412 32.7399 70.9389C32.5069 70.8338 32.2129 70.7812 31.8578 70.7812H30.6135V78H28.7683ZM33.4814 74.0284L35.6504 78H33.6135L31.4913 74.0284H33.4814ZM36.6433 78V69.2727H42.524V70.794H38.4885V72.8736H42.2214V74.3949H38.4885V76.4787H42.541V78H36.6433ZM47.285 74.9659H48.8532L49.6415 75.9801L50.4171 76.8835L51.8787 78.7159H50.1571L49.1515 77.4801L48.6358 76.7472L47.285 74.9659ZM52.0108 73.6364C52.0108 74.5881 51.8304 75.3977 51.4696 76.0653C51.1117 76.733 50.623 77.2429 50.0037 77.5952C49.3873 77.9446 48.6941 78.1193 47.9242 78.1193C47.1486 78.1193 46.4526 77.9432 45.8361 77.5909C45.2196 77.2386 44.7324 76.7287 44.3745 76.0611C44.0165 75.3935 43.8375 74.5852 43.8375 73.6364C43.8375 72.6847 44.0165 71.875 44.3745 71.2074C44.7324 70.5398 45.2196 70.0312 45.8361 69.6818C46.4526 69.3295 47.1486 69.1534 47.9242 69.1534C48.6941 69.1534 49.3873 69.3295 50.0037 69.6818C50.623 70.0312 51.1117 70.5398 51.4696 71.2074C51.8304 71.875 52.0108 72.6847 52.0108 73.6364ZM50.1401 73.6364C50.1401 73.0199 50.0478 72.5 49.8631 72.0767C49.6813 71.6534 49.4242 71.3324 49.0918 71.1136C48.7594 70.8949 48.3702 70.7855 47.9242 70.7855C47.4782 70.7855 47.089 70.8949 46.7566 71.1136C46.4242 71.3324 46.1657 71.6534 45.981 72.0767C45.7992 72.5 45.7083 73.0199 45.7083 73.6364C45.7083 74.2528 45.7992 74.7727 45.981 75.196C46.1657 75.6193 46.4242 75.9403 46.7566 76.1591C47.089 76.3778 47.4782 76.4872 47.9242 76.4872C48.3702 76.4872 48.7594 76.3778 49.0918 76.1591C49.4242 75.9403 49.6813 75.6193 49.8631 75.196C50.0478 74.7727 50.1401 74.2528 50.1401 73.6364ZM58.7683 69.2727H60.6135V74.9403C60.6135 75.5767 60.4615 76.1335 60.1575 76.6108C59.8564 77.0881 59.4345 77.4602 58.8919 77.7273C58.3493 77.9915 57.7172 78.1236 56.9956 78.1236C56.2711 78.1236 55.6376 77.9915 55.095 77.7273C54.5524 77.4602 54.1305 77.0881 53.8294 76.6108C53.5282 76.1335 53.3777 75.5767 53.3777 74.9403V69.2727H55.2228V74.7827C55.2228 75.1151 55.2953 75.4105 55.4402 75.669C55.5879 75.9276 55.7953 76.1307 56.0623 76.2784C56.3294 76.4261 56.6404 76.5 56.9956 76.5C57.3535 76.5 57.6646 76.4261 57.9288 76.2784C58.1958 76.1307 58.4018 75.9276 58.5467 75.669C58.6944 75.4105 58.7683 75.1151 58.7683 74.7827V69.2727ZM63.9767 69.2727V78H62.1316V69.2727H63.9767ZM65.4949 78V69.2727H68.938C69.5971 69.2727 70.1596 69.3906 70.6255 69.6264C71.0943 69.8594 71.4508 70.1903 71.6951 70.6193C71.9423 71.0455 72.0659 71.5469 72.0659 72.1236C72.0659 72.7031 71.9409 73.2017 71.6909 73.6193C71.4409 74.0341 71.0787 74.3523 70.6042 74.5739C70.1326 74.7955 69.5616 74.9062 68.8912 74.9062H66.5858V73.4233H68.5929C68.9451 73.4233 69.2377 73.375 69.4707 73.2784C69.7037 73.1818 69.877 73.0369 69.9906 72.8438C70.1071 72.6506 70.1653 72.4105 70.1653 72.1236C70.1653 71.8338 70.1071 71.5895 69.9906 71.3906C69.877 71.1918 69.7022 71.0412 69.4664 70.9389C69.2335 70.8338 68.9395 70.7812 68.5843 70.7812H67.34V78H65.4949ZM70.2079 74.0284L72.377 78H70.34L68.2179 74.0284H70.2079ZM73.3699 78V69.2727H79.2505V70.794H75.215V72.8736H78.948V74.3949H75.215V76.4787H79.2676V78H73.3699ZM80.7175 69.2727H82.9931L85.3965 75.1364H85.4988L87.9022 69.2727H90.1777V78H88.388V72.3196H88.3155L86.057 77.9574H84.8382L82.5797 72.2983H82.5073V78H80.7175V69.2727ZM91.698 78V69.2727H97.5787V70.794H93.5431V72.8736H97.2761V74.3949H93.5431V76.4787H97.5957V78H91.698ZM106.345 69.2727V78H104.752L100.955 72.5071H100.891V78H99.0456V69.2727H100.665L104.432 74.7614H104.509V69.2727H106.345ZM107.537 70.794V69.2727H114.705V70.794H112.033V78H110.209V70.794H107.537ZM120.62 71.7827C120.586 71.4389 120.439 71.1719 120.181 70.9815C119.922 70.7912 119.572 70.696 119.128 70.696C118.827 70.696 118.573 70.7386 118.366 70.8239C118.158 70.9062 117.999 71.0213 117.888 71.169C117.78 71.3168 117.726 71.4844 117.726 71.6719C117.721 71.8281 117.753 71.9645 117.824 72.081C117.898 72.1974 117.999 72.2983 118.127 72.3835C118.255 72.4659 118.403 72.5384 118.57 72.6009C118.738 72.6605 118.917 72.7116 119.107 72.7543L119.891 72.9418C120.272 73.027 120.621 73.1406 120.939 73.2827C121.258 73.4247 121.533 73.5994 121.766 73.8068C121.999 74.0142 122.18 74.2585 122.307 74.5398C122.438 74.821 122.505 75.1435 122.508 75.5071C122.505 76.0412 122.368 76.5043 122.099 76.8963C121.831 77.2855 121.445 77.5881 120.939 77.804C120.437 78.017 119.83 78.1236 119.12 78.1236C118.415 78.1236 117.802 78.0156 117.279 77.7997C116.759 77.5838 116.353 77.2642 116.06 76.8409C115.77 76.4148 115.618 75.8878 115.604 75.2599H117.39C117.41 75.5526 117.493 75.7969 117.641 75.9929C117.792 76.1861 117.992 76.3324 118.242 76.4318C118.495 76.5284 118.78 76.5767 119.099 76.5767C119.411 76.5767 119.682 76.5312 119.912 76.4403C120.145 76.3494 120.326 76.223 120.454 76.0611C120.581 75.8991 120.645 75.7131 120.645 75.5028C120.645 75.3068 120.587 75.142 120.471 75.0085C120.357 74.875 120.189 74.7614 119.968 74.6676C119.749 74.5739 119.481 74.4886 119.162 74.4119L118.212 74.1733C117.476 73.9943 116.895 73.7145 116.469 73.3338C116.043 72.9531 115.831 72.4403 115.834 71.7955C115.831 71.267 115.972 70.8054 116.256 70.4105C116.543 70.0156 116.937 69.7074 117.437 69.4858C117.937 69.2642 118.505 69.1534 119.141 69.1534C119.789 69.1534 120.354 69.2642 120.837 69.4858C121.323 69.7074 121.701 70.0156 121.971 70.4105C122.241 70.8054 122.38 71.2628 122.388 71.7827H120.62Z" fill="url(#paint10_linear_2218_157)"/>
<path d="M253 387V361.696C253 355.069 247.627 349.696 241 349.696H157C150.373 349.696 145 344.324 145 337.696V312" stroke="url(#paint11_linear_2218_157)"/>
<path d="M362 312V337.304C362 343.931 356.627 349.304 350 349.304H266C259.373 349.304 254 354.676 254 361.304V387" stroke="url(#paint12_linear_2218_157)"/>
<path d="M76 279.5H212C216.142 279.5 219.5 282.858 219.5 287V303C219.5 307.142 216.142 310.5 212 310.5H76C71.8579 310.5 68.5 307.142 68.5 303V287C68.5 282.858 71.8579 279.5 76 279.5Z" fill="url(#paint13_linear_2218_157)" stroke="url(#paint14_linear_2218_157)"/>
<path d="M94.237 291.273H96.5126L98.916 297.136H99.0183L101.422 291.273H103.697V300H101.907V294.32H101.835L99.5765 299.957H98.3578L96.0993 294.298H96.0268V300H94.237V291.273ZM113.237 295.636C113.237 296.588 113.057 297.398 112.696 298.065C112.338 298.733 111.85 299.243 111.23 299.595C110.614 299.945 109.921 300.119 109.151 300.119C108.375 300.119 107.679 299.943 107.063 299.591C106.446 299.239 105.959 298.729 105.601 298.061C105.243 297.393 105.064 296.585 105.064 295.636C105.064 294.685 105.243 293.875 105.601 293.207C105.959 292.54 106.446 292.031 107.063 291.682C107.679 291.33 108.375 291.153 109.151 291.153C109.921 291.153 110.614 291.33 111.23 291.682C111.85 292.031 112.338 292.54 112.696 293.207C113.057 293.875 113.237 294.685 113.237 295.636ZM111.367 295.636C111.367 295.02 111.274 294.5 111.09 294.077C110.908 293.653 110.651 293.332 110.318 293.114C109.986 292.895 109.597 292.786 109.151 292.786C108.705 292.786 108.316 292.895 107.983 293.114C107.651 293.332 107.392 293.653 107.208 294.077C107.026 294.5 106.935 295.02 106.935 295.636C106.935 296.253 107.026 296.773 107.208 297.196C107.392 297.619 107.651 297.94 107.983 298.159C108.316 298.378 108.705 298.487 109.151 298.487C109.597 298.487 109.986 298.378 110.318 298.159C110.651 297.94 110.908 297.619 111.09 297.196C111.274 296.773 111.367 296.253 111.367 295.636ZM117.698 300H114.604V291.273H117.724C118.601 291.273 119.357 291.447 119.991 291.797C120.624 292.143 121.111 292.642 121.452 293.293C121.796 293.943 121.968 294.722 121.968 295.628C121.968 296.537 121.796 297.318 121.452 297.972C121.111 298.625 120.621 299.126 119.982 299.476C119.346 299.825 118.584 300 117.698 300ZM116.449 298.419H117.621C118.167 298.419 118.626 298.322 118.998 298.129C119.373 297.933 119.654 297.631 119.841 297.222C120.032 296.81 120.127 296.278 120.127 295.628C120.127 294.983 120.032 294.456 119.841 294.047C119.654 293.638 119.374 293.337 119.002 293.143C118.63 292.95 118.171 292.854 117.626 292.854H116.449V298.419ZM128.725 291.273H130.57V296.94C130.57 297.577 130.419 298.134 130.115 298.611C129.813 299.088 129.392 299.46 128.849 299.727C128.306 299.991 127.674 300.124 126.953 300.124C126.228 300.124 125.595 299.991 125.052 299.727C124.509 299.46 124.088 299.088 123.786 298.611C123.485 298.134 123.335 297.577 123.335 296.94V291.273H125.18V296.783C125.18 297.115 125.252 297.411 125.397 297.669C125.545 297.928 125.752 298.131 126.019 298.278C126.286 298.426 126.597 298.5 126.953 298.5C127.311 298.5 127.622 298.426 127.886 298.278C128.153 298.131 128.359 297.928 128.504 297.669C128.651 297.411 128.725 297.115 128.725 296.783V291.273ZM132.089 300V291.273H133.934V298.479H137.675V300H132.089ZM138.897 300V291.273H144.778V292.794H140.742V294.874H144.475V296.395H140.742V298.479H144.795V300H138.897ZM152.116 300H149.022V291.273H152.142C153.019 291.273 153.775 291.447 154.409 291.797C155.042 292.143 155.529 292.642 155.87 293.293C156.214 293.943 156.386 294.722 156.386 295.628C156.386 296.537 156.214 297.318 155.87 297.972C155.529 298.625 155.039 299.126 154.4 299.476C153.764 299.825 153.002 300 152.116 300ZM150.867 298.419H152.039C152.585 298.419 153.044 298.322 153.416 298.129C153.791 297.933 154.072 297.631 154.259 297.222C154.45 296.81 154.545 296.278 154.545 295.628C154.545 294.983 154.45 294.456 154.259 294.047C154.072 293.638 153.792 293.337 153.42 293.143C153.048 292.95 152.589 292.854 152.044 292.854H150.867V298.419ZM157.753 300V291.273H163.633V292.794H159.598V294.874H163.331V296.395H159.598V298.479H163.65V300H157.753ZM169.835 293.783C169.801 293.439 169.654 293.172 169.396 292.982C169.137 292.791 168.786 292.696 168.343 292.696C168.042 292.696 167.788 292.739 167.58 292.824C167.373 292.906 167.214 293.021 167.103 293.169C166.995 293.317 166.941 293.484 166.941 293.672C166.936 293.828 166.968 293.964 167.039 294.081C167.113 294.197 167.214 294.298 167.342 294.384C167.47 294.466 167.617 294.538 167.785 294.601C167.953 294.661 168.132 294.712 168.322 294.754L169.106 294.942C169.487 295.027 169.836 295.141 170.154 295.283C170.472 295.425 170.748 295.599 170.981 295.807C171.214 296.014 171.394 296.259 171.522 296.54C171.653 296.821 171.72 297.143 171.722 297.507C171.72 298.041 171.583 298.504 171.313 298.896C171.046 299.286 170.66 299.588 170.154 299.804C169.651 300.017 169.045 300.124 168.335 300.124C167.63 300.124 167.017 300.016 166.494 299.8C165.974 299.584 165.568 299.264 165.275 298.841C164.985 298.415 164.833 297.888 164.819 297.26H166.605C166.624 297.553 166.708 297.797 166.856 297.993C167.007 298.186 167.207 298.332 167.457 298.432C167.71 298.528 167.995 298.577 168.313 298.577C168.626 298.577 168.897 298.531 169.127 298.44C169.36 298.349 169.541 298.223 169.669 298.061C169.796 297.899 169.86 297.713 169.86 297.503C169.86 297.307 169.802 297.142 169.686 297.009C169.572 296.875 169.404 296.761 169.183 296.668C168.964 296.574 168.695 296.489 168.377 296.412L167.427 296.173C166.691 295.994 166.11 295.714 165.684 295.334C165.258 294.953 165.046 294.44 165.049 293.795C165.046 293.267 165.187 292.805 165.471 292.411C165.758 292.016 166.151 291.707 166.651 291.486C167.151 291.264 167.72 291.153 168.356 291.153C169.004 291.153 169.569 291.264 170.052 291.486C170.538 291.707 170.916 292.016 171.186 292.411C171.455 292.805 171.595 293.263 171.603 293.783H169.835ZM174.809 291.273V300H172.964V291.273H174.809ZM183.627 291.273V300H182.033L178.236 294.507H178.172V300H176.327V291.273H177.946L181.713 296.761H181.79V291.273H183.627ZM190.938 294.094C190.878 293.886 190.795 293.703 190.687 293.544C190.579 293.382 190.447 293.246 190.29 293.135C190.137 293.021 189.961 292.935 189.762 292.875C189.566 292.815 189.349 292.786 189.11 292.786C188.664 292.786 188.272 292.896 187.934 293.118C187.599 293.339 187.337 293.662 187.15 294.085C186.962 294.506 186.868 295.02 186.868 295.628C186.868 296.236 186.961 296.753 187.145 297.179C187.33 297.605 187.591 297.93 187.93 298.155C188.268 298.376 188.667 298.487 189.127 298.487C189.545 298.487 189.901 298.413 190.197 298.266C190.495 298.115 190.722 297.903 190.878 297.631C191.037 297.358 191.117 297.036 191.117 296.663L191.492 296.719H189.242V295.33H192.894V296.429C192.894 297.196 192.732 297.855 192.408 298.406C192.084 298.955 191.638 299.378 191.07 299.676C190.502 299.972 189.851 300.119 189.118 300.119C188.3 300.119 187.581 299.939 186.962 299.578C186.343 299.214 185.86 298.699 185.513 298.031C185.17 297.361 184.998 296.565 184.998 295.645C184.998 294.937 185.1 294.307 185.305 293.753C185.512 293.196 185.802 292.724 186.174 292.338C186.546 291.952 186.979 291.658 187.474 291.456C187.968 291.254 188.503 291.153 189.08 291.153C189.574 291.153 190.035 291.226 190.461 291.371C190.887 291.513 191.265 291.714 191.594 291.976C191.927 292.237 192.198 292.548 192.408 292.909C192.618 293.267 192.753 293.662 192.813 294.094H190.938Z" fill="url(#paint15_linear_2218_157)"/>
<path d="M186 387.5H322C326.142 387.5 329.5 390.858 329.5 395V411C329.5 415.142 326.142 418.5 322 418.5H186C181.858 418.5 178.5 415.142 178.5 411V395C178.5 390.858 181.858 387.5 186 387.5Z" fill="url(#paint16_linear_2218_157)" stroke="url(#paint17_linear_2218_157)"/>
<path d="M236.73 402.328H234.864C234.83 402.087 234.76 401.872 234.655 401.685C234.55 401.494 234.415 401.332 234.25 401.199C234.085 401.065 233.895 400.963 233.679 400.892C233.466 400.821 233.235 400.786 232.985 400.786C232.533 400.786 232.139 400.898 231.804 401.122C231.469 401.344 231.209 401.668 231.024 402.094C230.84 402.517 230.747 403.031 230.747 403.636C230.747 404.259 230.84 404.781 231.024 405.205C231.212 405.628 231.473 405.947 231.808 406.163C232.144 406.379 232.531 406.487 232.972 406.487C233.219 406.487 233.448 406.455 233.658 406.389C233.871 406.324 234.06 406.229 234.225 406.104C234.389 405.976 234.526 405.821 234.634 405.639C234.744 405.457 234.821 405.25 234.864 405.017L236.73 405.026C236.682 405.426 236.561 405.812 236.368 406.185C236.178 406.554 235.921 406.885 235.597 407.178C235.276 407.467 234.892 407.697 234.446 407.868C234.003 408.036 233.502 408.119 232.942 408.119C232.164 408.119 231.468 407.943 230.854 407.591C230.243 407.239 229.76 406.729 229.405 406.061C229.053 405.393 228.877 404.585 228.877 403.636C228.877 402.685 229.056 401.875 229.414 401.207C229.771 400.54 230.257 400.031 230.871 399.682C231.485 399.33 232.175 399.153 232.942 399.153C233.448 399.153 233.916 399.224 234.348 399.366C234.783 399.509 235.168 399.716 235.503 399.989C235.838 400.259 236.111 400.589 236.321 400.982C236.534 401.374 236.671 401.822 236.73 402.328ZM246.073 403.636C246.073 404.588 245.893 405.398 245.532 406.065C245.174 406.733 244.686 407.243 244.066 407.595C243.45 407.945 242.757 408.119 241.987 408.119C241.211 408.119 240.515 407.943 239.899 407.591C239.282 407.239 238.795 406.729 238.437 406.061C238.079 405.393 237.9 404.585 237.9 403.636C237.9 402.685 238.079 401.875 238.437 401.207C238.795 400.54 239.282 400.031 239.899 399.682C240.515 399.33 241.211 399.153 241.987 399.153C242.757 399.153 243.45 399.33 244.066 399.682C244.686 400.031 245.174 400.54 245.532 401.207C245.893 401.875 246.073 402.685 246.073 403.636ZM244.203 403.636C244.203 403.02 244.11 402.5 243.926 402.077C243.744 401.653 243.487 401.332 243.154 401.114C242.822 400.895 242.433 400.786 241.987 400.786C241.541 400.786 241.151 400.895 240.819 401.114C240.487 401.332 240.228 401.653 240.044 402.077C239.862 402.5 239.771 403.02 239.771 403.636C239.771 404.253 239.862 404.773 240.044 405.196C240.228 405.619 240.487 405.94 240.819 406.159C241.151 406.378 241.541 406.487 241.987 406.487C242.433 406.487 242.822 406.378 243.154 406.159C243.487 405.94 243.744 405.619 243.926 405.196C244.11 404.773 244.203 404.253 244.203 403.636ZM250.534 408H247.44V399.273H250.559C251.437 399.273 252.193 399.447 252.827 399.797C253.46 400.143 253.947 400.642 254.288 401.293C254.632 401.943 254.804 402.722 254.804 403.628C254.804 404.537 254.632 405.318 254.288 405.972C253.947 406.625 253.457 407.126 252.818 407.476C252.182 407.825 251.42 408 250.534 408ZM249.285 406.419H250.457C251.003 406.419 251.461 406.322 251.834 406.129C252.209 405.933 252.49 405.631 252.677 405.222C252.868 404.81 252.963 404.278 252.963 403.628C252.963 402.983 252.868 402.456 252.677 402.047C252.49 401.638 252.21 401.337 251.838 401.143C251.466 400.95 251.007 400.854 250.461 400.854H249.285V406.419ZM258.016 399.273V408H256.171V399.273H258.016ZM266.834 399.273V408H265.24L261.443 402.507H261.379V408H259.534V399.273H261.153L264.92 404.761H264.997V399.273H266.834ZM274.145 402.094C274.085 401.886 274.002 401.703 273.894 401.544C273.786 401.382 273.654 401.246 273.497 401.135C273.344 401.021 273.168 400.935 272.969 400.875C272.773 400.815 272.556 400.786 272.317 400.786C271.871 400.786 271.479 400.896 271.141 401.118C270.806 401.339 270.544 401.662 270.357 402.085C270.169 402.506 270.075 403.02 270.075 403.628C270.075 404.236 270.168 404.753 270.352 405.179C270.537 405.605 270.798 405.93 271.137 406.155C271.475 406.376 271.874 406.487 272.334 406.487C272.752 406.487 273.108 406.413 273.404 406.266C273.702 406.115 273.929 405.903 274.085 405.631C274.244 405.358 274.324 405.036 274.324 404.663L274.699 404.719H272.449V403.33H276.101V404.429C276.101 405.196 275.939 405.855 275.615 406.406C275.291 406.955 274.845 407.378 274.277 407.676C273.709 407.972 273.058 408.119 272.325 408.119C271.507 408.119 270.789 407.939 270.169 407.578C269.55 407.214 269.067 406.699 268.72 406.031C268.377 405.361 268.205 404.565 268.205 403.645C268.205 402.937 268.307 402.307 268.512 401.753C268.719 401.196 269.009 400.724 269.381 400.338C269.753 399.952 270.186 399.658 270.681 399.456C271.175 399.254 271.71 399.153 272.287 399.153C272.781 399.153 273.242 399.226 273.668 399.371C274.094 399.513 274.472 399.714 274.801 399.976C275.134 400.237 275.405 400.548 275.615 400.909C275.825 401.267 275.96 401.662 276.02 402.094H274.145Z" fill="url(#paint18_linear_2218_157)"/>
<path d="M294 279.5H430C434.142 279.5 437.5 282.858 437.5 287V303C437.5 307.142 434.142 310.5 430 310.5H294C289.858 310.5 286.5 307.142 286.5 303V287C286.5 282.858 289.858 279.5 294 279.5Z" fill="url(#paint19_linear_2218_157)" stroke="url(#paint20_linear_2218_157)"/>
<path d="M325.503 291.273H327.348V296.94C327.348 297.577 327.196 298.134 326.892 298.611C326.591 299.088 326.169 299.46 325.626 299.727C325.084 299.991 324.452 300.124 323.73 300.124C323.006 300.124 322.372 299.991 321.829 299.727C321.287 299.46 320.865 299.088 320.564 298.611C320.263 298.134 320.112 297.577 320.112 296.94V291.273H321.957V296.783C321.957 297.115 322.03 297.411 322.175 297.669C322.322 297.928 322.53 298.131 322.797 298.278C323.064 298.426 323.375 298.5 323.73 298.5C324.088 298.5 324.399 298.426 324.663 298.278C324.93 298.131 325.136 297.928 325.281 297.669C325.429 297.411 325.503 297.115 325.503 296.783V291.273ZM336.166 291.273V300H334.572L330.775 294.507H330.711V300H328.866V291.273H330.485L334.252 296.761H334.329V291.273H336.166ZM339.535 291.273V300H337.69V291.273H339.535ZM340.721 292.794V291.273H347.889V292.794H345.217V300H343.393V292.794H340.721ZM351.514 292.794V291.273H358.682V292.794H356.01V300H354.186V292.794H351.514ZM359.862 300V291.273H365.743V292.794H361.707V294.874H365.44V296.395H361.707V298.479H365.76V300H359.862ZM371.944 293.783C371.91 293.439 371.764 293.172 371.505 292.982C371.247 292.791 370.896 292.696 370.453 292.696C370.151 292.696 369.897 292.739 369.69 292.824C369.482 292.906 369.323 293.021 369.213 293.169C369.105 293.317 369.051 293.484 369.051 293.672C369.045 293.828 369.078 293.964 369.149 294.081C369.222 294.197 369.323 294.298 369.451 294.384C369.579 294.466 369.727 294.538 369.894 294.601C370.062 294.661 370.241 294.712 370.431 294.754L371.215 294.942C371.596 295.027 371.945 295.141 372.264 295.283C372.582 295.425 372.857 295.599 373.09 295.807C373.323 296.014 373.504 296.259 373.632 296.54C373.762 296.821 373.829 297.143 373.832 297.507C373.829 298.041 373.693 298.504 373.423 298.896C373.156 299.286 372.769 299.588 372.264 299.804C371.761 300.017 371.154 300.124 370.444 300.124C369.74 300.124 369.126 300.016 368.603 299.8C368.083 299.584 367.677 299.264 367.384 298.841C367.095 298.415 366.943 297.888 366.928 297.26H368.714C368.734 297.553 368.818 297.797 368.965 297.993C369.116 298.186 369.316 298.332 369.566 298.432C369.819 298.528 370.105 298.577 370.423 298.577C370.735 298.577 371.007 298.531 371.237 298.44C371.47 298.349 371.65 298.223 371.778 298.061C371.906 297.899 371.97 297.713 371.97 297.503C371.97 297.307 371.911 297.142 371.795 297.009C371.681 296.875 371.514 296.761 371.292 296.668C371.073 296.574 370.805 296.489 370.487 296.412L369.536 296.173C368.801 295.994 368.22 295.714 367.794 295.334C367.367 294.953 367.156 294.44 367.159 293.795C367.156 293.267 367.296 292.805 367.58 292.411C367.867 292.016 368.261 291.707 368.761 291.486C369.261 291.264 369.829 291.153 370.465 291.153C371.113 291.153 371.678 291.264 372.161 291.486C372.647 291.707 373.025 292.016 373.295 292.411C373.565 292.805 373.704 293.263 373.713 293.783H371.944ZM374.741 292.794V291.273H381.908V292.794H379.236V300H377.412V292.794H374.741ZM384.934 291.273V300H383.089V291.273H384.934ZM393.752 291.273V300H392.158L388.361 294.507H388.297V300H386.452V291.273H388.071L391.838 296.761H391.915V291.273H393.752ZM401.063 294.094C401.003 293.886 400.92 293.703 400.812 293.544C400.704 293.382 400.572 293.246 400.415 293.135C400.262 293.021 400.086 292.935 399.887 292.875C399.691 292.815 399.474 292.786 399.235 292.786C398.789 292.786 398.397 292.896 398.059 293.118C397.724 293.339 397.462 293.662 397.275 294.085C397.087 294.506 396.993 295.02 396.993 295.628C396.993 296.236 397.086 296.753 397.27 297.179C397.455 297.605 397.716 297.93 398.055 298.155C398.393 298.376 398.792 298.487 399.252 298.487C399.67 298.487 400.026 298.413 400.322 298.266C400.62 298.115 400.847 297.903 401.003 297.631C401.162 297.358 401.242 297.036 401.242 296.663L401.617 296.719H399.367V295.33H403.019V296.429C403.019 297.196 402.857 297.855 402.533 298.406C402.209 298.955 401.763 299.378 401.195 299.676C400.627 299.972 399.976 300.119 399.243 300.119C398.425 300.119 397.706 299.939 397.087 299.578C396.468 299.214 395.985 298.699 395.638 298.031C395.295 297.361 395.123 296.565 395.123 295.645C395.123 294.937 395.225 294.307 395.43 293.753C395.637 293.196 395.927 292.724 396.299 292.338C396.671 291.952 397.104 291.658 397.599 291.456C398.093 291.254 398.628 291.153 399.205 291.153C399.699 291.153 400.16 291.226 400.586 291.371C401.012 291.513 401.39 291.714 401.719 291.976C402.052 292.237 402.323 292.548 402.533 292.909C402.743 293.267 402.878 293.662 402.938 294.094H401.063Z" fill="url(#paint21_linear_2218_157)"/>
<path d="M423 91V116.304C423 122.931 417.627 128.304 411 128.304H403C396.373 128.304 391 133.676 391 140.304V166" stroke="url(#paint22_linear_2218_157)"/>
<g filter="url(#filter9_d_2218_157)">
<rect x="306" y="167" width="177.11" height="36" rx="8" fill="url(#paint23_linear_2218_157)" shape-rendering="crispEdges"/>
<rect x="306.5" y="167.5" width="176.11" height="35" rx="7.5" stroke="url(#paint24_linear_2218_157)" shape-rendering="crispEdges"/>
</g>
<path d="M327.604 180.273V189H325.759V180.273H327.604ZM336.422 180.273V189H334.828L331.031 183.507H330.967V189H329.122V180.273H330.741L334.508 185.761H334.585V180.273H336.422ZM337.614 181.794V180.273H344.781V181.794H342.109V189H340.286V181.794H337.614ZM345.962 189V180.273H351.842V181.794H347.807V183.874H351.54V185.395H347.807V187.479H351.859V189H345.962ZM359.096 183.094C359.037 182.886 358.953 182.703 358.845 182.544C358.737 182.382 358.605 182.246 358.449 182.135C358.295 182.021 358.119 181.935 357.92 181.875C357.724 181.815 357.507 181.786 357.268 181.786C356.822 181.786 356.43 181.896 356.092 182.118C355.757 182.339 355.495 182.662 355.308 183.085C355.12 183.506 355.027 184.02 355.027 184.628C355.027 185.236 355.119 185.753 355.304 186.179C355.488 186.605 355.75 186.93 356.088 187.155C356.426 187.376 356.825 187.487 357.285 187.487C357.703 187.487 358.059 187.413 358.355 187.266C358.653 187.115 358.88 186.903 359.037 186.631C359.196 186.358 359.275 186.036 359.275 185.663L359.65 185.719H357.4V184.33H361.052V185.429C361.052 186.196 360.89 186.855 360.566 187.406C360.243 187.955 359.797 188.378 359.228 188.676C358.66 188.972 358.01 189.119 357.277 189.119C356.458 189.119 355.74 188.939 355.12 188.578C354.501 188.214 354.018 187.699 353.672 187.031C353.328 186.361 353.156 185.565 353.156 184.645C353.156 183.937 353.258 183.307 353.463 182.753C353.67 182.196 353.96 181.724 354.332 181.338C354.704 180.952 355.137 180.658 355.632 180.456C356.126 180.254 356.662 180.153 357.238 180.153C357.733 180.153 358.193 180.226 358.619 180.371C359.045 180.513 359.423 180.714 359.752 180.976C360.085 181.237 360.356 181.548 360.566 181.909C360.777 182.267 360.912 182.662 360.971 183.094H359.096ZM362.438 189V180.273H365.881C366.54 180.273 367.103 180.391 367.569 180.626C368.038 180.859 368.394 181.19 368.638 181.619C368.886 182.045 369.009 182.547 369.009 183.124C369.009 183.703 368.884 184.202 368.634 184.619C368.384 185.034 368.022 185.352 367.548 185.574C367.076 185.795 366.505 185.906 365.835 185.906H363.529V184.423H365.536C365.888 184.423 366.181 184.375 366.414 184.278C366.647 184.182 366.82 184.037 366.934 183.844C367.05 183.651 367.109 183.411 367.109 183.124C367.109 182.834 367.05 182.589 366.934 182.391C366.82 182.192 366.646 182.041 366.41 181.939C366.177 181.834 365.883 181.781 365.528 181.781H364.283V189H362.438ZM367.151 185.028L369.32 189H367.283L365.161 185.028H367.151ZM371.817 189H369.84L372.853 180.273H375.231L378.239 189H376.262L374.076 182.267H374.008L371.817 189ZM371.694 185.57H376.364V187.01H371.694V185.57ZM377.891 181.794V180.273H385.059V181.794H382.387V189H380.563V181.794H377.891ZM388.084 180.273V189H386.239V180.273H388.084ZM397.622 184.636C397.622 185.588 397.442 186.398 397.081 187.065C396.723 187.733 396.234 188.243 395.615 188.595C394.999 188.945 394.305 189.119 393.536 189.119C392.76 189.119 392.064 188.943 391.447 188.591C390.831 188.239 390.344 187.729 389.986 187.061C389.628 186.393 389.449 185.585 389.449 184.636C389.449 183.685 389.628 182.875 389.986 182.207C390.344 181.54 390.831 181.031 391.447 180.682C392.064 180.33 392.76 180.153 393.536 180.153C394.305 180.153 394.999 180.33 395.615 180.682C396.234 181.031 396.723 181.54 397.081 182.207C397.442 182.875 397.622 183.685 397.622 184.636ZM395.751 184.636C395.751 184.02 395.659 183.5 395.474 183.077C395.293 182.653 395.036 182.332 394.703 182.114C394.371 181.895 393.982 181.786 393.536 181.786C393.089 181.786 392.7 181.895 392.368 182.114C392.036 182.332 391.777 182.653 391.592 183.077C391.411 183.5 391.32 184.02 391.32 184.636C391.32 185.253 391.411 185.773 391.592 186.196C391.777 186.619 392.036 186.94 392.368 187.159C392.7 187.378 393.089 187.487 393.536 187.487C393.982 187.487 394.371 187.378 394.703 187.159C395.036 186.94 395.293 186.619 395.474 186.196C395.659 185.773 395.751 185.253 395.751 184.636ZM406.289 180.273V189H404.695L400.898 183.507H400.834V189H398.989V180.273H400.608L404.375 185.761H404.452V180.273H406.289ZM410.258 181.794V180.273H417.426V181.794H414.754V189H412.93V181.794H410.258ZM418.606 189V180.273H424.487V181.794H420.451V183.874H424.184V185.395H420.451V187.479H424.504V189H418.606ZM430.688 182.783C430.654 182.439 430.508 182.172 430.249 181.982C429.991 181.791 429.64 181.696 429.197 181.696C428.896 181.696 428.641 181.739 428.434 181.824C428.227 181.906 428.067 182.021 427.957 182.169C427.849 182.317 427.795 182.484 427.795 182.672C427.789 182.828 427.822 182.964 427.893 183.081C427.967 183.197 428.067 183.298 428.195 183.384C428.323 183.466 428.471 183.538 428.638 183.601C428.806 183.661 428.985 183.712 429.175 183.754L429.96 183.942C430.34 184.027 430.69 184.141 431.008 184.283C431.326 184.425 431.602 184.599 431.835 184.807C432.067 185.014 432.248 185.259 432.376 185.54C432.506 185.821 432.573 186.143 432.576 186.507C432.573 187.041 432.437 187.504 432.167 187.896C431.9 188.286 431.513 188.588 431.008 188.804C430.505 189.017 429.898 189.124 429.188 189.124C428.484 189.124 427.87 189.016 427.347 188.8C426.827 188.584 426.421 188.264 426.129 187.841C425.839 187.415 425.687 186.888 425.673 186.26H427.458C427.478 186.553 427.562 186.797 427.71 186.993C427.86 187.186 428.06 187.332 428.31 187.432C428.563 187.528 428.849 187.577 429.167 187.577C429.479 187.577 429.751 187.531 429.981 187.44C430.214 187.349 430.394 187.223 430.522 187.061C430.65 186.899 430.714 186.713 430.714 186.503C430.714 186.307 430.656 186.142 430.539 186.009C430.425 185.875 430.258 185.761 430.036 185.668C429.817 185.574 429.549 185.489 429.231 185.412L428.281 185.173C427.545 184.994 426.964 184.714 426.538 184.334C426.112 183.953 425.9 183.44 425.903 182.795C425.9 182.267 426.04 181.805 426.325 181.411C426.612 181.016 427.005 180.707 427.505 180.486C428.005 180.264 428.573 180.153 429.21 180.153C429.857 180.153 430.423 180.264 430.906 180.486C431.391 180.707 431.769 181.016 432.039 181.411C432.309 181.805 432.448 182.263 432.457 182.783H430.688ZM433.485 181.794V180.273H440.652V181.794H437.98V189H436.157V181.794H433.485ZM443.678 180.273V189H441.833V180.273H443.678ZM452.496 180.273V189H450.902L447.105 183.507H447.041V189H445.196V180.273H446.815L450.582 185.761H450.659V180.273H452.496ZM459.807 183.094C459.748 182.886 459.664 182.703 459.556 182.544C459.448 182.382 459.316 182.246 459.159 182.135C459.006 182.021 458.83 181.935 458.631 181.875C458.435 181.815 458.218 181.786 457.979 181.786C457.533 181.786 457.141 181.896 456.803 182.118C456.468 182.339 456.206 182.662 456.019 183.085C455.831 183.506 455.738 184.02 455.738 184.628C455.738 185.236 455.83 185.753 456.015 186.179C456.199 186.605 456.461 186.93 456.799 187.155C457.137 187.376 457.536 187.487 457.996 187.487C458.414 187.487 458.77 187.413 459.066 187.266C459.364 187.115 459.591 186.903 459.748 186.631C459.907 186.358 459.986 186.036 459.986 185.663L460.361 185.719H458.111V184.33H461.763V185.429C461.763 186.196 461.601 186.855 461.277 187.406C460.953 187.955 460.507 188.378 459.939 188.676C459.371 188.972 458.721 189.119 457.988 189.119C457.169 189.119 456.451 188.939 455.831 188.578C455.212 188.214 454.729 187.699 454.382 187.031C454.039 186.361 453.867 185.565 453.867 184.645C453.867 183.937 453.969 183.307 454.174 182.753C454.381 182.196 454.671 181.724 455.043 181.338C455.415 180.952 455.848 180.658 456.343 180.456C456.837 180.254 457.373 180.153 457.949 180.153C458.444 180.153 458.904 180.226 459.33 180.371C459.756 180.513 460.134 180.714 460.463 180.976C460.796 181.237 461.067 181.548 461.277 181.909C461.488 182.267 461.623 182.662 461.682 183.094H459.807Z" fill="url(#paint25_linear_2218_157)"/>
<g filter="url(#filter10_d_2218_157)">
<rect x="331" y="55" width="184" height="36" rx="8" fill="url(#paint26_linear_2218_157)" shape-rendering="crispEdges"/>
<rect x="331.5" y="55.5" width="183" height="35" rx="7.5" stroke="url(#paint27_linear_2218_157)" shape-rendering="crispEdges"/>
</g>
<path d="M384.493 71.7827C384.459 71.4389 384.313 71.1719 384.054 70.9815C383.795 70.7912 383.445 70.696 383.001 70.696C382.7 70.696 382.446 70.7386 382.239 70.8239C382.031 70.9062 381.872 71.0213 381.761 71.169C381.653 71.3168 381.599 71.4844 381.599 71.6719C381.594 71.8281 381.626 71.9645 381.697 72.081C381.771 72.1974 381.872 72.2983 382 72.3835C382.128 72.4659 382.276 72.5384 382.443 72.6009C382.611 72.6605 382.79 72.7116 382.98 72.7543L383.764 72.9418C384.145 73.027 384.494 73.1406 384.812 73.2827C385.131 73.4247 385.406 73.5994 385.639 73.8068C385.872 74.0142 386.053 74.2585 386.18 74.5398C386.311 74.821 386.378 75.1435 386.381 75.5071C386.378 76.0412 386.241 76.5043 385.972 76.8963C385.705 77.2855 385.318 77.5881 384.812 77.804C384.31 78.017 383.703 78.1236 382.993 78.1236C382.288 78.1236 381.675 78.0156 381.152 77.7997C380.632 77.5838 380.226 77.2642 379.933 76.8409C379.643 76.4148 379.491 75.8878 379.477 75.2599H381.263C381.283 75.5526 381.366 75.7969 381.514 75.9929C381.665 76.1861 381.865 76.3324 382.115 76.4318C382.368 76.5284 382.653 76.5767 382.972 76.5767C383.284 76.5767 383.555 76.5312 383.786 76.4403C384.018 76.3494 384.199 76.223 384.327 76.0611C384.455 75.8991 384.518 75.7131 384.518 75.5028C384.518 75.3068 384.46 75.142 384.344 75.0085C384.23 74.875 384.063 74.7614 383.841 74.6676C383.622 74.5739 383.354 74.4886 383.036 74.4119L382.085 74.1733C381.349 73.9943 380.768 73.7145 380.342 73.3338C379.916 72.9531 379.705 72.4403 379.707 71.7955C379.705 71.267 379.845 70.8054 380.129 70.4105C380.416 70.0156 380.81 69.7074 381.31 69.4858C381.81 69.2642 382.378 69.1534 383.014 69.1534C383.662 69.1534 384.227 69.2642 384.71 69.4858C385.196 69.7074 385.574 70.0156 385.844 70.4105C386.114 70.8054 386.253 71.2628 386.261 71.7827H384.493ZM387.11 69.2727H389.177L391.167 73.0312H391.252L393.243 69.2727H395.309L392.126 74.9148V78H390.294V74.9148L387.11 69.2727ZM401.051 71.7827C401.017 71.4389 400.871 71.1719 400.613 70.9815C400.354 70.7912 400.003 70.696 399.56 70.696C399.259 70.696 399.005 70.7386 398.797 70.8239C398.59 70.9062 398.431 71.0213 398.32 71.169C398.212 71.3168 398.158 71.4844 398.158 71.6719C398.152 71.8281 398.185 71.9645 398.256 72.081C398.33 72.1974 398.431 72.2983 398.559 72.3835C398.686 72.4659 398.834 72.5384 399.002 72.6009C399.169 72.6605 399.348 72.7116 399.539 72.7543L400.323 72.9418C400.703 73.027 401.053 73.1406 401.371 73.2827C401.689 73.4247 401.965 73.5994 402.198 73.8068C402.431 74.0142 402.611 74.2585 402.739 74.5398C402.87 74.821 402.936 75.1435 402.939 75.5071C402.936 76.0412 402.8 76.5043 402.53 76.8963C402.263 77.2855 401.877 77.5881 401.371 77.804C400.868 78.017 400.262 78.1236 399.551 78.1236C398.847 78.1236 398.233 78.0156 397.711 77.7997C397.191 77.5838 396.784 77.2642 396.492 76.8409C396.202 76.4148 396.05 75.8878 396.036 75.2599H397.821C397.841 75.5526 397.925 75.7969 398.073 75.9929C398.223 76.1861 398.424 76.3324 398.674 76.4318C398.926 76.5284 399.212 76.5767 399.53 76.5767C399.843 76.5767 400.114 76.5312 400.344 76.4403C400.577 76.3494 400.757 76.223 400.885 76.0611C401.013 75.8991 401.077 75.7131 401.077 75.5028C401.077 75.3068 401.019 75.142 400.902 75.0085C400.789 74.875 400.621 74.7614 400.4 74.6676C400.181 74.5739 399.912 74.4886 399.594 74.4119L398.644 74.1733C397.908 73.9943 397.327 73.7145 396.901 73.3338C396.475 72.9531 396.263 72.4403 396.266 71.7955C396.263 71.267 396.404 70.8054 396.688 70.4105C396.975 70.0156 397.368 69.7074 397.868 69.4858C398.368 69.2642 398.936 69.1534 399.573 69.1534C400.221 69.1534 400.786 69.2642 401.269 69.4858C401.755 69.7074 402.132 70.0156 402.402 70.4105C402.672 70.8054 402.811 71.2628 402.82 71.7827H401.051ZM403.848 70.794V69.2727H411.016V70.794H408.344V78H406.52V70.794H403.848ZM412.196 78V69.2727H418.077V70.794H414.041V72.8736H417.774V74.3949H414.041V76.4787H418.094V78H412.196ZM419.544 69.2727H421.819L424.223 75.1364H424.325L426.728 69.2727H429.004V78H427.214V72.3196H427.142L424.883 77.9574H423.664L421.406 72.2983H421.333V78H419.544V69.2727ZM432.969 70.794V69.2727H440.137V70.794H437.465V78H435.641V70.794H432.969ZM441.317 78V69.2727H447.198V70.794H443.162V72.8736H446.895V74.3949H443.162V76.4787H447.215V78H441.317ZM453.399 71.7827C453.365 71.4389 453.219 71.1719 452.96 70.9815C452.702 70.7912 452.351 70.696 451.908 70.696C451.607 70.696 451.352 70.7386 451.145 70.8239C450.938 70.9062 450.778 71.0213 450.668 71.169C450.56 71.3168 450.506 71.4844 450.506 71.6719C450.5 71.8281 450.533 71.9645 450.604 72.081C450.678 72.1974 450.778 72.2983 450.906 72.3835C451.034 72.4659 451.182 72.5384 451.349 72.6009C451.517 72.6605 451.696 72.7116 451.886 72.7543L452.67 72.9418C453.051 73.027 453.401 73.1406 453.719 73.2827C454.037 73.4247 454.313 73.5994 454.545 73.8068C454.778 74.0142 454.959 74.2585 455.087 74.5398C455.217 74.821 455.284 75.1435 455.287 75.5071C455.284 76.0412 455.148 76.5043 454.878 76.8963C454.611 77.2855 454.224 77.5881 453.719 77.804C453.216 78.017 452.609 78.1236 451.899 78.1236C451.195 78.1236 450.581 78.0156 450.058 77.7997C449.538 77.5838 449.132 77.2642 448.839 76.8409C448.55 76.4148 448.398 75.8878 448.384 75.2599H450.169C450.189 75.5526 450.273 75.7969 450.42 75.9929C450.571 76.1861 450.771 76.3324 451.021 76.4318C451.274 76.5284 451.56 76.5767 451.878 76.5767C452.19 76.5767 452.462 76.5312 452.692 76.4403C452.925 76.3494 453.105 76.223 453.233 76.0611C453.361 75.8991 453.425 75.7131 453.425 75.5028C453.425 75.3068 453.366 75.142 453.25 75.0085C453.136 74.875 452.969 74.7614 452.747 74.6676C452.528 74.5739 452.26 74.4886 451.942 74.4119L450.991 74.1733C450.256 73.9943 449.675 73.7145 449.249 73.3338C448.822 72.9531 448.611 72.4403 448.614 71.7955C448.611 71.267 448.751 70.8054 449.036 70.4105C449.322 70.0156 449.716 69.7074 450.216 69.4858C450.716 69.2642 451.284 69.1534 451.92 69.1534C452.568 69.1534 453.134 69.2642 453.616 69.4858C454.102 69.7074 454.48 70.0156 454.75 70.4105C455.02 70.8054 455.159 71.2628 455.168 71.7827H453.399ZM456.196 70.794V69.2727H463.363V70.794H460.691V78H458.868V70.794H456.196ZM466.389 69.2727V78H464.544V69.2727H466.389ZM475.207 69.2727V78H473.613L469.816 72.5071H469.752V78H467.907V69.2727H469.526L473.293 74.7614H473.37V69.2727H475.207ZM482.518 72.0938C482.458 71.8864 482.375 71.7031 482.267 71.544C482.159 71.3821 482.027 71.2457 481.87 71.1349C481.717 71.0213 481.541 70.9347 481.342 70.875C481.146 70.8153 480.929 70.7855 480.69 70.7855C480.244 70.7855 479.852 70.8963 479.514 71.1179C479.179 71.3395 478.917 71.6619 478.73 72.0852C478.542 72.5057 478.449 73.0199 478.449 73.6278C478.449 74.2358 478.541 74.7528 478.725 75.179C478.91 75.6051 479.172 75.9304 479.51 76.1548C479.848 76.3764 480.247 76.4872 480.707 76.4872C481.125 76.4872 481.481 76.4134 481.777 76.2656C482.075 76.1151 482.302 75.9034 482.458 75.6307C482.618 75.358 482.697 75.0355 482.697 74.6634L483.072 74.7188H480.822V73.3295H484.474V74.429C484.474 75.196 484.312 75.8551 483.988 76.4062C483.664 76.9545 483.218 77.3778 482.65 77.6761C482.082 77.9716 481.431 78.1193 480.699 78.1193C479.88 78.1193 479.162 77.9389 478.542 77.5781C477.923 77.2145 477.44 76.6989 477.093 76.0312C476.75 75.3608 476.578 74.5653 476.578 73.6449C476.578 72.9375 476.68 72.3068 476.885 71.7528C477.092 71.196 477.382 70.7244 477.754 70.3381C478.126 69.9517 478.559 69.6577 479.054 69.456C479.548 69.2543 480.083 69.1534 480.66 69.1534C481.154 69.1534 481.615 69.2259 482.041 69.3707C482.467 69.5128 482.845 69.7145 483.174 69.9759C483.507 70.2372 483.778 70.5483 483.988 70.9091C484.199 71.267 484.333 71.6619 484.393 72.0938H482.518Z" fill="url(#paint28_linear_2218_157)"/>
<defs>
<filter id="filter0_f_2218_157" x="36" y="0" width="438" height="438" filterUnits="userSpaceOnUse" color-interpolation-filters="sRGB">
<feFlood flood-opacity="0" result="BackgroundImageFix"/>
<feBlend mode="normal" in="SourceGraphic" in2="BackgroundImageFix" result="shape"/>
<feGaussianBlur stdDeviation="64" result="effect1_foregroundBlur_2218_157"/>
</filter>
<filter id="filter1_f_2218_157" x="36" y="0" width="438" height="438" filterUnits="userSpaceOnUse" color-interpolation-filters="sRGB">
<feFlood flood-opacity="0" result="BackgroundImageFix"/>
<feBlend mode="normal" in="SourceGraphic" in2="BackgroundImageFix" result="shape"/>
<feGaussianBlur stdDeviation="64" result="effect1_foregroundBlur_2218_157"/>
</filter>
<filter id="filter2_f_2218_157" x="182.563" y="263.563" width="13.8731" height="13.8731" filterUnits="userSpaceOnUse" color-interpolation-filters="sRGB">
<feFlood flood-opacity="0" result="BackgroundImageFix"/>
<feBlend mode="normal" in="SourceGraphic" in2="BackgroundImageFix" result="shape"/>
<feGaussianBlur stdDeviation="2.71828" result="effect1_foregroundBlur_2218_157"/>
</filter>
<filter id="filter3_f_2218_157" x="329.563" y="195.563" width="14.8731" height="14.8731" filterUnits="userSpaceOnUse" color-interpolation-filters="sRGB">
<feFlood flood-opacity="0" result="BackgroundImageFix"/>
<feBlend mode="normal" in="SourceGraphic" in2="BackgroundImageFix" result="shape"/>
<feGaussianBlur stdDeviation="2.71828" result="effect1_foregroundBlur_2218_157"/>
</filter>
<filter id="filter4_f_2218_157" x="147.845" y="226.845" width="20.3097" height="20.3097" filterUnits="userSpaceOnUse" color-interpolation-filters="sRGB">
<feFlood flood-opacity="0" result="BackgroundImageFix"/>
<feBlend mode="normal" in="SourceGraphic" in2="BackgroundImageFix" result="shape"/>
<feGaussianBlur stdDeviation="4.07742" result="effect1_foregroundBlur_2218_157"/>
</filter>
<filter id="filter5_f_2218_157" x="209.282" y="156.282" width="8.43656" height="8.43656" filterUnits="userSpaceOnUse" color-interpolation-filters="sRGB">
<feFlood flood-opacity="0" result="BackgroundImageFix"/>
<feBlend mode="normal" in="SourceGraphic" in2="BackgroundImageFix" result="shape"/>
<feGaussianBlur stdDeviation="1.35914" result="effect1_foregroundBlur_2218_157"/>
</filter>
<filter id="filter6_f_2218_157" x="321.282" y="251.282" width="7.43656" height="7.43656" filterUnits="userSpaceOnUse" color-interpolation-filters="sRGB">
<feFlood flood-opacity="0" result="BackgroundImageFix"/>
<feBlend mode="normal" in="SourceGraphic" in2="BackgroundImageFix" result="shape"/>
<feGaussianBlur stdDeviation="1.35914" result="effect1_foregroundBlur_2218_157"/>
</filter>
<filter id="filter7_f_2218_157" x="179.282" y="181.282" width="7.43656" height="7.43656" filterUnits="userSpaceOnUse" color-interpolation-filters="sRGB">
<feFlood flood-opacity="0" result="BackgroundImageFix"/>
<feBlend mode="normal" in="SourceGraphic" in2="BackgroundImageFix" result="shape"/>
<feGaussianBlur stdDeviation="1.35914" result="effect1_foregroundBlur_2218_157"/>
</filter>
<filter id="filter8_f_2218_157" x="328.563" y="155.563" width="13.8731" height="13.8731" filterUnits="userSpaceOnUse" color-interpolation-filters="sRGB">
<feFlood flood-opacity="0" result="BackgroundImageFix"/>
<feBlend mode="normal" in="SourceGraphic" in2="BackgroundImageFix" result="shape"/>
<feGaussianBlur stdDeviation="2.71828" result="effect1_foregroundBlur_2218_157"/>
</filter>
<filter id="filter9_d_2218_157" x="282" y="151" width="225.109" height="84" filterUnits="userSpaceOnUse" color-interpolation-filters="sRGB">
<feFlood flood-opacity="0" result="BackgroundImageFix"/>
<feColorMatrix in="SourceAlpha" type="matrix" values="0 0 0 0 0 0 0 0 0 0 0 0 0 0 0 0 0 0 127 0" result="hardAlpha"/>
<feOffset dy="8"/>
<feGaussianBlur stdDeviation="12"/>
<feComposite in2="hardAlpha" operator="out"/>
<feColorMatrix type="matrix" values="0 0 0 0 0.0117647 0 0 0 0 0.027451 0 0 0 0 0.0705882 0 0 0 1 0"/>
<feBlend mode="normal" in2="BackgroundImageFix" result="effect1_dropShadow_2218_157"/>
<feBlend mode="normal" in="SourceGraphic" in2="effect1_dropShadow_2218_157" result="shape"/>
</filter>
<filter id="filter10_d_2218_157" x="307" y="39" width="232" height="84" filterUnits="userSpaceOnUse" color-interpolation-filters="sRGB">
<feFlood flood-opacity="0" result="BackgroundImageFix"/>
<feColorMatrix in="SourceAlpha" type="matrix" values="0 0 0 0 0 0 0 0 0 0 0 0 0 0 0 0 0 0 127 0" result="hardAlpha"/>
<feOffset dy="8"/>
<feGaussianBlur stdDeviation="12"/>
<feComposite in2="hardAlpha" operator="out"/>
<feColorMatrix type="matrix" values="0 0 0 0 0.0117647 0 0 0 0 0.027451 0 0 0 0 0.0705882 0 0 0 1 0"/>
<feBlend mode="normal" in2="BackgroundImageFix" result="effect1_dropShadow_2218_157"/>
<feBlend mode="normal" in="SourceGraphic" in2="effect1_dropShadow_2218_157" result="shape"/>
</filter>
<radialGradient id="paint0_radial_2218_157" cx="0" cy="0" r="1" gradientUnits="userSpaceOnUse" gradientTransform="translate(236.8 219) rotate(90) scale(166.227 175.445)">
<stop stop-color="#6366F1" stop-opacity="0.54"/>
<stop offset="0.45572" stop-color="#6366F1" stop-opacity="0.32"/>
<stop offset="1" stop-color="#6366F1" stop-opacity="0"/>
</radialGradient>
<radialGradient id="paint1_radial_2218_157" cx="0" cy="0" r="1" gradientUnits="userSpaceOnUse" gradientTransform="translate(236.8 219) rotate(90) scale(166.227 175.445)">
<stop stop-color="#6366F1" stop-opacity="0.54"/>
<stop offset="0.45572" stop-color="#6366F1" stop-opacity="0.32"/>
<stop offset="1" stop-color="#6366F1" stop-opacity="0"/>
</radialGradient>
<linearGradient id="paint2_linear_2218_157" x1="390" y1="203" x2="362" y2="278" gradientUnits="userSpaceOnUse">
<stop stop-color="#374151"/>
<stop offset="1" stop-color="#374151" stop-opacity="0.2"/>
</linearGradient>
<linearGradient id="paint3_linear_2218_157" x1="118" y1="171.5" x2="86" y2="90" gradientUnits="userSpaceOnUse">
<stop stop-color="#374151" stop-opacity="0.4"/>
<stop offset="1" stop-color="#374151"/>
</linearGradient>
<linearGradient id="paint4_linear_2218_157" x1="146" y1="276" x2="118" y2="201" gradientUnits="userSpaceOnUse">
<stop stop-color="#374151" stop-opacity="0.4"/>
<stop offset="1" stop-color="#374151"/>
</linearGradient>
<linearGradient id="paint5_linear_2218_157" x1="101.507" y1="200" x2="101.28" y2="166.494" gradientUnits="userSpaceOnUse">
<stop stop-color="#1F2937" stop-opacity="0.64"/>
<stop offset="1" stop-color="#1F2937"/>
</linearGradient>
<linearGradient id="paint6_linear_2218_157" x1="20" y1="168" x2="155.79" y2="233.57" gradientUnits="userSpaceOnUse">
<stop stop-color="#1F2937"/>
<stop offset="0.5" stop-color="#4B5563"/>
<stop offset="0.995" stop-color="#1F2937"/>
</linearGradient>
<linearGradient id="paint7_linear_2218_157" x1="24" y1="184.5" x2="167" y2="184.5" gradientUnits="userSpaceOnUse">
<stop stop-color="#838AA7"/>
<stop offset="1" stop-color="#838AA7" stop-opacity="0.64"/>
</linearGradient>
<linearGradient id="paint8_linear_2218_157" x1="81.5072" y1="89" x2="81.2799" y2="55.4936" gradientUnits="userSpaceOnUse">
<stop stop-color="#1F2937" stop-opacity="0.64"/>
<stop offset="1" stop-color="#1F2937"/>
</linearGradient>
<linearGradient id="paint9_linear_2218_157" x1="0" y1="57" x2="135.79" y2="122.57" gradientUnits="userSpaceOnUse">
<stop stop-color="#1F2937"/>
<stop offset="0.5" stop-color="#4B5563"/>
<stop offset="0.995" stop-color="#1F2937"/>
</linearGradient>
<linearGradient id="paint10_linear_2218_157" x1="4" y1="73.5" x2="147" y2="73.5" gradientUnits="userSpaceOnUse">
<stop stop-color="#838AA7"/>
<stop offset="1" stop-color="#838AA7" stop-opacity="0.64"/>
</linearGradient>
<linearGradient id="paint11_linear_2218_157" x1="253" y1="387" x2="145" y2="312" gradientUnits="userSpaceOnUse">
<stop stop-color="#374151"/>
<stop offset="1" stop-color="#374151" stop-opacity="0.4"/>
</linearGradient>
<linearGradient id="paint12_linear_2218_157" x1="362" y1="312" x2="254" y2="387" gradientUnits="userSpaceOnUse">
<stop stop-color="#374151" stop-opacity="0.4"/>
<stop offset="1" stop-color="#374151"/>
</linearGradient>
<linearGradient id="paint13_linear_2218_157" x1="149.507" y1="311" x2="149.28" y2="277.494" gradientUnits="userSpaceOnUse">
<stop stop-color="#1F2937" stop-opacity="0.64"/>
<stop offset="1" stop-color="#1F2937"/>
</linearGradient>
<linearGradient id="paint14_linear_2218_157" x1="68" y1="279" x2="203.79" y2="344.57" gradientUnits="userSpaceOnUse">
<stop stop-color="#1F2937"/>
<stop offset="0.5" stop-color="#4B5563"/>
<stop offset="0.995" stop-color="#1F2937"/>
</linearGradient>
<linearGradient id="paint15_linear_2218_157" x1="72" y1="295.5" x2="215" y2="295.5" gradientUnits="userSpaceOnUse">
<stop stop-color="#838AA7"/>
<stop offset="1" stop-color="#838AA7" stop-opacity="0.64"/>
</linearGradient>
<linearGradient id="paint16_linear_2218_157" x1="259.507" y1="419" x2="259.28" y2="385.494" gradientUnits="userSpaceOnUse">
<stop stop-color="#1F2937" stop-opacity="0.64"/>
<stop offset="1" stop-color="#1F2937"/>
</linearGradient>
<linearGradient id="paint17_linear_2218_157" x1="178" y1="387" x2="313.79" y2="452.57" gradientUnits="userSpaceOnUse">
<stop stop-color="#1F2937"/>
<stop offset="0.5" stop-color="#4B5563"/>
<stop offset="0.995" stop-color="#1F2937"/>
</linearGradient>
<linearGradient id="paint18_linear_2218_157" x1="181" y1="403.5" x2="324" y2="403.5" gradientUnits="userSpaceOnUse">
<stop stop-color="#838AA7"/>
<stop offset="1" stop-color="#838AA7" stop-opacity="0.64"/>
</linearGradient>
<linearGradient id="paint19_linear_2218_157" x1="367.507" y1="311" x2="367.28" y2="277.494" gradientUnits="userSpaceOnUse">
<stop stop-color="#1F2937" stop-opacity="0.64"/>
<stop offset="1" stop-color="#1F2937"/>
</linearGradient>
<linearGradient id="paint20_linear_2218_157" x1="286" y1="279" x2="421.79" y2="344.57" gradientUnits="userSpaceOnUse">
<stop stop-color="#1F2937"/>
<stop offset="0.5" stop-color="#4B5563"/>
<stop offset="0.995" stop-color="#1F2937"/>
</linearGradient>
<linearGradient id="paint21_linear_2218_157" x1="290" y1="295.5" x2="433" y2="295.5" gradientUnits="userSpaceOnUse">
<stop stop-color="#838AA7"/>
<stop offset="1" stop-color="#838AA7" stop-opacity="0.64"/>
</linearGradient>
<linearGradient id="paint22_linear_2218_157" x1="423" y1="91" x2="391" y2="166" gradientUnits="userSpaceOnUse">
<stop stop-color="#6366F1" stop-opacity="0.4"/>
<stop offset="1" stop-color="#6366F1"/>
</linearGradient>
<linearGradient id="paint23_linear_2218_157" x1="400.972" y1="203" x2="400.725" y2="165.305" gradientUnits="userSpaceOnUse">
<stop stop-color="#1F2937" stop-opacity="0.64"/>
<stop offset="1" stop-color="#1F2937"/>
</linearGradient>
<linearGradient id="paint24_linear_2218_157" x1="306" y1="167" x2="462.075" y2="245.059" gradientUnits="userSpaceOnUse">
<stop stop-color="#1F2937"/>
<stop offset="0.5" stop-color="#6366F1"/>
<stop offset="0.995" stop-color="#1F2937"/>
</linearGradient>
<linearGradient id="paint25_linear_2218_157" x1="325" y1="184.5" x2="464" y2="184.5" gradientUnits="userSpaceOnUse">
<stop stop-color="#838AA7"/>
<stop offset="1" stop-color="#838AA7" stop-opacity="0.64"/>
</linearGradient>
<linearGradient id="paint26_linear_2218_157" x1="429.667" y1="91" x2="429.429" y2="53.3051" gradientUnits="userSpaceOnUse">
<stop stop-color="#1F2937" stop-opacity="0.64"/>
<stop offset="1" stop-color="#1F2937"/>
</linearGradient>
<linearGradient id="paint27_linear_2218_157" x1="331" y1="55" x2="490.614" y2="137.934" gradientUnits="userSpaceOnUse">
<stop stop-color="#1F2937"/>
<stop offset="0.5" stop-color="#6366F1"/>
<stop offset="0.995" stop-color="#1F2937"/>
</linearGradient>
<linearGradient id="paint28_linear_2218_157" x1="379" y1="73.5" x2="486" y2="73.5" gradientUnits="userSpaceOnUse">
<stop stop-color="#838AA7"/>
<stop offset="1" stop-color="#838AA7" stop-opacity="0.64"/>
</linearGradient>
</defs>
</svg>
