<svg width="549" height="438" viewBox="0 0 549 438" fill="none" xmlns="http://www.w3.org/2000/svg">
<g filter="url(#filter0_f_2218_154)">
<circle cx="290" cy="219" r="91" fill="url(#paint0_radial_2218_154)"/>
</g>
<g filter="url(#filter1_f_2218_154)">
<circle cx="290" cy="219" r="91" fill="url(#paint1_radial_2218_154)"/>
</g>
<g opacity="0.72" filter="url(#filter2_f_2218_154)">
<circle cx="224.5" cy="270.5" r="1.5" fill="white"/>
</g>
<circle opacity="0.48" cx="387" cy="238" r="1" fill="white"/>
<g opacity="0.72" filter="url(#filter3_f_2218_154)">
<circle cx="372" cy="203" r="2" fill="white"/>
</g>
<g opacity="0.72" filter="url(#filter4_f_2218_154)">
<circle cx="193" cy="237" r="2" fill="white"/>
</g>
<g opacity="0.72" filter="url(#filter5_f_2218_154)">
<circle cx="248.5" cy="160.5" r="1.5" fill="white"/>
</g>
<circle opacity="0.72" cx="273" cy="312" r="1" fill="white"/>
<g opacity="0.72" filter="url(#filter6_f_2218_154)">
<circle cx="360" cy="255" r="1" fill="white"/>
</g>
<g opacity="0.72" filter="url(#filter7_f_2218_154)">
<circle cx="218" cy="185" r="1" fill="white"/>
</g>
<g opacity="0.72" filter="url(#filter8_f_2218_154)">
<circle cx="370.5" cy="162.5" r="1.5" fill="white"/>
</g>
<circle opacity="0.72" cx="325.5" cy="151.5" r="0.5" fill="white"/>
<path d="M425 202V227.304C425 233.931 419.627 239.304 413 239.304H409C402.373 239.304 397 244.676 397 251.304V277" stroke="url(#paint2_linear_2218_154)"/>
<path d="M458 91V116.304C458 122.931 452.627 128.304 446 128.304H442C435.373 128.304 430 133.676 430 140.304V166" stroke="url(#paint3_linear_2218_154)"/>
<path d="M153 163V137.696C153 131.069 147.627 125.696 141 125.696H133C126.373 125.696 121 120.324 121 113.696V88" stroke="url(#paint4_linear_2218_154)"/>
<path d="M181 275V249.696C181 243.069 175.627 237.696 169 237.696H165C158.373 237.696 153 232.324 153 225.696V200" stroke="url(#paint5_linear_2218_154)"/>
<path d="M289 386V360.696C289 354.069 283.627 348.696 277 348.696H193C186.373 348.696 181 343.324 181 336.696V311" stroke="url(#paint6_linear_2218_154)"/>
<path d="M398 311V336.304C398 342.931 392.627 348.304 386 348.304H302C295.373 348.304 290 353.676 290 360.304V386" stroke="url(#paint7_linear_2218_154)"/>
<g filter="url(#filter9_d_2218_154)">
<rect x="61" y="164" width="177.11" height="36" rx="8" fill="url(#paint8_linear_2218_154)" shape-rendering="crispEdges"/>
<rect x="61.5" y="164.5" width="176.11" height="35" rx="7.5" stroke="url(#paint9_linear_2218_154)" shape-rendering="crispEdges"/>
</g>
<path d="M94.4929 180.783C94.4588 180.439 94.3125 180.172 94.054 179.982C93.7955 179.791 93.4446 179.696 93.0014 179.696C92.7003 179.696 92.446 179.739 92.2386 179.824C92.0313 179.906 91.8722 180.021 91.7614 180.169C91.6534 180.317 91.5994 180.484 91.5994 180.672C91.5938 180.828 91.6264 180.964 91.6974 181.081C91.7713 181.197 91.8722 181.298 92 181.384C92.1278 181.466 92.2756 181.538 92.4432 181.601C92.6108 181.661 92.7898 181.712 92.9801 181.754L93.7642 181.942C94.1449 182.027 94.4943 182.141 94.8125 182.283C95.1307 182.425 95.4063 182.599 95.6392 182.807C95.8722 183.014 96.0526 183.259 96.1804 183.54C96.3111 183.821 96.3778 184.143 96.3807 184.507C96.3778 185.041 96.2415 185.504 95.9716 185.896C95.7045 186.286 95.3182 186.588 94.8125 186.804C94.3097 187.017 93.7031 187.124 92.9929 187.124C92.2884 187.124 91.6747 187.016 91.152 186.8C90.6321 186.584 90.2259 186.264 89.9332 185.841C89.6435 185.415 89.4915 184.888 89.4773 184.26H91.2628C91.2827 184.553 91.3665 184.797 91.5142 184.993C91.6648 185.186 91.8651 185.332 92.1151 185.432C92.3679 185.528 92.6534 185.577 92.9716 185.577C93.2841 185.577 93.5554 185.531 93.7855 185.44C94.0185 185.349 94.1989 185.223 94.3267 185.061C94.4545 184.899 94.5185 184.713 94.5185 184.503C94.5185 184.307 94.4602 184.142 94.3438 184.009C94.2301 183.875 94.0625 183.761 93.8409 183.668C93.6222 183.574 93.3537 183.489 93.0355 183.412L92.0852 183.173C91.3494 182.994 90.7685 182.714 90.3423 182.334C89.9162 181.953 89.7045 181.44 89.7074 180.795C89.7045 180.267 89.8452 179.805 90.1293 179.411C90.4162 179.016 90.8097 178.707 91.3097 178.486C91.8097 178.264 92.3778 178.153 93.0142 178.153C93.6619 178.153 94.2273 178.264 94.7102 178.486C95.196 178.707 95.5739 179.016 95.8438 179.411C96.1136 179.805 96.2528 180.263 96.2614 180.783H94.4929ZM105.642 182.636C105.642 183.588 105.461 184.398 105.1 185.065C104.743 185.733 104.254 186.243 103.635 186.595C103.018 186.945 102.325 187.119 101.555 187.119C100.779 187.119 100.083 186.943 99.467 186.591C98.8505 186.239 98.3633 185.729 98.0053 185.061C97.6474 184.393 97.4684 183.585 97.4684 182.636C97.4684 181.685 97.6474 180.875 98.0053 180.207C98.3633 179.54 98.8505 179.031 99.467 178.682C100.083 178.33 100.779 178.153 101.555 178.153C102.325 178.153 103.018 178.33 103.635 178.682C104.254 179.031 104.743 179.54 105.1 180.207C105.461 180.875 105.642 181.685 105.642 182.636ZM103.771 182.636C103.771 182.02 103.679 181.5 103.494 181.077C103.312 180.653 103.055 180.332 102.723 180.114C102.39 179.895 102.001 179.786 101.555 179.786C101.109 179.786 100.72 179.895 100.387 180.114C100.055 180.332 99.7965 180.653 99.6119 181.077C99.43 181.5 99.3391 182.02 99.3391 182.636C99.3391 183.253 99.43 183.773 99.6119 184.196C99.7965 184.619 100.055 184.94 100.387 185.159C100.72 185.378 101.109 185.487 101.555 185.487C102.001 185.487 102.39 185.378 102.723 185.159C103.055 184.94 103.312 184.619 103.494 184.196C103.679 183.773 103.771 183.253 103.771 182.636ZM107.009 187V178.273H112.787V179.794H108.854V181.874H112.403V183.395H108.854V187H107.009ZM113.696 179.794V178.273H120.863V179.794H118.191V187H116.368V179.794H113.696ZM124.008 187L121.511 178.273H123.527L124.971 184.337H125.044L126.637 178.273H128.363L129.953 184.349H130.029L131.474 178.273H133.49L130.993 187H129.194L127.532 181.294H127.464L125.806 187H124.008ZM135.103 187H133.125L136.138 178.273H138.516L141.525 187H139.547L137.361 180.267H137.293L135.103 187ZM134.979 183.57H139.65V185.01H134.979V183.57ZM142.575 187V178.273H146.018C146.677 178.273 147.24 178.391 147.706 178.626C148.174 178.859 148.531 179.19 148.775 179.619C149.022 180.045 149.146 180.547 149.146 181.124C149.146 181.703 149.021 182.202 148.771 182.619C148.521 183.034 148.159 183.352 147.684 183.574C147.213 183.795 146.642 183.906 145.971 183.906H143.666V182.423H145.673C146.025 182.423 146.318 182.375 146.551 182.278C146.784 182.182 146.957 182.037 147.071 181.844C147.187 181.651 147.245 181.411 147.245 181.124C147.245 180.834 147.187 180.589 147.071 180.391C146.957 180.192 146.782 180.041 146.547 179.939C146.314 179.834 146.02 179.781 145.664 179.781H144.42V187H142.575ZM147.288 183.028L149.457 187H147.42L145.298 183.028H147.288ZM150.45 187V178.273H156.331V179.794H152.295V181.874H156.028V183.395H152.295V185.479H156.348V187H150.45ZM163.669 187H160.575V178.273H163.694C164.572 178.273 165.328 178.447 165.961 178.797C166.595 179.143 167.082 179.642 167.423 180.293C167.767 180.943 167.939 181.722 167.939 182.628C167.939 183.537 167.767 184.318 167.423 184.972C167.082 185.625 166.592 186.126 165.953 186.476C165.316 186.825 164.555 187 163.669 187ZM162.42 185.419H163.592C164.137 185.419 164.596 185.322 164.968 185.129C165.343 184.933 165.625 184.631 165.812 184.222C166.002 183.81 166.098 183.278 166.098 182.628C166.098 181.983 166.002 181.456 165.812 181.047C165.625 180.638 165.345 180.337 164.973 180.143C164.6 179.95 164.142 179.854 163.596 179.854H162.42V185.419ZM169.305 187V178.273H175.186V179.794H171.151V181.874H174.884V183.395H171.151V185.479H175.203V187H169.305ZM181.387 180.783C181.353 180.439 181.207 180.172 180.949 179.982C180.69 179.791 180.339 179.696 179.896 179.696C179.595 179.696 179.341 179.739 179.133 179.824C178.926 179.906 178.767 180.021 178.656 180.169C178.548 180.317 178.494 180.484 178.494 180.672C178.488 180.828 178.521 180.964 178.592 181.081C178.666 181.197 178.767 181.298 178.895 181.384C179.022 181.466 179.17 181.538 179.338 181.601C179.505 181.661 179.684 181.712 179.875 181.754L180.659 181.942C181.039 182.027 181.389 182.141 181.707 182.283C182.025 182.425 182.301 182.599 182.534 182.807C182.767 183.014 182.947 183.259 183.075 183.54C183.206 183.821 183.272 184.143 183.275 184.507C183.272 185.041 183.136 185.504 182.866 185.896C182.599 186.286 182.213 186.588 181.707 186.804C181.204 187.017 180.598 187.124 179.887 187.124C179.183 187.124 178.569 187.016 178.047 186.8C177.527 186.584 177.12 186.264 176.828 185.841C176.538 185.415 176.386 184.888 176.372 184.26H178.157C178.177 184.553 178.261 184.797 178.409 184.993C178.559 185.186 178.76 185.332 179.01 185.432C179.262 185.528 179.548 185.577 179.866 185.577C180.179 185.577 180.45 185.531 180.68 185.44C180.913 185.349 181.093 185.223 181.221 185.061C181.349 184.899 181.413 184.713 181.413 184.503C181.413 184.307 181.355 184.142 181.238 184.009C181.125 183.875 180.957 183.761 180.735 183.668C180.517 183.574 180.248 183.489 179.93 183.412L178.98 183.173C178.244 182.994 177.663 182.714 177.237 182.334C176.811 181.953 176.599 181.44 176.602 180.795C176.599 180.267 176.74 179.805 177.024 179.411C177.311 179.016 177.704 178.707 178.204 178.486C178.704 178.264 179.272 178.153 179.909 178.153C180.556 178.153 181.122 178.264 181.605 178.486C182.091 178.707 182.468 179.016 182.738 179.411C183.008 179.805 183.147 180.263 183.156 180.783H181.387ZM186.362 178.273V187H184.516V178.273H186.362ZM193.667 181.094C193.607 180.886 193.523 180.703 193.415 180.544C193.307 180.382 193.175 180.246 193.019 180.135C192.865 180.021 192.689 179.935 192.49 179.875C192.294 179.815 192.077 179.786 191.838 179.786C191.392 179.786 191 179.896 190.662 180.118C190.327 180.339 190.066 180.662 189.878 181.085C189.691 181.506 189.597 182.02 189.597 182.628C189.597 183.236 189.689 183.753 189.874 184.179C190.059 184.605 190.32 184.93 190.658 185.155C190.996 185.376 191.395 185.487 191.855 185.487C192.273 185.487 192.63 185.413 192.925 185.266C193.223 185.115 193.451 184.903 193.607 184.631C193.766 184.358 193.846 184.036 193.846 183.663L194.221 183.719H191.971V182.33H195.623V183.429C195.623 184.196 195.461 184.855 195.137 185.406C194.813 185.955 194.367 186.378 193.799 186.676C193.23 186.972 192.58 187.119 191.847 187.119C191.029 187.119 190.31 186.939 189.691 186.578C189.071 186.214 188.588 185.699 188.242 185.031C187.898 184.361 187.726 183.565 187.726 182.645C187.726 181.937 187.828 181.307 188.033 180.753C188.24 180.196 188.53 179.724 188.902 179.338C189.275 178.952 189.708 178.658 190.202 178.456C190.696 178.254 191.232 178.153 191.809 178.153C192.303 178.153 192.763 178.226 193.189 178.371C193.615 178.513 193.993 178.714 194.323 178.976C194.655 179.237 194.926 179.548 195.137 179.909C195.347 180.267 195.482 180.662 195.542 181.094H193.667ZM204.308 178.273V187H202.714L198.918 181.507H198.854V187H197.009V178.273H198.628L202.395 183.761H202.472V178.273H204.308Z" fill="url(#paint10_linear_2218_154)"/>
<g filter="url(#filter10_d_2218_154)">
<rect x="24" y="52" width="184" height="36" rx="8" fill="url(#paint11_linear_2218_154)" shape-rendering="crispEdges"/>
<rect x="24.5" y="52.5" width="183" height="35" rx="7.5" stroke="url(#paint12_linear_2218_154)" shape-rendering="crispEdges"/>
</g>
<path d="M68.7585 75V66.2727H72.2017C72.8608 66.2727 73.4233 66.3906 73.8892 66.6264C74.358 66.8594 74.7145 67.1903 74.9588 67.6193C75.206 68.0455 75.3295 68.5469 75.3295 69.1236C75.3295 69.7031 75.2045 70.2017 74.9545 70.6193C74.7045 71.0341 74.3423 71.3523 73.8679 71.5739C73.3963 71.7955 72.8253 71.9062 72.1548 71.9062H69.8494V70.4233H71.8565C72.2088 70.4233 72.5014 70.375 72.7344 70.2784C72.9673 70.1818 73.1406 70.0369 73.2543 69.8438C73.3707 69.6506 73.429 69.4105 73.429 69.1236C73.429 68.8338 73.3707 68.5895 73.2543 68.3906C73.1406 68.1918 72.9659 68.0412 72.7301 67.9389C72.4972 67.8338 72.2031 67.7812 71.848 67.7812H70.6037V75H68.7585ZM73.4716 71.0284L75.6406 75H73.6037L71.4815 71.0284H73.4716ZM76.6335 75V66.2727H82.5142V67.794H78.4787V69.8736H82.2116V71.3949H78.4787V73.4787H82.5312V75H76.6335ZM87.2752 71.9659H88.8434L89.6317 72.9801L90.4073 73.8835L91.869 75.7159H90.1474L89.1417 74.4801L88.6261 73.7472L87.2752 71.9659ZM92.0011 70.6364C92.0011 71.5881 91.8207 72.3977 91.4599 73.0653C91.1019 73.733 90.6133 74.2429 89.994 74.5952C89.3775 74.9446 88.6843 75.1193 87.9144 75.1193C87.1388 75.1193 86.4428 74.9432 85.8263 74.5909C85.2099 74.2386 84.7227 73.7287 84.3647 73.0611C84.0067 72.3935 83.8278 71.5852 83.8278 70.6364C83.8278 69.6847 84.0067 68.875 84.3647 68.2074C84.7227 67.5398 85.2099 67.0312 85.8263 66.6818C86.4428 66.3295 87.1388 66.1534 87.9144 66.1534C88.6843 66.1534 89.3775 66.3295 89.994 66.6818C90.6133 67.0312 91.1019 67.5398 91.4599 68.2074C91.8207 68.875 92.0011 69.6847 92.0011 70.6364ZM90.1303 70.6364C90.1303 70.0199 90.038 69.5 89.8533 69.0767C89.6715 68.6534 89.4144 68.3324 89.082 68.1136C88.7496 67.8949 88.3604 67.7855 87.9144 67.7855C87.4684 67.7855 87.0792 67.8949 86.7468 68.1136C86.4144 68.3324 86.1559 68.6534 85.9712 69.0767C85.7894 69.5 85.6985 70.0199 85.6985 70.6364C85.6985 71.2528 85.7894 71.7727 85.9712 72.196C86.1559 72.6193 86.4144 72.9403 86.7468 73.1591C87.0792 73.3778 87.4684 73.4872 87.9144 73.4872C88.3604 73.4872 88.7496 73.3778 89.082 73.1591C89.4144 72.9403 89.6715 72.6193 89.8533 72.196C90.038 71.7727 90.1303 71.2528 90.1303 70.6364ZM98.7585 66.2727H100.604V71.9403C100.604 72.5767 100.452 73.1335 100.148 73.6108C99.8466 74.0881 99.4247 74.4602 98.8821 74.7273C98.3395 74.9915 97.7074 75.1236 96.9858 75.1236C96.2614 75.1236 95.6278 74.9915 95.0852 74.7273C94.5426 74.4602 94.1207 74.0881 93.8196 73.6108C93.5185 73.1335 93.3679 72.5767 93.3679 71.9403V66.2727H95.2131V71.7827C95.2131 72.1151 95.2855 72.4105 95.4304 72.669C95.5781 72.9276 95.7855 73.1307 96.0526 73.2784C96.3196 73.4261 96.6307 73.5 96.9858 73.5C97.3438 73.5 97.6548 73.4261 97.919 73.2784C98.1861 73.1307 98.392 72.9276 98.5369 72.669C98.6847 72.4105 98.7585 72.1151 98.7585 71.7827V66.2727ZM103.967 66.2727V75H102.122V66.2727H103.967ZM105.485 75V66.2727H108.928C109.587 66.2727 110.15 66.3906 110.616 66.6264C111.085 66.8594 111.441 67.1903 111.685 67.6193C111.933 68.0455 112.056 68.5469 112.056 69.1236C112.056 69.7031 111.931 70.2017 111.681 70.6193C111.431 71.0341 111.069 71.3523 110.594 71.5739C110.123 71.7955 109.552 71.9062 108.881 71.9062H106.576V70.4233H108.583C108.935 70.4233 109.228 70.375 109.461 70.2784C109.694 70.1818 109.867 70.0369 109.981 69.8438C110.097 69.6506 110.156 69.4105 110.156 69.1236C110.156 68.8338 110.097 68.5895 109.981 68.3906C109.867 68.1918 109.692 68.0412 109.457 67.9389C109.224 67.8338 108.93 67.7812 108.575 67.7812H107.33V75H105.485ZM110.198 71.0284L112.367 75H110.33L108.208 71.0284H110.198ZM113.36 75V66.2727H119.241V67.794H115.205V69.8736H118.938V71.3949H115.205V73.4787H119.258V75H113.36ZM120.708 66.2727H122.983L125.387 72.1364H125.489L127.892 66.2727H130.168V75H128.378V69.3196H128.306L126.047 74.9574H124.828L122.57 69.2983H122.498V75H120.708V66.2727ZM131.688 75V66.2727H137.569V67.794H133.533V69.8736H137.266V71.3949H133.533V73.4787H137.586V75H131.688ZM146.336 66.2727V75H144.742L140.945 69.5071H140.881V75H139.036V66.2727H140.655L144.422 71.7614H144.499V66.2727H146.336ZM147.528 67.794V66.2727H154.695V67.794H152.023V75H150.2V67.794H147.528ZM160.61 68.7827C160.576 68.4389 160.43 68.1719 160.171 67.9815C159.913 67.7912 159.562 67.696 159.119 67.696C158.817 67.696 158.563 67.7386 158.356 67.8239C158.148 67.9062 157.989 68.0213 157.879 68.169C157.771 68.3168 157.717 68.4844 157.717 68.6719C157.711 68.8281 157.744 68.9645 157.815 69.081C157.888 69.1974 157.989 69.2983 158.117 69.3835C158.245 69.4659 158.393 69.5384 158.56 69.6009C158.728 69.6605 158.907 69.7116 159.097 69.7543L159.881 69.9418C160.262 70.027 160.612 70.1406 160.93 70.2827C161.248 70.4247 161.523 70.5994 161.756 70.8068C161.989 71.0142 162.17 71.2585 162.298 71.5398C162.428 71.821 162.495 72.1435 162.498 72.5071C162.495 73.0412 162.359 73.5043 162.089 73.8963C161.822 74.2855 161.435 74.5881 160.93 74.804C160.427 75.017 159.82 75.1236 159.11 75.1236C158.406 75.1236 157.792 75.0156 157.269 74.7997C156.749 74.5838 156.343 74.2642 156.05 73.8409C155.761 73.4148 155.609 72.8878 155.594 72.2599H157.38C157.4 72.5526 157.484 72.7969 157.631 72.9929C157.782 73.1861 157.982 73.3324 158.232 73.4318C158.485 73.5284 158.771 73.5767 159.089 73.5767C159.401 73.5767 159.673 73.5312 159.903 73.4403C160.136 73.3494 160.316 73.223 160.444 73.0611C160.572 72.8991 160.636 72.7131 160.636 72.5028C160.636 72.3068 160.577 72.142 160.461 72.0085C160.347 71.875 160.18 71.7614 159.958 71.6676C159.739 71.5739 159.471 71.4886 159.153 71.4119L158.202 71.1733C157.467 70.9943 156.886 70.7145 156.46 70.3338C156.033 69.9531 155.822 69.4403 155.825 68.7955C155.822 68.267 155.962 67.8054 156.246 67.4105C156.533 67.0156 156.927 66.7074 157.427 66.4858C157.927 66.2642 158.495 66.1534 159.131 66.1534C159.779 66.1534 160.344 66.2642 160.827 66.4858C161.313 66.7074 161.691 67.0156 161.961 67.4105C162.231 67.8054 162.37 68.2628 162.379 68.7827H160.61Z" fill="url(#paint13_linear_2218_154)"/>
<path d="M104.5 286C104.5 281.858 107.858 278.5 112 278.5H248C252.142 278.5 255.5 281.858 255.5 286V302C255.5 306.142 252.142 309.5 248 309.5H112C107.858 309.5 104.5 306.142 104.5 302V286Z" fill="url(#paint14_linear_2218_154)" stroke="url(#paint15_linear_2218_154)"/>
<path d="M130.237 290.273H132.513L134.916 296.136H135.018L137.422 290.273H139.697V299H137.907V293.32H137.835L135.577 298.957H134.358L132.099 293.298H132.027V299H130.237V290.273ZM149.237 294.636C149.237 295.588 149.057 296.398 148.696 297.065C148.338 297.733 147.85 298.243 147.23 298.595C146.614 298.945 145.921 299.119 145.151 299.119C144.375 299.119 143.679 298.943 143.063 298.591C142.446 298.239 141.959 297.729 141.601 297.061C141.243 296.393 141.064 295.585 141.064 294.636C141.064 293.685 141.243 292.875 141.601 292.207C141.959 291.54 142.446 291.031 143.063 290.682C143.679 290.33 144.375 290.153 145.151 290.153C145.921 290.153 146.614 290.33 147.23 290.682C147.85 291.031 148.338 291.54 148.696 292.207C149.057 292.875 149.237 293.685 149.237 294.636ZM147.367 294.636C147.367 294.02 147.274 293.5 147.09 293.077C146.908 292.653 146.651 292.332 146.318 292.114C145.986 291.895 145.597 291.786 145.151 291.786C144.705 291.786 144.316 291.895 143.983 292.114C143.651 292.332 143.392 292.653 143.208 293.077C143.026 293.5 142.935 294.02 142.935 294.636C142.935 295.253 143.026 295.773 143.208 296.196C143.392 296.619 143.651 296.94 143.983 297.159C144.316 297.378 144.705 297.487 145.151 297.487C145.597 297.487 145.986 297.378 146.318 297.159C146.651 296.94 146.908 296.619 147.09 296.196C147.274 295.773 147.367 295.253 147.367 294.636ZM153.698 299H150.604V290.273H153.724C154.601 290.273 155.357 290.447 155.991 290.797C156.624 291.143 157.111 291.642 157.452 292.293C157.796 292.943 157.968 293.722 157.968 294.628C157.968 295.537 157.796 296.318 157.452 296.972C157.111 297.625 156.621 298.126 155.982 298.476C155.346 298.825 154.584 299 153.698 299ZM152.449 297.419H153.621C154.167 297.419 154.626 297.322 154.998 297.129C155.373 296.933 155.654 296.631 155.841 296.222C156.032 295.81 156.127 295.278 156.127 294.628C156.127 293.983 156.032 293.456 155.841 293.047C155.654 292.638 155.374 292.337 155.002 292.143C154.63 291.95 154.171 291.854 153.626 291.854H152.449V297.419ZM164.725 290.273H166.57V295.94C166.57 296.577 166.419 297.134 166.115 297.611C165.813 298.088 165.392 298.46 164.849 298.727C164.306 298.991 163.674 299.124 162.953 299.124C162.228 299.124 161.595 298.991 161.052 298.727C160.509 298.46 160.088 298.088 159.786 297.611C159.485 297.134 159.335 296.577 159.335 295.94V290.273H161.18V295.783C161.18 296.115 161.252 296.411 161.397 296.669C161.545 296.928 161.752 297.131 162.019 297.278C162.286 297.426 162.597 297.5 162.953 297.5C163.311 297.5 163.622 297.426 163.886 297.278C164.153 297.131 164.359 296.928 164.504 296.669C164.651 296.411 164.725 296.115 164.725 295.783V290.273ZM168.089 299V290.273H169.934V297.479H173.675V299H168.089ZM174.897 299V290.273H180.778V291.794H176.742V293.874H180.475V295.395H176.742V297.479H180.795V299H174.897ZM188.116 299H185.022V290.273H188.142C189.019 290.273 189.775 290.447 190.409 290.797C191.042 291.143 191.529 291.642 191.87 292.293C192.214 292.943 192.386 293.722 192.386 294.628C192.386 295.537 192.214 296.318 191.87 296.972C191.529 297.625 191.039 298.126 190.4 298.476C189.764 298.825 189.002 299 188.116 299ZM186.867 297.419H188.039C188.585 297.419 189.044 297.322 189.416 297.129C189.791 296.933 190.072 296.631 190.259 296.222C190.45 295.81 190.545 295.278 190.545 294.628C190.545 293.983 190.45 293.456 190.259 293.047C190.072 292.638 189.792 292.337 189.42 292.143C189.048 291.95 188.589 291.854 188.044 291.854H186.867V297.419ZM193.753 299V290.273H199.633V291.794H195.598V293.874H199.331V295.395H195.598V297.479H199.65V299H193.753ZM205.835 292.783C205.801 292.439 205.654 292.172 205.396 291.982C205.137 291.791 204.786 291.696 204.343 291.696C204.042 291.696 203.788 291.739 203.58 291.824C203.373 291.906 203.214 292.021 203.103 292.169C202.995 292.317 202.941 292.484 202.941 292.672C202.936 292.828 202.968 292.964 203.039 293.081C203.113 293.197 203.214 293.298 203.342 293.384C203.47 293.466 203.617 293.538 203.785 293.601C203.953 293.661 204.132 293.712 204.322 293.754L205.106 293.942C205.487 294.027 205.836 294.141 206.154 294.283C206.472 294.425 206.748 294.599 206.981 294.807C207.214 295.014 207.394 295.259 207.522 295.54C207.653 295.821 207.72 296.143 207.722 296.507C207.72 297.041 207.583 297.504 207.313 297.896C207.046 298.286 206.66 298.588 206.154 298.804C205.651 299.017 205.045 299.124 204.335 299.124C203.63 299.124 203.017 299.016 202.494 298.8C201.974 298.584 201.568 298.264 201.275 297.841C200.985 297.415 200.833 296.888 200.819 296.26H202.605C202.624 296.553 202.708 296.797 202.856 296.993C203.007 297.186 203.207 297.332 203.457 297.432C203.71 297.528 203.995 297.577 204.313 297.577C204.626 297.577 204.897 297.531 205.127 297.44C205.36 297.349 205.541 297.223 205.669 297.061C205.796 296.899 205.86 296.713 205.86 296.503C205.86 296.307 205.802 296.142 205.686 296.009C205.572 295.875 205.404 295.761 205.183 295.668C204.964 295.574 204.695 295.489 204.377 295.412L203.427 295.173C202.691 294.994 202.11 294.714 201.684 294.334C201.258 293.953 201.046 293.44 201.049 292.795C201.046 292.267 201.187 291.805 201.471 291.411C201.758 291.016 202.151 290.707 202.651 290.486C203.151 290.264 203.72 290.153 204.356 290.153C205.004 290.153 205.569 290.264 206.052 290.486C206.538 290.707 206.916 291.016 207.186 291.411C207.455 291.805 207.595 292.263 207.603 292.783H205.835ZM210.809 290.273V299H208.964V290.273H210.809ZM218.114 293.094C218.054 292.886 217.97 292.703 217.862 292.544C217.754 292.382 217.622 292.246 217.466 292.135C217.313 292.021 217.137 291.935 216.938 291.875C216.742 291.815 216.524 291.786 216.286 291.786C215.84 291.786 215.448 291.896 215.11 292.118C214.774 292.339 214.513 292.662 214.325 293.085C214.138 293.506 214.044 294.02 214.044 294.628C214.044 295.236 214.137 295.753 214.321 296.179C214.506 296.605 214.767 296.93 215.105 297.155C215.443 297.376 215.843 297.487 216.303 297.487C216.72 297.487 217.077 297.413 217.372 297.266C217.671 297.115 217.898 296.903 218.054 296.631C218.213 296.358 218.293 296.036 218.293 295.663L218.668 295.719H216.418V294.33H220.07V295.429C220.07 296.196 219.908 296.855 219.584 297.406C219.26 297.955 218.814 298.378 218.246 298.676C217.678 298.972 217.027 299.119 216.294 299.119C215.476 299.119 214.757 298.939 214.138 298.578C213.519 298.214 213.036 297.699 212.689 297.031C212.345 296.361 212.173 295.565 212.173 294.645C212.173 293.937 212.276 293.307 212.48 292.753C212.688 292.196 212.977 291.724 213.35 291.338C213.722 290.952 214.155 290.658 214.649 290.456C215.144 290.254 215.679 290.153 216.256 290.153C216.75 290.153 217.21 290.226 217.637 290.371C218.063 290.513 218.441 290.714 218.77 290.976C219.102 291.237 219.374 291.548 219.584 291.909C219.794 292.267 219.929 292.662 219.989 293.094H218.114ZM228.756 290.273V299H227.162L223.365 293.507H223.301V299H221.456V290.273H223.075L226.842 295.761H226.919V290.273H228.756Z" fill="url(#paint16_linear_2218_154)"/>
<path d="M214.5 394C214.5 389.858 217.858 386.5 222 386.5H358C362.142 386.5 365.5 389.858 365.5 394V410C365.5 414.142 362.142 417.5 358 417.5H222C217.858 417.5 214.5 414.142 214.5 410V394Z" fill="url(#paint17_linear_2218_154)" stroke="url(#paint18_linear_2218_154)"/>
<path d="M272.73 401.328H270.864C270.83 401.087 270.76 400.872 270.655 400.685C270.55 400.494 270.415 400.332 270.25 400.199C270.085 400.065 269.895 399.963 269.679 399.892C269.466 399.821 269.235 399.786 268.985 399.786C268.533 399.786 268.139 399.898 267.804 400.122C267.469 400.344 267.209 400.668 267.024 401.094C266.84 401.517 266.747 402.031 266.747 402.636C266.747 403.259 266.84 403.781 267.024 404.205C267.212 404.628 267.473 404.947 267.808 405.163C268.144 405.379 268.531 405.487 268.972 405.487C269.219 405.487 269.448 405.455 269.658 405.389C269.871 405.324 270.06 405.229 270.225 405.104C270.389 404.976 270.526 404.821 270.634 404.639C270.744 404.457 270.821 404.25 270.864 404.017L272.73 404.026C272.682 404.426 272.561 404.812 272.368 405.185C272.178 405.554 271.921 405.885 271.597 406.178C271.276 406.467 270.892 406.697 270.446 406.868C270.003 407.036 269.502 407.119 268.942 407.119C268.164 407.119 267.468 406.943 266.854 406.591C266.243 406.239 265.76 405.729 265.405 405.061C265.053 404.393 264.877 403.585 264.877 402.636C264.877 401.685 265.056 400.875 265.414 400.207C265.771 399.54 266.257 399.031 266.871 398.682C267.485 398.33 268.175 398.153 268.942 398.153C269.448 398.153 269.916 398.224 270.348 398.366C270.783 398.509 271.168 398.716 271.503 398.989C271.838 399.259 272.111 399.589 272.321 399.982C272.534 400.374 272.671 400.822 272.73 401.328ZM282.073 402.636C282.073 403.588 281.893 404.398 281.532 405.065C281.174 405.733 280.686 406.243 280.066 406.595C279.45 406.945 278.757 407.119 277.987 407.119C277.211 407.119 276.515 406.943 275.899 406.591C275.282 406.239 274.795 405.729 274.437 405.061C274.079 404.393 273.9 403.585 273.9 402.636C273.9 401.685 274.079 400.875 274.437 400.207C274.795 399.54 275.282 399.031 275.899 398.682C276.515 398.33 277.211 398.153 277.987 398.153C278.757 398.153 279.45 398.33 280.066 398.682C280.686 399.031 281.174 399.54 281.532 400.207C281.893 400.875 282.073 401.685 282.073 402.636ZM280.203 402.636C280.203 402.02 280.11 401.5 279.926 401.077C279.744 400.653 279.487 400.332 279.154 400.114C278.822 399.895 278.433 399.786 277.987 399.786C277.541 399.786 277.151 399.895 276.819 400.114C276.487 400.332 276.228 400.653 276.044 401.077C275.862 401.5 275.771 402.02 275.771 402.636C275.771 403.253 275.862 403.773 276.044 404.196C276.228 404.619 276.487 404.94 276.819 405.159C277.151 405.378 277.541 405.487 277.987 405.487C278.433 405.487 278.822 405.378 279.154 405.159C279.487 404.94 279.744 404.619 279.926 404.196C280.11 403.773 280.203 403.253 280.203 402.636ZM286.534 407H283.44V398.273H286.559C287.437 398.273 288.193 398.447 288.827 398.797C289.46 399.143 289.947 399.642 290.288 400.293C290.632 400.943 290.804 401.722 290.804 402.628C290.804 403.537 290.632 404.318 290.288 404.972C289.947 405.625 289.457 406.126 288.818 406.476C288.182 406.825 287.42 407 286.534 407ZM285.285 405.419H286.457C287.003 405.419 287.461 405.322 287.834 405.129C288.209 404.933 288.49 404.631 288.677 404.222C288.868 403.81 288.963 403.278 288.963 402.628C288.963 401.983 288.868 401.456 288.677 401.047C288.49 400.638 288.21 400.337 287.838 400.143C287.466 399.95 287.007 399.854 286.461 399.854H285.285V405.419ZM294.016 398.273V407H292.171V398.273H294.016ZM302.834 398.273V407H301.24L297.443 401.507H297.379V407H295.534V398.273H297.153L300.92 403.761H300.997V398.273H302.834ZM310.145 401.094C310.085 400.886 310.002 400.703 309.894 400.544C309.786 400.382 309.654 400.246 309.497 400.135C309.344 400.021 309.168 399.935 308.969 399.875C308.773 399.815 308.556 399.786 308.317 399.786C307.871 399.786 307.479 399.896 307.141 400.118C306.806 400.339 306.544 400.662 306.357 401.085C306.169 401.506 306.075 402.02 306.075 402.628C306.075 403.236 306.168 403.753 306.352 404.179C306.537 404.605 306.798 404.93 307.137 405.155C307.475 405.376 307.874 405.487 308.334 405.487C308.752 405.487 309.108 405.413 309.404 405.266C309.702 405.115 309.929 404.903 310.085 404.631C310.244 404.358 310.324 404.036 310.324 403.663L310.699 403.719H308.449V402.33H312.101V403.429C312.101 404.196 311.939 404.855 311.615 405.406C311.291 405.955 310.845 406.378 310.277 406.676C309.709 406.972 309.058 407.119 308.325 407.119C307.507 407.119 306.789 406.939 306.169 406.578C305.55 406.214 305.067 405.699 304.72 405.031C304.377 404.361 304.205 403.565 304.205 402.645C304.205 401.937 304.307 401.307 304.512 400.753C304.719 400.196 305.009 399.724 305.381 399.338C305.753 398.952 306.186 398.658 306.681 398.456C307.175 398.254 307.71 398.153 308.287 398.153C308.781 398.153 309.242 398.226 309.668 398.371C310.094 398.513 310.472 398.714 310.801 398.976C311.134 399.237 311.405 399.548 311.615 399.909C311.825 400.267 311.96 400.662 312.02 401.094H310.145Z" fill="url(#paint19_linear_2218_154)"/>
<path d="M322.5 286C322.5 281.858 325.858 278.5 330 278.5H466C470.142 278.5 473.5 281.858 473.5 286V302C473.5 306.142 470.142 309.5 466 309.5H330C325.858 309.5 322.5 306.142 322.5 302V286Z" fill="url(#paint20_linear_2218_154)" stroke="url(#paint21_linear_2218_154)"/>
<path d="M361.503 290.273H363.348V295.94C363.348 296.577 363.196 297.134 362.892 297.611C362.591 298.088 362.169 298.46 361.626 298.727C361.084 298.991 360.452 299.124 359.73 299.124C359.006 299.124 358.372 298.991 357.829 298.727C357.287 298.46 356.865 298.088 356.564 297.611C356.263 297.134 356.112 296.577 356.112 295.94V290.273H357.957V295.783C357.957 296.115 358.03 296.411 358.175 296.669C358.322 296.928 358.53 297.131 358.797 297.278C359.064 297.426 359.375 297.5 359.73 297.5C360.088 297.5 360.399 297.426 360.663 297.278C360.93 297.131 361.136 296.928 361.281 296.669C361.429 296.411 361.503 296.115 361.503 295.783V290.273ZM372.166 290.273V299H370.572L366.775 293.507H366.711V299H364.866V290.273H366.485L370.252 295.761H370.329V290.273H372.166ZM375.535 290.273V299H373.69V290.273H375.535ZM376.721 291.794V290.273H383.889V291.794H381.217V299H379.393V291.794H376.721ZM387.514 291.794V290.273H394.682V291.794H392.01V299H390.186V291.794H387.514ZM395.862 299V290.273H401.743V291.794H397.707V293.874H401.44V295.395H397.707V297.479H401.76V299H395.862ZM407.944 292.783C407.91 292.439 407.764 292.172 407.505 291.982C407.247 291.791 406.896 291.696 406.453 291.696C406.151 291.696 405.897 291.739 405.69 291.824C405.482 291.906 405.323 292.021 405.213 292.169C405.105 292.317 405.051 292.484 405.051 292.672C405.045 292.828 405.078 292.964 405.149 293.081C405.222 293.197 405.323 293.298 405.451 293.384C405.579 293.466 405.727 293.538 405.894 293.601C406.062 293.661 406.241 293.712 406.431 293.754L407.215 293.942C407.596 294.027 407.945 294.141 408.264 294.283C408.582 294.425 408.857 294.599 409.09 294.807C409.323 295.014 409.504 295.259 409.632 295.54C409.762 295.821 409.829 296.143 409.832 296.507C409.829 297.041 409.693 297.504 409.423 297.896C409.156 298.286 408.769 298.588 408.264 298.804C407.761 299.017 407.154 299.124 406.444 299.124C405.74 299.124 405.126 299.016 404.603 298.8C404.083 298.584 403.677 298.264 403.384 297.841C403.095 297.415 402.943 296.888 402.928 296.26H404.714C404.734 296.553 404.818 296.797 404.965 296.993C405.116 297.186 405.316 297.332 405.566 297.432C405.819 297.528 406.105 297.577 406.423 297.577C406.735 297.577 407.007 297.531 407.237 297.44C407.47 297.349 407.65 297.223 407.778 297.061C407.906 296.899 407.97 296.713 407.97 296.503C407.97 296.307 407.911 296.142 407.795 296.009C407.681 295.875 407.514 295.761 407.292 295.668C407.073 295.574 406.805 295.489 406.487 295.412L405.536 295.173C404.801 294.994 404.22 294.714 403.794 294.334C403.367 293.953 403.156 293.44 403.159 292.795C403.156 292.267 403.296 291.805 403.58 291.411C403.867 291.016 404.261 290.707 404.761 290.486C405.261 290.264 405.829 290.153 406.465 290.153C407.113 290.153 407.678 290.264 408.161 290.486C408.647 290.707 409.025 291.016 409.295 291.411C409.565 291.805 409.704 292.263 409.713 292.783H407.944ZM410.741 291.794V290.273H417.908V291.794H415.236V299H413.412V291.794H410.741ZM420.934 290.273V299H419.089V290.273H420.934ZM429.752 290.273V299H428.158L424.361 293.507H424.297V299H422.452V290.273H424.071L427.838 295.761H427.915V290.273H429.752ZM437.063 293.094C437.003 292.886 436.92 292.703 436.812 292.544C436.704 292.382 436.572 292.246 436.415 292.135C436.262 292.021 436.086 291.935 435.887 291.875C435.691 291.815 435.474 291.786 435.235 291.786C434.789 291.786 434.397 291.896 434.059 292.118C433.724 292.339 433.462 292.662 433.275 293.085C433.087 293.506 432.993 294.02 432.993 294.628C432.993 295.236 433.086 295.753 433.27 296.179C433.455 296.605 433.716 296.93 434.055 297.155C434.393 297.376 434.792 297.487 435.252 297.487C435.67 297.487 436.026 297.413 436.322 297.266C436.62 297.115 436.847 296.903 437.003 296.631C437.162 296.358 437.242 296.036 437.242 295.663L437.617 295.719H435.367V294.33H439.019V295.429C439.019 296.196 438.857 296.855 438.533 297.406C438.209 297.955 437.763 298.378 437.195 298.676C436.627 298.972 435.976 299.119 435.243 299.119C434.425 299.119 433.706 298.939 433.087 298.578C432.468 298.214 431.985 297.699 431.638 297.031C431.295 296.361 431.123 295.565 431.123 294.645C431.123 293.937 431.225 293.307 431.43 292.753C431.637 292.196 431.927 291.724 432.299 291.338C432.671 290.952 433.104 290.658 433.599 290.456C434.093 290.254 434.628 290.153 435.205 290.153C435.699 290.153 436.16 290.226 436.586 290.371C437.012 290.513 437.39 290.714 437.719 290.976C438.052 291.237 438.323 291.548 438.533 291.909C438.743 292.267 438.878 292.662 438.938 293.094H437.063Z" fill="url(#paint22_linear_2218_154)"/>
<path d="M372 168.5H508C512.142 168.5 515.5 171.858 515.5 176V192C515.5 196.142 512.142 199.5 508 199.5H372C367.858 199.5 364.5 196.142 364.5 192V176C364.5 171.858 367.858 168.5 372 168.5Z" fill="url(#paint23_linear_2218_154)" stroke="url(#paint24_linear_2218_154)"/>
<path d="M373.408 180.273V189H371.563V180.273H373.408ZM382.226 180.273V189H380.632L376.836 183.507H376.772V189H374.926V180.273H376.546L380.313 185.761H380.39V180.273H382.226ZM383.418 181.794V180.273H390.586V181.794H387.914V189H386.09V181.794H383.418ZM391.766 189V180.273H397.647V181.794H393.612V183.874H397.344V185.395H393.612V187.479H397.664V189H391.766ZM404.901 183.094C404.841 182.886 404.757 182.703 404.65 182.544C404.542 182.382 404.409 182.246 404.253 182.135C404.1 182.021 403.924 181.935 403.725 181.875C403.529 181.815 403.311 181.786 403.073 181.786C402.627 181.786 402.235 181.896 401.897 182.118C401.561 182.339 401.3 182.662 401.113 183.085C400.925 183.506 400.831 184.02 400.831 184.628C400.831 185.236 400.924 185.753 401.108 186.179C401.293 186.605 401.554 186.93 401.892 187.155C402.23 187.376 402.63 187.487 403.09 187.487C403.507 187.487 403.864 187.413 404.159 187.266C404.458 187.115 404.685 186.903 404.841 186.631C405 186.358 405.08 186.036 405.08 185.663L405.455 185.719H403.205V184.33H406.857V185.429C406.857 186.196 406.695 186.855 406.371 187.406C406.047 187.955 405.601 188.378 405.033 188.676C404.465 188.972 403.814 189.119 403.081 189.119C402.263 189.119 401.544 188.939 400.925 188.578C400.306 188.214 399.823 187.699 399.476 187.031C399.132 186.361 398.961 185.565 398.961 184.645C398.961 183.937 399.063 183.307 399.267 182.753C399.475 182.196 399.765 181.724 400.137 181.338C400.509 180.952 400.942 180.658 401.436 180.456C401.931 180.254 402.466 180.153 403.043 180.153C403.537 180.153 403.998 180.226 404.424 180.371C404.85 180.513 405.228 180.714 405.557 180.976C405.89 181.237 406.161 181.548 406.371 181.909C406.581 182.267 406.716 182.662 406.776 183.094H404.901ZM408.243 189V180.273H411.686C412.345 180.273 412.908 180.391 413.374 180.626C413.842 180.859 414.199 181.19 414.443 181.619C414.69 182.045 414.814 182.547 414.814 183.124C414.814 183.703 414.689 184.202 414.439 184.619C414.189 185.034 413.827 185.352 413.352 185.574C412.881 185.795 412.31 185.906 411.639 185.906H409.334V184.423H411.341C411.693 184.423 411.986 184.375 412.219 184.278C412.452 184.182 412.625 184.037 412.739 183.844C412.855 183.651 412.913 183.411 412.913 183.124C412.913 182.834 412.855 182.589 412.739 182.391C412.625 182.192 412.45 182.041 412.214 181.939C411.982 181.834 411.688 181.781 411.332 181.781H410.088V189H408.243ZM412.956 185.028L415.125 189H413.088L410.966 185.028H412.956ZM417.622 189H415.645L418.658 180.273H421.036L424.044 189H422.067L419.881 182.267H419.812L417.622 189ZM417.499 185.57H422.169V187.01H417.499V185.57ZM423.696 181.794V180.273H430.863V181.794H428.191V189H426.368V181.794H423.696ZM433.889 180.273V189H432.044V180.273H433.889ZM443.427 184.636C443.427 185.588 443.246 186.398 442.886 187.065C442.528 187.733 442.039 188.243 441.42 188.595C440.803 188.945 440.11 189.119 439.34 189.119C438.565 189.119 437.869 188.943 437.252 188.591C436.636 188.239 436.148 187.729 435.79 187.061C435.433 186.393 435.254 185.585 435.254 184.636C435.254 183.685 435.433 182.875 435.79 182.207C436.148 181.54 436.636 181.031 437.252 180.682C437.869 180.33 438.565 180.153 439.34 180.153C440.11 180.153 440.803 180.33 441.42 180.682C442.039 181.031 442.528 181.54 442.886 182.207C443.246 182.875 443.427 183.685 443.427 184.636ZM441.556 184.636C441.556 184.02 441.464 183.5 441.279 183.077C441.097 182.653 440.84 182.332 440.508 182.114C440.175 181.895 439.786 181.786 439.34 181.786C438.894 181.786 438.505 181.895 438.173 182.114C437.84 182.332 437.582 182.653 437.397 183.077C437.215 183.5 437.124 184.02 437.124 184.636C437.124 185.253 437.215 185.773 437.397 186.196C437.582 186.619 437.84 186.94 438.173 187.159C438.505 187.378 438.894 187.487 439.34 187.487C439.786 187.487 440.175 187.378 440.508 187.159C440.84 186.94 441.097 186.619 441.279 186.196C441.464 185.773 441.556 185.253 441.556 184.636ZM452.093 180.273V189H450.5L446.703 183.507H446.639V189H444.794V180.273H446.413L450.18 185.761H450.257V180.273H452.093ZM456.063 181.794V180.273H463.23V181.794H460.559V189H458.735V181.794H456.063ZM464.411 189V180.273H470.292V181.794H466.256V183.874H469.989V185.395H466.256V187.479H470.309V189H464.411ZM476.493 182.783C476.459 182.439 476.313 182.172 476.054 181.982C475.795 181.791 475.445 181.696 475.001 181.696C474.7 181.696 474.446 181.739 474.239 181.824C474.031 181.906 473.872 182.021 473.761 182.169C473.653 182.317 473.599 182.484 473.599 182.672C473.594 182.828 473.626 182.964 473.697 183.081C473.771 183.197 473.872 183.298 474 183.384C474.128 183.466 474.276 183.538 474.443 183.601C474.611 183.661 474.79 183.712 474.98 183.754L475.764 183.942C476.145 184.027 476.494 184.141 476.812 184.283C477.131 184.425 477.406 184.599 477.639 184.807C477.872 185.014 478.053 185.259 478.18 185.54C478.311 185.821 478.378 186.143 478.381 186.507C478.378 187.041 478.241 187.504 477.972 187.896C477.705 188.286 477.318 188.588 476.812 188.804C476.31 189.017 475.703 189.124 474.993 189.124C474.288 189.124 473.675 189.016 473.152 188.8C472.632 188.584 472.226 188.264 471.933 187.841C471.643 187.415 471.491 186.888 471.477 186.26H473.263C473.283 186.553 473.366 186.797 473.514 186.993C473.665 187.186 473.865 187.332 474.115 187.432C474.368 187.528 474.653 187.577 474.972 187.577C475.284 187.577 475.555 187.531 475.786 187.44C476.018 187.349 476.199 187.223 476.327 187.061C476.455 186.899 476.518 186.713 476.518 186.503C476.518 186.307 476.46 186.142 476.344 186.009C476.23 185.875 476.063 185.761 475.841 185.668C475.622 185.574 475.354 185.489 475.036 185.412L474.085 185.173C473.349 184.994 472.768 184.714 472.342 184.334C471.916 183.953 471.705 183.44 471.707 182.795C471.705 182.267 471.845 181.805 472.129 181.411C472.416 181.016 472.81 180.707 473.31 180.486C473.81 180.264 474.378 180.153 475.014 180.153C475.662 180.153 476.227 180.264 476.71 180.486C477.196 180.707 477.574 181.016 477.844 181.411C478.114 181.805 478.253 182.263 478.261 182.783H476.493ZM479.289 181.794V180.273H486.457V181.794H483.785V189H481.961V181.794H479.289ZM489.483 180.273V189H487.637V180.273H489.483ZM498.3 180.273V189H496.707L492.91 183.507H492.846V189H491.001V180.273H492.62L496.387 185.761H496.464V180.273H498.3ZM505.612 183.094C505.552 182.886 505.468 182.703 505.36 182.544C505.252 182.382 505.12 182.246 504.964 182.135C504.811 182.021 504.635 181.935 504.436 181.875C504.24 181.815 504.022 181.786 503.784 181.786C503.338 181.786 502.946 181.896 502.608 182.118C502.272 182.339 502.011 182.662 501.824 183.085C501.636 183.506 501.542 184.02 501.542 184.628C501.542 185.236 501.635 185.753 501.819 186.179C502.004 186.605 502.265 186.93 502.603 187.155C502.941 187.376 503.341 187.487 503.801 187.487C504.218 187.487 504.575 187.413 504.87 187.266C505.169 187.115 505.396 186.903 505.552 186.631C505.711 186.358 505.791 186.036 505.791 185.663L506.166 185.719H503.916V184.33H507.568V185.429C507.568 186.196 507.406 186.855 507.082 187.406C506.758 187.955 506.312 188.378 505.744 188.676C505.176 188.972 504.525 189.119 503.792 189.119C502.974 189.119 502.255 188.939 501.636 188.578C501.017 188.214 500.534 187.699 500.187 187.031C499.843 186.361 499.672 185.565 499.672 184.645C499.672 183.937 499.774 183.307 499.978 182.753C500.186 182.196 500.475 181.724 500.848 181.338C501.22 180.952 501.653 180.658 502.147 180.456C502.642 180.254 503.177 180.153 503.754 180.153C504.248 180.153 504.708 180.226 505.135 180.371C505.561 180.513 505.939 180.714 506.268 180.976C506.6 181.237 506.872 181.548 507.082 181.909C507.292 182.267 507.427 182.662 507.487 183.094H505.612Z" fill="url(#paint25_linear_2218_154)"/>
<path d="M405 56.5H541C545.142 56.5 548.5 59.8579 548.5 64V80C548.5 84.1421 545.142 87.5 541 87.5H405C400.858 87.5 397.5 84.1421 397.5 80V64C397.5 59.8579 400.858 56.5 405 56.5Z" fill="url(#paint26_linear_2218_154)" stroke="url(#paint27_linear_2218_154)"/>
<path d="M424.942 70.7827C424.908 70.4389 424.762 70.1719 424.503 69.9815C424.245 69.7912 423.894 69.696 423.451 69.696C423.15 69.696 422.895 69.7386 422.688 69.8239C422.48 69.9062 422.321 70.0213 422.211 70.169C422.103 70.3168 422.049 70.4844 422.049 70.6719C422.043 70.8281 422.076 70.9645 422.147 71.081C422.221 71.1974 422.321 71.2983 422.449 71.3835C422.577 71.4659 422.725 71.5384 422.892 71.6009C423.06 71.6605 423.239 71.7116 423.429 71.7543L424.213 71.9418C424.594 72.027 424.944 72.1406 425.262 72.2827C425.58 72.4247 425.855 72.5994 426.088 72.8068C426.321 73.0142 426.502 73.2585 426.63 73.5398C426.76 73.821 426.827 74.1435 426.83 74.5071C426.827 75.0412 426.691 75.5043 426.421 75.8963C426.154 76.2855 425.767 76.5881 425.262 76.804C424.759 77.017 424.152 77.1236 423.442 77.1236C422.738 77.1236 422.124 77.0156 421.601 76.7997C421.081 76.5838 420.675 76.2642 420.382 75.8409C420.093 75.4148 419.941 74.8878 419.926 74.2599H421.712C421.732 74.5526 421.816 74.7969 421.963 74.9929C422.114 75.1861 422.314 75.3324 422.564 75.4318C422.817 75.5284 423.103 75.5767 423.421 75.5767C423.733 75.5767 424.005 75.5312 424.235 75.4403C424.468 75.3494 424.648 75.223 424.776 75.0611C424.904 74.8991 424.968 74.7131 424.968 74.5028C424.968 74.3068 424.909 74.142 424.793 74.0085C424.679 73.875 424.512 73.7614 424.29 73.6676C424.071 73.5739 423.803 73.4886 423.485 73.4119L422.534 73.1733C421.799 72.9943 421.218 72.7145 420.792 72.3338C420.365 71.9531 420.154 71.4403 420.157 70.7955C420.154 70.267 420.294 69.8054 420.578 69.4105C420.865 69.0156 421.259 68.7074 421.759 68.4858C422.259 68.2642 422.827 68.1534 423.463 68.1534C424.111 68.1534 424.676 68.2642 425.159 68.4858C425.645 68.7074 426.023 69.0156 426.293 69.4105C426.563 69.8054 426.702 70.2628 426.711 70.7827H424.942ZM427.56 68.2727H429.626L431.616 72.0312H431.702L433.692 68.2727H435.759L432.575 73.9148V77H430.743V73.9148L427.56 68.2727ZM441.501 70.7827C441.467 70.4389 441.32 70.1719 441.062 69.9815C440.803 69.7912 440.452 69.696 440.009 69.696C439.708 69.696 439.454 69.7386 439.246 69.8239C439.039 69.9062 438.88 70.0213 438.769 70.169C438.661 70.3168 438.607 70.4844 438.607 70.6719C438.602 70.8281 438.634 70.9645 438.705 71.081C438.779 71.1974 438.88 71.2983 439.008 71.3835C439.136 71.4659 439.283 71.5384 439.451 71.6009C439.619 71.6605 439.798 71.7116 439.988 71.7543L440.772 71.9418C441.153 72.027 441.502 72.1406 441.82 72.2827C442.138 72.4247 442.414 72.5994 442.647 72.8068C442.88 73.0142 443.06 73.2585 443.188 73.5398C443.319 73.821 443.386 74.1435 443.388 74.5071C443.386 75.0412 443.249 75.5043 442.979 75.8963C442.712 76.2855 442.326 76.5881 441.82 76.804C441.317 77.017 440.711 77.1236 440.001 77.1236C439.296 77.1236 438.683 77.0156 438.16 76.7997C437.64 76.5838 437.234 76.2642 436.941 75.8409C436.651 75.4148 436.499 74.8878 436.485 74.2599H438.271C438.29 74.5526 438.374 74.7969 438.522 74.9929C438.673 75.1861 438.873 75.3324 439.123 75.4318C439.376 75.5284 439.661 75.5767 439.979 75.5767C440.292 75.5767 440.563 75.5312 440.793 75.4403C441.026 75.3494 441.207 75.223 441.335 75.0611C441.462 74.8991 441.526 74.7131 441.526 74.5028C441.526 74.3068 441.468 74.142 441.352 74.0085C441.238 73.875 441.07 73.7614 440.849 73.6676C440.63 73.5739 440.362 73.4886 440.043 73.4119L439.093 73.1733C438.357 72.9943 437.776 72.7145 437.35 72.3338C436.924 71.9531 436.712 71.4403 436.715 70.7955C436.712 70.267 436.853 69.8054 437.137 69.4105C437.424 69.0156 437.817 68.7074 438.317 68.4858C438.817 68.2642 439.386 68.1534 440.022 68.1534C440.67 68.1534 441.235 68.2642 441.718 68.4858C442.204 68.7074 442.582 69.0156 442.852 69.4105C443.121 69.8054 443.261 70.2628 443.269 70.7827H441.501ZM444.297 69.794V68.2727H451.465V69.794H448.793V77H446.969V69.794H444.297ZM452.645 77V68.2727H458.526V69.794H454.49V71.8736H458.223V73.3949H454.49V75.4787H458.543V77H452.645ZM459.993 68.2727H462.268L464.672 74.1364H464.774L467.178 68.2727H469.453V77H467.663V71.3196H467.591L465.332 76.9574H464.114L461.855 71.2983H461.783V77H459.993V68.2727ZM473.418 69.794V68.2727H480.586V69.794H477.914V77H476.09V69.794H473.418ZM481.766 77V68.2727H487.647V69.794H483.612V71.8736H487.344V73.3949H483.612V75.4787H487.664V77H481.766ZM493.848 70.7827C493.814 70.4389 493.668 70.1719 493.409 69.9815C493.151 69.7912 492.8 69.696 492.357 69.696C492.056 69.696 491.801 69.7386 491.594 69.8239C491.387 69.9062 491.228 70.0213 491.117 70.169C491.009 70.3168 490.955 70.4844 490.955 70.6719C490.949 70.8281 490.982 70.9645 491.053 71.081C491.127 71.1974 491.228 71.2983 491.355 71.3835C491.483 71.4659 491.631 71.5384 491.799 71.6009C491.966 71.6605 492.145 71.7116 492.336 71.7543L493.12 71.9418C493.5 72.027 493.85 72.1406 494.168 72.2827C494.486 72.4247 494.762 72.5994 494.995 72.8068C495.228 73.0142 495.408 73.2585 495.536 73.5398C495.667 73.821 495.733 74.1435 495.736 74.5071C495.733 75.0412 495.597 75.5043 495.327 75.8963C495.06 76.2855 494.674 76.5881 494.168 76.804C493.665 77.017 493.059 77.1236 492.348 77.1236C491.644 77.1236 491.03 77.0156 490.507 76.7997C489.988 76.5838 489.581 76.2642 489.289 75.8409C488.999 75.4148 488.847 74.8878 488.833 74.2599H490.618C490.638 74.5526 490.722 74.7969 490.87 74.9929C491.02 75.1861 491.221 75.3324 491.471 75.4318C491.723 75.5284 492.009 75.5767 492.327 75.5767C492.64 75.5767 492.911 75.5312 493.141 75.4403C493.374 75.3494 493.554 75.223 493.682 75.0611C493.81 74.8991 493.874 74.7131 493.874 74.5028C493.874 74.3068 493.816 74.142 493.699 74.0085C493.586 73.875 493.418 73.7614 493.196 73.6676C492.978 73.5739 492.709 73.4886 492.391 73.4119L491.441 73.1733C490.705 72.9943 490.124 72.7145 489.698 72.3338C489.272 71.9531 489.06 71.4403 489.063 70.7955C489.06 70.267 489.201 69.8054 489.485 69.4105C489.772 69.0156 490.165 68.7074 490.665 68.4858C491.165 68.2642 491.733 68.1534 492.37 68.1534C493.017 68.1534 493.583 68.2642 494.066 68.4858C494.551 68.7074 494.929 69.0156 495.199 69.4105C495.469 69.8054 495.608 70.2628 495.617 70.7827H493.848ZM496.645 69.794V68.2727H503.812V69.794H501.141V77H499.317V69.794H496.645ZM506.838 68.2727V77H504.993V68.2727H506.838ZM515.656 68.2727V77H514.062L510.265 71.5071H510.201V77H508.356V68.2727H509.975L513.743 73.7614H513.819V68.2727H515.656ZM522.967 71.0938C522.908 70.8864 522.824 70.7031 522.716 70.544C522.608 70.3821 522.476 70.2457 522.32 70.1349C522.166 70.0213 521.99 69.9347 521.791 69.875C521.595 69.8153 521.378 69.7855 521.139 69.7855C520.693 69.7855 520.301 69.8963 519.963 70.1179C519.628 70.3395 519.366 70.6619 519.179 71.0852C518.991 71.5057 518.898 72.0199 518.898 72.6278C518.898 73.2358 518.99 73.7528 519.175 74.179C519.359 74.6051 519.621 74.9304 519.959 75.1548C520.297 75.3764 520.696 75.4872 521.156 75.4872C521.574 75.4872 521.93 75.4134 522.226 75.2656C522.524 75.1151 522.751 74.9034 522.908 74.6307C523.067 74.358 523.146 74.0355 523.146 73.6634L523.521 73.7188H521.271V72.3295H524.923V73.429C524.923 74.196 524.761 74.8551 524.438 75.4062C524.114 75.9545 523.668 76.3778 523.099 76.6761C522.531 76.9716 521.881 77.1193 521.148 77.1193C520.33 77.1193 519.611 76.9389 518.991 76.5781C518.372 76.2145 517.889 75.6989 517.543 75.0312C517.199 74.3608 517.027 73.5653 517.027 72.6449C517.027 71.9375 517.129 71.3068 517.334 70.7528C517.541 70.196 517.831 69.7244 518.203 69.3381C518.575 68.9517 519.009 68.6577 519.503 68.456C519.997 68.2543 520.533 68.1534 521.109 68.1534C521.604 68.1534 522.064 68.2259 522.49 68.3707C522.916 68.5128 523.294 68.7145 523.624 68.9759C523.956 69.2372 524.227 69.5483 524.438 69.9091C524.648 70.267 524.783 70.6619 524.842 71.0938H522.967Z" fill="url(#paint28_linear_2218_154)"/>
<defs>
<filter id="filter0_f_2218_154" x="71" y="0" width="438" height="438" filterUnits="userSpaceOnUse" color-interpolation-filters="sRGB">
<feFlood flood-opacity="0" result="BackgroundImageFix"/>
<feBlend mode="normal" in="SourceGraphic" in2="BackgroundImageFix" result="shape"/>
<feGaussianBlur stdDeviation="64" result="effect1_foregroundBlur_2218_154"/>
</filter>
<filter id="filter1_f_2218_154" x="71" y="0" width="438" height="438" filterUnits="userSpaceOnUse" color-interpolation-filters="sRGB">
<feFlood flood-opacity="0" result="BackgroundImageFix"/>
<feBlend mode="normal" in="SourceGraphic" in2="BackgroundImageFix" result="shape"/>
<feGaussianBlur stdDeviation="64" result="effect1_foregroundBlur_2218_154"/>
</filter>
<filter id="filter2_f_2218_154" x="217.563" y="263.563" width="13.8731" height="13.8731" filterUnits="userSpaceOnUse" color-interpolation-filters="sRGB">
<feFlood flood-opacity="0" result="BackgroundImageFix"/>
<feBlend mode="normal" in="SourceGraphic" in2="BackgroundImageFix" result="shape"/>
<feGaussianBlur stdDeviation="2.71828" result="effect1_foregroundBlur_2218_154"/>
</filter>
<filter id="filter3_f_2218_154" x="364.563" y="195.563" width="14.8731" height="14.8731" filterUnits="userSpaceOnUse" color-interpolation-filters="sRGB">
<feFlood flood-opacity="0" result="BackgroundImageFix"/>
<feBlend mode="normal" in="SourceGraphic" in2="BackgroundImageFix" result="shape"/>
<feGaussianBlur stdDeviation="2.71828" result="effect1_foregroundBlur_2218_154"/>
</filter>
<filter id="filter4_f_2218_154" x="182.845" y="226.845" width="20.3097" height="20.3097" filterUnits="userSpaceOnUse" color-interpolation-filters="sRGB">
<feFlood flood-opacity="0" result="BackgroundImageFix"/>
<feBlend mode="normal" in="SourceGraphic" in2="BackgroundImageFix" result="shape"/>
<feGaussianBlur stdDeviation="4.07742" result="effect1_foregroundBlur_2218_154"/>
</filter>
<filter id="filter5_f_2218_154" x="244.282" y="156.282" width="8.43656" height="8.43656" filterUnits="userSpaceOnUse" color-interpolation-filters="sRGB">
<feFlood flood-opacity="0" result="BackgroundImageFix"/>
<feBlend mode="normal" in="SourceGraphic" in2="BackgroundImageFix" result="shape"/>
<feGaussianBlur stdDeviation="1.35914" result="effect1_foregroundBlur_2218_154"/>
</filter>
<filter id="filter6_f_2218_154" x="356.282" y="251.282" width="7.43656" height="7.43656" filterUnits="userSpaceOnUse" color-interpolation-filters="sRGB">
<feFlood flood-opacity="0" result="BackgroundImageFix"/>
<feBlend mode="normal" in="SourceGraphic" in2="BackgroundImageFix" result="shape"/>
<feGaussianBlur stdDeviation="1.35914" result="effect1_foregroundBlur_2218_154"/>
</filter>
<filter id="filter7_f_2218_154" x="214.282" y="181.282" width="7.43656" height="7.43656" filterUnits="userSpaceOnUse" color-interpolation-filters="sRGB">
<feFlood flood-opacity="0" result="BackgroundImageFix"/>
<feBlend mode="normal" in="SourceGraphic" in2="BackgroundImageFix" result="shape"/>
<feGaussianBlur stdDeviation="1.35914" result="effect1_foregroundBlur_2218_154"/>
</filter>
<filter id="filter8_f_2218_154" x="363.563" y="155.563" width="13.8731" height="13.8731" filterUnits="userSpaceOnUse" color-interpolation-filters="sRGB">
<feFlood flood-opacity="0" result="BackgroundImageFix"/>
<feBlend mode="normal" in="SourceGraphic" in2="BackgroundImageFix" result="shape"/>
<feGaussianBlur stdDeviation="2.71828" result="effect1_foregroundBlur_2218_154"/>
</filter>
<filter id="filter9_d_2218_154" x="37" y="148" width="225.109" height="84" filterUnits="userSpaceOnUse" color-interpolation-filters="sRGB">
<feFlood flood-opacity="0" result="BackgroundImageFix"/>
<feColorMatrix in="SourceAlpha" type="matrix" values="0 0 0 0 0 0 0 0 0 0 0 0 0 0 0 0 0 0 127 0" result="hardAlpha"/>
<feOffset dy="8"/>
<feGaussianBlur stdDeviation="12"/>
<feComposite in2="hardAlpha" operator="out"/>
<feColorMatrix type="matrix" values="0 0 0 0 0.0117647 0 0 0 0 0.027451 0 0 0 0 0.0705882 0 0 0 1 0"/>
<feBlend mode="normal" in2="BackgroundImageFix" result="effect1_dropShadow_2218_154"/>
<feBlend mode="normal" in="SourceGraphic" in2="effect1_dropShadow_2218_154" result="shape"/>
</filter>
<filter id="filter10_d_2218_154" x="0" y="36" width="232" height="84" filterUnits="userSpaceOnUse" color-interpolation-filters="sRGB">
<feFlood flood-opacity="0" result="BackgroundImageFix"/>
<feColorMatrix in="SourceAlpha" type="matrix" values="0 0 0 0 0 0 0 0 0 0 0 0 0 0 0 0 0 0 127 0" result="hardAlpha"/>
<feOffset dy="8"/>
<feGaussianBlur stdDeviation="12"/>
<feComposite in2="hardAlpha" operator="out"/>
<feColorMatrix type="matrix" values="0 0 0 0 0.0117647 0 0 0 0 0.027451 0 0 0 0 0.0705882 0 0 0 1 0"/>
<feBlend mode="normal" in2="BackgroundImageFix" result="effect1_dropShadow_2218_154"/>
<feBlend mode="normal" in="SourceGraphic" in2="effect1_dropShadow_2218_154" result="shape"/>
</filter>
<radialGradient id="paint0_radial_2218_154" cx="0" cy="0" r="1" gradientUnits="userSpaceOnUse" gradientTransform="translate(271.8 219) rotate(90) scale(166.227 175.445)">
<stop stop-color="#6366F1" stop-opacity="0.54"/>
<stop offset="0.45572" stop-color="#6366F1" stop-opacity="0.32"/>
<stop offset="1" stop-color="#6366F1" stop-opacity="0"/>
</radialGradient>
<radialGradient id="paint1_radial_2218_154" cx="0" cy="0" r="1" gradientUnits="userSpaceOnUse" gradientTransform="translate(271.8 219) rotate(90) scale(166.227 175.445)">
<stop stop-color="#6366F1" stop-opacity="0.54"/>
<stop offset="0.45572" stop-color="#6366F1" stop-opacity="0.32"/>
<stop offset="1" stop-color="#6366F1" stop-opacity="0"/>
</radialGradient>
<linearGradient id="paint2_linear_2218_154" x1="425" y1="202" x2="397" y2="277" gradientUnits="userSpaceOnUse">
<stop stop-color="#374151"/>
<stop offset="1" stop-color="#374151" stop-opacity="0.4"/>
</linearGradient>
<linearGradient id="paint3_linear_2218_154" x1="458" y1="91" x2="430" y2="166" gradientUnits="userSpaceOnUse">
<stop stop-color="#374151"/>
<stop offset="1" stop-color="#374151" stop-opacity="0.4"/>
</linearGradient>
<linearGradient id="paint4_linear_2218_154" x1="153" y1="163" x2="121" y2="88" gradientUnits="userSpaceOnUse">
<stop stop-color="#6366F1" stop-opacity="0.4"/>
<stop offset="1" stop-color="#6366F1"/>
</linearGradient>
<linearGradient id="paint5_linear_2218_154" x1="181" y1="275" x2="153" y2="205.5" gradientUnits="userSpaceOnUse">
<stop stop-color="#374151" stop-opacity="0.4"/>
<stop offset="1" stop-color="#374151"/>
</linearGradient>
<linearGradient id="paint6_linear_2218_154" x1="291.5" y1="390" x2="181" y2="311" gradientUnits="userSpaceOnUse">
<stop stop-color="#374151"/>
<stop offset="1" stop-color="#374151" stop-opacity="0.4"/>
</linearGradient>
<linearGradient id="paint7_linear_2218_154" x1="290" y1="386" x2="398" y2="311" gradientUnits="userSpaceOnUse">
<stop stop-color="#374151"/>
<stop offset="1" stop-color="#374151" stop-opacity="0.4"/>
</linearGradient>
<linearGradient id="paint8_linear_2218_154" x1="155.972" y1="200" x2="155.725" y2="162.305" gradientUnits="userSpaceOnUse">
<stop stop-color="#1F2937" stop-opacity="0.64"/>
<stop offset="1" stop-color="#1F2937"/>
</linearGradient>
<linearGradient id="paint9_linear_2218_154" x1="61" y1="164" x2="217.075" y2="242.059" gradientUnits="userSpaceOnUse">
<stop stop-color="#1F2937"/>
<stop offset="0.5" stop-color="#6366F1"/>
<stop offset="0.995" stop-color="#1F2937"/>
</linearGradient>
<linearGradient id="paint10_linear_2218_154" x1="89" y1="182.5" x2="211" y2="182.5" gradientUnits="userSpaceOnUse">
<stop stop-color="#838AA7"/>
<stop offset="1" stop-color="#838AA7" stop-opacity="0.64"/>
</linearGradient>
<linearGradient id="paint11_linear_2218_154" x1="122.667" y1="88" x2="122.429" y2="50.3051" gradientUnits="userSpaceOnUse">
<stop stop-color="#1F2937" stop-opacity="0.64"/>
<stop offset="1" stop-color="#1F2937"/>
</linearGradient>
<linearGradient id="paint12_linear_2218_154" x1="24" y1="52" x2="183.614" y2="134.934" gradientUnits="userSpaceOnUse">
<stop stop-color="#1F2937"/>
<stop offset="0.5" stop-color="#6366F1"/>
<stop offset="0.995" stop-color="#1F2937"/>
</linearGradient>
<linearGradient id="paint13_linear_2218_154" x1="68" y1="70.5" x2="163" y2="70.5" gradientUnits="userSpaceOnUse">
<stop stop-color="#838AA7"/>
<stop offset="1" stop-color="#838AA7" stop-opacity="0.64"/>
</linearGradient>
<linearGradient id="paint14_linear_2218_154" x1="185.507" y1="310" x2="185.28" y2="276.494" gradientUnits="userSpaceOnUse">
<stop stop-color="#1F2937" stop-opacity="0.64"/>
<stop offset="1" stop-color="#1F2937"/>
</linearGradient>
<linearGradient id="paint15_linear_2218_154" x1="104" y1="278" x2="239.79" y2="343.57" gradientUnits="userSpaceOnUse">
<stop stop-color="#1F2937"/>
<stop offset="0.5" stop-color="#4B5563"/>
<stop offset="0.995" stop-color="#1F2937"/>
</linearGradient>
<linearGradient id="paint16_linear_2218_154" x1="108" y1="294.5" x2="251" y2="294.5" gradientUnits="userSpaceOnUse">
<stop stop-color="#838AA7"/>
<stop offset="1" stop-color="#838AA7" stop-opacity="0.64"/>
</linearGradient>
<linearGradient id="paint17_linear_2218_154" x1="295.507" y1="418" x2="295.28" y2="384.494" gradientUnits="userSpaceOnUse">
<stop stop-color="#1F2937" stop-opacity="0.64"/>
<stop offset="1" stop-color="#1F2937"/>
</linearGradient>
<linearGradient id="paint18_linear_2218_154" x1="214" y1="386" x2="349.79" y2="451.57" gradientUnits="userSpaceOnUse">
<stop stop-color="#1F2937"/>
<stop offset="0.5" stop-color="#4B5563"/>
<stop offset="0.995" stop-color="#1F2937"/>
</linearGradient>
<linearGradient id="paint19_linear_2218_154" x1="217" y1="402.5" x2="360" y2="402.5" gradientUnits="userSpaceOnUse">
<stop stop-color="#838AA7"/>
<stop offset="1" stop-color="#838AA7" stop-opacity="0.64"/>
</linearGradient>
<linearGradient id="paint20_linear_2218_154" x1="403.507" y1="310" x2="403.28" y2="276.494" gradientUnits="userSpaceOnUse">
<stop stop-color="#1F2937" stop-opacity="0.64"/>
<stop offset="1" stop-color="#1F2937"/>
</linearGradient>
<linearGradient id="paint21_linear_2218_154" x1="322" y1="278" x2="457.79" y2="343.57" gradientUnits="userSpaceOnUse">
<stop stop-color="#1F2937"/>
<stop offset="0.5" stop-color="#4B5563"/>
<stop offset="0.995" stop-color="#1F2937"/>
</linearGradient>
<linearGradient id="paint22_linear_2218_154" x1="326" y1="294.5" x2="469" y2="294.5" gradientUnits="userSpaceOnUse">
<stop stop-color="#838AA7"/>
<stop offset="1" stop-color="#838AA7" stop-opacity="0.64"/>
</linearGradient>
<linearGradient id="paint23_linear_2218_154" x1="445.507" y1="200" x2="445.28" y2="166.494" gradientUnits="userSpaceOnUse">
<stop stop-color="#1F2937" stop-opacity="0.64"/>
<stop offset="1" stop-color="#1F2937"/>
</linearGradient>
<linearGradient id="paint24_linear_2218_154" x1="364" y1="168" x2="499.79" y2="233.57" gradientUnits="userSpaceOnUse">
<stop stop-color="#1F2937"/>
<stop offset="0.5" stop-color="#4B5563"/>
<stop offset="0.995" stop-color="#1F2937"/>
</linearGradient>
<linearGradient id="paint25_linear_2218_154" x1="368" y1="184.5" x2="511" y2="184.5" gradientUnits="userSpaceOnUse">
<stop stop-color="#838AA7"/>
<stop offset="1" stop-color="#838AA7" stop-opacity="0.64"/>
</linearGradient>
<linearGradient id="paint26_linear_2218_154" x1="478.507" y1="88" x2="478.28" y2="54.4936" gradientUnits="userSpaceOnUse">
<stop stop-color="#1F2937" stop-opacity="0.64"/>
<stop offset="1" stop-color="#1F2937"/>
</linearGradient>
<linearGradient id="paint27_linear_2218_154" x1="397" y1="56" x2="532.79" y2="121.57" gradientUnits="userSpaceOnUse">
<stop stop-color="#1F2937"/>
<stop offset="0.5" stop-color="#4B5563"/>
<stop offset="0.995" stop-color="#1F2937"/>
</linearGradient>
<linearGradient id="paint28_linear_2218_154" x1="401" y1="72.5" x2="544" y2="72.5" gradientUnits="userSpaceOnUse">
<stop stop-color="#838AA7"/>
<stop offset="1" stop-color="#838AA7" stop-opacity="0.64"/>
</linearGradient>
</defs>
</svg>
