<svg xmlns="http://www.w3.org/2000/svg" width="1085" height="232.5" viewBox="0 0 4340 930">
  <defs>
    <style>
      .cls-1 {
        fill: #1e92cf;
      }

      .cls-1, .cls-2 {
        fill-rule: evenodd;
      }

      .cls-2 {
        fill: red;
      }
    </style>
  </defs>
  <path class="cls-1" d="M717.375,244.445H921.254L475.024,878.821,373.213,733.845Z"/>
  <path class="cls-2" d="M850.641,51.18H1056.85l-105,149.241H745.635Z"/>
  <path class="cls-1" d="M353.206,165.811l208.141-.136L267.838,582.835,164.033,434.68Z"/>
  <path id="Rectangle_2_copy" data-name="Rectangle 2 copy" class="cls-1" d="M224.47,52.039H789.847L684.262,200.421H116.675Z"/>
  <path id="Tekinventive_copy" data-name="Tekinventive copy" class="cls-1" d="M1274.81,645.8c0,3.67-1.84,5.5-5.5,5.5h-68.75q-5.5,0-5.5-5.5V333.954c0-3.661-1.84-5.5-5.5-5.5h-89.65q-5.505,0-5.5-5.5v-60.5q0-5.492,5.5-5.5h270.05c3.66,0,5.5,1.839,5.5,5.5v60.5c0,3.67-1.84,5.5-5.5,5.5h-89.65q-5.5,0-5.5,5.5V645.8Zm187.55-100.1a27.431,27.431,0,0,0,4.4,15.125,43.347,43.347,0,0,0,11.82,12.1,59.35,59.35,0,0,0,17.88,8.25,78.58,78.58,0,0,0,22,3.025h130.9c3.66,0,5.5,1.839,5.5,5.5v56.1c0,3.67-1.84,5.5-5.5,5.5h-92.95q-46.2,0-77.28-7.7t-50.05-24.475q-18.975-16.77-26.95-42.625t-7.97-62.15q0-44,13.47-72.875t35.2-45.925a130.019,130.019,0,0,1,48.95-23.925,222.878,222.878,0,0,1,54.73-6.875q34.1,0,58.85,7.975t40.7,22.55a86.533,86.533,0,0,1,23.37,35.475q7.425,20.908,7.43,46.75v57.2c0,3.67-1.84,5.5-5.5,5.5h-203.5q-5.5,0-5.5,5.5h0Zm146.85-69.85c3.66,0,5.5-1.83,5.5-5.5q0-20.9-19.25-33.275t-53.9-12.375a103.724,103.724,0,0,0-24.48,3.3,139.179,139.179,0,0,0-25.85,9.075,68.835,68.835,0,0,0-20.62,14.3q-8.25,8.533-8.25,18.975,0,5.505,5.5,5.5h141.35Zm285.45-106.7a11,11,0,0,1,9.35-4.4h71.5c1.83,0,2.83.55,3.02,1.65s-0.46,2.389-1.92,3.85L1873.76,487.4c-0.74.739-1.57,1.65-2.48,2.75a4.753,4.753,0,0,0-1.37,2.75,7.206,7.206,0,0,0,1.37,3.3,18.169,18.169,0,0,0,2.48,3.3l108.9,147.95q2.745,3.855-1.65,3.85h-70.95q-5.5,0-9.35-4.95l-95.7-129.8a51.741,51.741,0,0,1-6.6-11.275,30.752,30.752,0,0,1-2.75-12.375q0-4.395,2.75-10.725a51.987,51.987,0,0,1,7.15-11.825Zm-171.6-112.2h56.1c3.66,0,5.5,1.839,5.5,5.5V645.8c0,3.67-1.84,5.5-5.5,5.5h-56.1q-5.5,0-5.5-5.5V262.454q0-5.492,5.5-5.5h0Zm287.64,113.3q0-5.491,5.5-5.5h56.1c3.66,0,5.5,1.839,5.5,5.5V645.8c0,3.67-1.84,5.5-5.5,5.5h-56.1q-5.505,0-5.5-5.5V370.254ZM2191.1,633.7q0,17.609-15.4,17.6h-36.85a11.939,11.939,0,0,1-11.28-6.6,31.758,31.758,0,0,1-3.57-15.4V401.054q0-13.741,11.27-25.025,11.265-11.267,28.88-11.275h124.3a85.981,85.981,0,0,1,36.85,7.975,102.3,102.3,0,0,1,29.97,21.175,96.068,96.068,0,0,1,20.08,30.25,90.307,90.307,0,0,1,7.15,35.2V645.8q0,5.505-6.05,5.5H2320.9q-5.505,0-5.5-5.5V470.9q0-13.741-4.13-22.55a32.87,32.87,0,0,0-11.55-13.75,47.131,47.131,0,0,0-17.32-6.875,112.712,112.712,0,0,0-21.45-1.925H2207.6a17.192,17.192,0,0,0-11.28,4.4c-3.49,2.939-5.22,6.05-5.22,9.35V633.7Zm415.24-9.9q-11.55,31.35-48.95,31.35-36.855,0-48.4-31.35l-95.15-255.75V366.4a2.429,2.429,0,0,1,2.75-2.75h63.25c2.2,0,3.66.37,4.4,1.1a12.148,12.148,0,0,1,2.2,4.4l63.8,174.35c0.36,0.739,1.28,2.75,2.75,6.05s2.93,4.95,4.4,4.95,2.93-1.65,4.4-4.95,2.38-5.311,2.75-6.05l64.9-174.35a11.834,11.834,0,0,1,2.2-4.4c0.73-.73,2.2-1.1,4.4-1.1h63.25a2.433,2.433,0,0,1,2.75,2.75v1.65Zm182.6-78.1a27.431,27.431,0,0,0,4.4,15.125,43.347,43.347,0,0,0,11.82,12.1,59.35,59.35,0,0,0,17.88,8.25,78.58,78.58,0,0,0,22,3.025h130.9c3.66,0,5.5,1.839,5.5,5.5v56.1c0,3.67-1.84,5.5-5.5,5.5h-92.95q-46.2,0-77.28-7.7t-50.05-24.475q-18.975-16.77-26.95-42.625t-7.97-62.15q0-44,13.47-72.875t35.2-45.925a130.019,130.019,0,0,1,48.95-23.925,222.878,222.878,0,0,1,54.73-6.875q34.1,0,58.85,7.975t40.7,22.55a86.533,86.533,0,0,1,23.37,35.475q7.425,20.908,7.43,46.75v57.2c0,3.67-1.84,5.5-5.5,5.5h-203.5q-5.505,0-5.5,5.5h0Zm146.85-69.85c3.66,0,5.5-1.83,5.5-5.5q0-20.9-19.25-33.275t-53.9-12.375a103.724,103.724,0,0,0-24.48,3.3,139.179,139.179,0,0,0-25.85,9.075,68.835,68.835,0,0,0-20.62,14.3q-8.25,8.533-8.25,18.975,0,5.505,5.5,5.5h141.35ZM3111.23,633.7q0,17.609-15.4,17.6h-36.85a11.925,11.925,0,0,1-11.27-6.6,31.761,31.761,0,0,1-3.58-15.4V401.054q0-13.741,11.28-25.025,11.265-11.267,28.87-11.275h124.3a85.981,85.981,0,0,1,36.85,7.975,102.35,102.35,0,0,1,29.98,21.175,96.039,96.039,0,0,1,20.07,30.25,90.307,90.307,0,0,1,7.15,35.2V645.8q0,5.505-6.05,5.5h-55.55q-5.505,0-5.5-5.5V470.9q0-13.741-4.12-22.55a32.87,32.87,0,0,0-11.55-13.75,47.181,47.181,0,0,0-17.33-6.875,112.712,112.712,0,0,0-21.45-1.925h-53.35a17.167,17.167,0,0,0-11.27,4.4q-5.235,4.408-5.23,9.35V633.7Zm328.9-55q0,5.505,5.5,5.5h46.2q4.4,0.555,4.4,5.5v56.1c0,3.67-1.84,5.5-5.5,5.5h-69.3q-20.91,0-34.65-12.65-13.755-12.645-13.75-29.7v-171.6c0-3.661-1.84-5.5-5.5-5.5h-29.15q-5.505,0-5.5-5.5v-56.1q0-5.491,5.5-5.5h29.15c3.66,0,5.5-1.83,5.5-5.5V290.5q0-5.491,5.5-5.5h56.1c3.66,0,5.5,1.839,5.5,5.5v68.75q0,5.5,5.5,5.5h45.1c3.66,0,5.5,1.839,5.5,5.5v56.1c0,3.67-1.84,5.5-5.5,5.5h-45.1q-5.505,0-5.5,5.5V578.7Zm92.94-208.45q0-5.491,5.5-5.5h56.1c3.66,0,5.5,1.839,5.5,5.5V645.8c0,3.67-1.84,5.5-5.5,5.5h-56.1q-5.505,0-5.5-5.5V370.254Zm5.5-113.3h56.1c3.66,0,5.5,1.839,5.5,5.5v56.1c0,3.67-1.84,5.5-5.5,5.5h-56.1q-5.505,0-5.5-5.5v-56.1q0-5.492,5.5-5.5h0ZM3826.22,623.8q-11.55,31.35-48.95,31.35-36.855,0-48.4-31.35l-95.15-255.75V366.4a2.429,2.429,0,0,1,2.75-2.75h63.25c2.2,0,3.66.37,4.4,1.1a12.148,12.148,0,0,1,2.2,4.4l63.8,174.35c0.36,0.739,1.28,2.75,2.75,6.05s2.93,4.95,4.4,4.95,2.93-1.65,4.4-4.95,2.38-5.311,2.75-6.05l64.9-174.35a11.834,11.834,0,0,1,2.2-4.4c0.73-.73,2.2-1.1,4.4-1.1h63.25a2.433,2.433,0,0,1,2.75,2.75v1.65Zm182.59-78.1a27.431,27.431,0,0,0,4.4,15.125,43.388,43.388,0,0,0,11.83,12.1,59.289,59.289,0,0,0,17.87,8.25,78.58,78.58,0,0,0,22,3.025h130.9c3.66,0,5.5,1.839,5.5,5.5v56.1c0,3.67-1.84,5.5-5.5,5.5h-92.95q-46.2,0-77.27-7.7t-50.05-24.475q-18.975-16.77-26.95-42.625t-7.98-62.15q0-44,13.48-72.875t35.2-45.925a130.019,130.019,0,0,1,48.95-23.925,222.8,222.8,0,0,1,54.72-6.875q34.095,0,58.85,7.975t40.7,22.55a86.554,86.554,0,0,1,23.38,35.475q7.425,20.908,7.42,46.75v57.2c0,3.67-1.84,5.5-5.5,5.5h-203.5q-5.505,0-5.5,5.5h0Zm146.85-69.85c3.66,0,5.5-1.83,5.5-5.5q0-20.9-19.25-33.275t-53.9-12.375a103.646,103.646,0,0,0-24.47,3.3,139.179,139.179,0,0,0-25.85,9.075,68.886,68.886,0,0,0-20.63,14.3q-8.25,8.533-8.25,18.975,0,5.505,5.5,5.5h141.35Z"/>
  <path id="Dot" class="cls-2" d="M2016.2,256.954h56.1c3.66,0,5.5,1.839,5.5,5.5v56.1c0,3.67-1.84,5.5-5.5,5.5h-56.1q-5.505,0-5.5-5.5v-56.1q0-5.492,5.5-5.5h0Z"/>
</svg>
